<svg xmlns="http://www.w3.org/2000/svg" width="1408" height="768"><path fill="#d06f4d" d="M785.313 43.813 789 47l4 3c-2.66 5.319-5.733 6.481-10.875 9.438-8.052 4.697-15.905 9.598-23.702 14.71-7.057 4.625-14.18 9.135-21.321 13.63-6.895 4.346-13.753 8.75-20.614 13.148a6401 6401 0 0 1-20.988 13.386 2359 2359 0 0 0-19.187 12.313c-7.522 4.88-15.093 9.677-22.68 14.453A4060 4060 0 0 0 638 151l-5.113 3.254-2.557 1.627L588.5 182.5l-2.75 1.75-5.493 3.496q-6.933 4.41-13.862 8.824a8173 8173 0 0 1-26.082 16.555l-4.641 2.934a1950 1950 0 0 1-9.656 6.039c-34.7 21.646-34.7 21.646-41.391 39.59-1.476 7.825-.26 14.2 3.375 21.312 8.952 12.361 21.874 19.977 34.684 27.754 9.812 5.964 19.408 12.254 29.004 18.558 8.508 5.58 17.059 11.067 25.71 16.422 5.122 3.222 10.138 6.596 15.16 9.97 3.787 2.526 7.616 4.975 11.465 7.405 3.676 2.335 7.325 4.707 10.977 7.079a2137 2137 0 0 0 23.164 14.765q4.872 3.07 9.734 6.156c8.49 5.387 17.014 10.69 25.657 15.829 3.174 1.9 6.31 3.848 9.445 5.812 52.776 32.533 109.637 61.733 173 47.25l-2 4h-2v2a216 216 0 0 1-9.25 5.688l-2.788 1.639a2343 2343 0 0 1-5.501 3.222 294 294 0 0 0-5.899 3.588C814.549 488.798 798.996 492.647 783 496l-3.5.754c-34.323 6.135-69.83-2.806-101.5-15.754l-3.863-1.578c-9.748-4.127-19.078-8.92-28.39-13.943a2245 2245 0 0 0-8.997-4.811 1252 1252 0 0 1-35.348-19.606c-8.235-4.705-16.618-9.142-24.98-13.617a1912 1912 0 0 1-17.61-9.57c-8.568-4.698-17.217-9.227-25.895-13.718a327 327 0 0 1-17.085-9.54c-3.3-1.885-6.672-3.563-10.082-5.242C473.214 373.262 441.778 354.488 414 331l-3.535-2.824c-4.02-3.684-6.99-7.613-10.152-12.051l-3.325-4.617c-11.285-17.024-14.19-37.777-11.238-57.82 8.508-38.712 42.243-62.314 73.617-82.481 9.78-6.231 19.675-12.264 29.633-18.207l2.844-1.703c10.625-6.356 21.32-12.554 32.168-18.524 6.173-3.432 12.299-6.945 18.426-10.46a2402 2402 0 0 1 31.888-17.938c8.66-4.796 17.26-9.692 25.846-14.621 4.526-2.582 9.077-5.114 13.64-7.629 6.952-3.847 13.831-7.801 20.688-11.812l3.052-1.785q6.345-3.71 12.687-7.426c41.187-24.101 90.395-51.804 135.073-17.29"/><path fill="#d0704d" d="m748 295 2.834 1.386a2563 2563 0 0 1 9.479 4.676l3.037 1.499c6.407 3.2 12.52 6.725 18.65 10.439a736 736 0 0 0 8.254 4.508c4.449 2.417 8.845 4.928 13.246 7.43 9.987 5.662 20.014 11.249 30.058 16.81 5.74 3.182 11.455 6.393 17.13 9.69 5.694 3.272 11.519 6.207 17.406 9.117 17.555 8.75 34.886 17.848 51.902 27.605a347 347 0 0 0 12.442 6.715C956.199 407.431 980.97 422.97 1000 442v2h2c16.607 18.277 22.049 38.608 21.375 62.773-.88 18.26-8.215 34.657-20.375 48.227l-2.117 2.512c-5.408 6.283-11.325 11.44-17.883 16.488l-3.45 2.703c-18.147 13.951-37.709 25.753-57.375 37.409a1683 1683 0 0 0-9.573 5.743c-11.426 6.897-22.903 13.676-34.512 20.258q-5.085 2.884-10.149 5.805c-10.664 6.149-21.43 12.065-32.285 17.87-8.519 4.569-16.918 9.31-25.293 14.138-6.046 3.48-12.143 6.867-18.238 10.261-7.747 4.323-15.419 8.731-23 13.34-8.976 5.381-18.074 10.556-27.154 15.76a665 665 0 0 0-7.428 4.361c-18.543 10.886-38.146 18.99-59.856 18.79l-3.577-.028c-19.483-.385-41.137-7.07-55.11-21.41 1.356-4.068 3.249-4.689 6.875-6.937l3.848-2.41L631 707q4.659-2.934 9.313-5.875l4.914-3.098c4.339-2.752 8.654-5.537 12.96-8.34 6.928-4.501 13.922-8.887 20.938-13.25a738 738 0 0 0 23.273-15.066c3.979-2.619 8.027-5.094 12.102-7.558 6.97-4.221 13.817-8.59 20.625-13.063 8.882-5.835 17.85-11.51 26.88-17.115 7.02-4.37 13.96-8.846 20.87-13.385 8.202-5.387 16.499-10.578 24.895-15.66 5.56-3.404 11.021-6.95 16.484-10.508A2772 2772 0 0 1 841.5 573a3589 3589 0 0 0 21.375-13.75 1670 1670 0 0 1 17.813-11.375l4.789-3.027q4.23-2.664 8.484-5.29C907.15 531.334 920.975 520.85 925 505c.802-9.051-1.065-15.33-6.75-22.437L916 480v-2l-4-2-3.582-3.191c-4.792-4.132-9.744-7.42-15.106-10.747l-2.953-1.856a1491 1491 0 0 0-15.297-9.456c-5.742-3.51-11.326-7.23-16.914-10.98-10.712-7.152-21.518-14.164-32.46-20.957-6.26-3.889-12.393-7.936-18.508-12.047-5.967-3.948-12.015-7.764-18.06-11.589a618 618 0 0 1-15.745-10.302c-6.542-4.403-13.27-8.463-20.048-12.487-4.797-2.853-9.53-5.771-14.202-8.825C685.685 328.895 625.429 295.765 560 307a815 815 0 0 1-7 1c4.246-6.003 9.805-9.3 16-13l3.7-2.305c6.937-4.279 13.575-7.996 21.3-10.695l3.98-1.426C649.022 262.796 700.246 271.618 748 295"/><path fill="#d0704e" d="M384 328c2.769 2.769 3.945 5.901 5.625 9.438C395.019 348.332 401.38 356.534 410 365v2l4 2 3.875 3.5c10.908 9.842 23.39 17.284 36.125 24.5l4.273 2.43c9.207 5.173 18.525 10.105 27.902 14.96 6.805 3.53 13.545 7.165 20.262 10.86 6.01 3.302 12.035 6.535 18.188 9.563 7.197 3.543 14.253 7.318 21.313 11.125 37.544 20.2 75.37 39.418 115.062 55.062l3.141 1.265c45.758 18.377 98.892 23.067 145.14 3.462 10.711-4.973 20.897-10.499 30.496-17.391L842 487l2 1a175 175 0 0 1-9 10l-2.094 2.172C811.385 520.914 782.014 534.337 753 540l-5.39 1.078c-33.373 5.408-67.85-.793-99.61-11.078q-3.906-1.233-7.812-2.46c-13.192-4.175-26.331-8.411-39.188-13.54l-3.244-1.29a6071 6071 0 0 1-32.12-12.878c-14.461-5.83-29.03-11.367-43.636-16.832-1.36-.512-2.72-1.024-4.122-1.55-15.963-5.991-31.87-11.616-48.358-15.981-6.478-1.724-12.882-3.654-19.29-5.621C447 459 447 459 443 459c-1.252 6.037-.425 11.852 1.688 17.563 5.913 8.79 14.394 10.057 24.312 12.187 33.07 7.195 64.98 18.63 96.438 30.938 6.9 2.697 13.844 5.222 20.843 7.652a702 702 0 0 1 10.5 3.789c14.25 5.253 28.551 9.924 43.219 13.871l2.997.816c38.166 10.25 78.366 13.77 117.003 4.184 2.983-.74 5.98-1.436 9-2v2c-44.402 27.11-104.768 22.17-153.119 10.944-16.92-4.115-33.584-9.161-50.115-14.62-23.37-7.7-46.75-14.651-70.641-20.574l-3.831-.952c-13.326-3.297-26.629-6.406-40.145-8.83-13.513-3.15-23.477-10.832-31.352-22.019-4.69-7.697-6.888-15.868-6.621-24.879.385-13.996.385-13.996-1.176-20.07-3.338-3.397-5.903-4.352-10.402-5.79-7.043-2.37-10.4-8.098-13.973-14.397-2.822-6.622-3.872-11.573-3.852-18.848v-5.52l.032-5.937.008-6.095c.008-5.337.028-10.673.05-16.01.02-5.449.03-10.899.04-16.348.02-10.685.055-21.37.097-32.055"/><path fill="#d06f4d" d="M850.505 236.126c10.87 2.386 21.768 4.423 32.745 6.249l4.34.723c14.428 2.333 28.728 4.093 43.347 4.402 37.563 1.183 37.563 1.183 52.063 14.688 10.724 11.53 13.292 23.773 12.736 39.208a431 431 0 0 1-.43 8.165c-.107 3.672-.162 6.864.694 10.439 4.215 2.223 4.215 2.223 9 3 9.612 5.767 16.262 12.588 19.407 23.681 1.397 7.816.995 15.852.956 23.764l.002 5.944q0 6.195-.029 12.39a2861 2861 0 0 0-.016 15.927c.004 5.059-.008 10.118-.02 15.177l.004 5.804-.03 5.302-.013 4.7L1025 439h-2c-1.282-2.4-2.474-4.847-3.625-7.312-21.149-42.977-69.54-62.328-110.088-82.502-11.593-5.79-22.957-11.9-34.287-18.186-4.14-2.26-8.289-4.506-12.438-6.75l-3.091-1.675a2608 2608 0 0 0-19.58-10.485 1172 1172 0 0 1-11.9-6.51c-8.847-4.876-17.734-9.447-26.925-13.654-4.232-2.005-8.327-4.188-12.441-6.426-8.973-4.798-18.196-8.693-27.625-12.5q-3.03-1.255-6.059-2.512C702.716 248.968 646.787 241.83 593 263a287 287 0 0 0-12.645 6.266C577 271 577 271 572 273v-2a215 215 0 0 1 8.812-6.187l2.654-1.786c2.507-1.683 5.02-3.355 7.534-5.027l3.148-2.133C625.086 235.401 662.444 224.964 699 221l4.793-.559c49.818-4.35 98.313 4.928 146.712 15.685M748 238v2c2.59.925 5.225 1.721 7.871 2.469l5.081 1.465 5.485 1.566c14.9 4.36 29.27 9.172 43.546 15.24 5.59 2.335 11.246 4.502 16.892 6.698 8.11 3.165 16.185 6.401 24.225 9.741 13.888 5.757 27.943 10.834 42.204 15.586q3.96 1.324 7.91 2.677c10.771 3.66 21.612 6.858 32.598 9.808l4.772 1.313c24.211 6.54 24.211 6.54 28.416 4.437.3-3.754.3-3.754.312-8.562l.051-4.754c-.506-6.53-1.984-11.065-6.238-16.059-8.092-5.15-18.62-4.816-28.017-5.256-15.475-.727-30.055-2.809-45.108-6.369l-3.964-.916c-14.853-3.443-29.585-7.084-44.153-11.596C775.945 238 775.945 238 748 238"/><path fill="#d06f4d" d="M850.505 236.126c10.87 2.386 21.768 4.423 32.745 6.249l4.34.723c14.428 2.333 28.729 4.096 43.347 4.402 30.473.91 30.473.91 36.063 6.5h2l3 5h4v2h3l3 5c-1.938 4.25-1.938 4.25-5 8-3.188.813-3.188.813-6 1l-2 3h-3l-1 2h-2c.687 2.938.687 2.938 2 6l3 1c1.26 8.832 1.585 17.203 0 26-3.888 2.755-6.13 2.37-10.813 1.883L953 314l-3.75-.633c-4.833-.955-8.832-2.158-13.25-4.367v-2c-2.661-.374-5.33-.7-8-1l-3.5-1.062c-4.414-1.183-9.276-2.05-13.5.062v-4a98 98 0 0 0-7 0l-3-2-4.188.063L893 299v-3c-2.5-2.687-2.5-2.687-5-5a137 137 0 0 1 17.387 4.797c9.387 3.18 18.856 5.883 28.425 8.453l4.772 1.313C958.714 311 958.714 311 967 311c.082-3.656.082-3.656-.188-8.5l-.23-4.781c-.745-6.041-2.052-10.867-5.957-15.594-7.944-4.657-18.47-4.332-27.517-4.756-15.475-.727-30.055-2.809-45.108-6.369l-3.964-.916c-14.853-3.443-29.585-7.084-44.153-11.596-26.493-8.075-53.708-14.797-81.07-19.113l-3.348-.536c-2.478-.363-4.971-.616-7.465-.839v2c2.534.47 5.07.93 7.614 1.348 6.245 1.202 12.262 3.19 18.323 5.09l3.94 1.197 7.181 2.23C788 251 788 251 792 254h-3l.062 3.875L789 262l-4 2 5 1v4l-4 3-1 4 4 .5 4 .5-1 4 2 2-1 2 4.312 1.375C802 288 802 288 804 292l5-1 1 4c-5.792-.93-10.598-3.77-15.688-6.562-58.615-31.28-122.672-48.743-188.144-30.06-9.054 2.858-17.412 6.469-25.813 10.888C577 271 577 271 572 273v-2a215 215 0 0 1 8.812-6.187l2.654-1.786c2.507-1.683 5.02-3.355 7.534-5.027l3.148-2.133C625.086 235.401 662.444 224.964 699 221l4.793-.559c49.818-4.35 98.313 4.928 146.712 15.685"/><path fill="#d27859" d="M537 510c4.565.282 8.55 1.84 12.77 3.512l3.915 1.538 4.128 1.638c9.593 3.761 19.178 7.477 28.925 10.828a557 557 0 0 1 9.992 3.593c14.268 5.262 28.585 9.94 43.27 13.891l2.997.816c38.166 10.25 78.366 13.77 117.003 4.184 2.983-.74 5.98-1.436 9-2v2c-44.402 27.11-104.768 22.17-153.119 10.944-24.201-5.885-47.892-13.705-71.561-21.41a10872 10872 0 0 0-9.103-2.953 315 315 0 0 0-20.77-5.876L512 530v-1c3.438-.125 3.438-.125 7 0l1 1 5 .5c5 .5 5 .5 6 1.5 4 .188 4 .188 8 0l1-2h-2v-2l-3.062 1.188L532 530l1-5-1-3-2 2c-3-2-3-2-4-5h-4c1-4 1-4 6-7 3.188.125 3.188.125 6 1l2 3 5-2-3-1z"/><path fill="#d37c5d" d="m732 219.688 2.985.008c42.631.182 83.957 9.236 125.43 18.522a363 363 0 0 0 9.608 1.946L874 241v1c-8.7.198-17.197-.26-25.86-1.074L845 241l-1 3-3 3c-1.312 3-1.312 3-2 6 2.72 4.081 5.394 4.51 10 6l3.5.563 2.5.437v2c-7.391-1.029-14.207-2.882-21.312-5.187-12.875-4.053-25.945-7.08-39.113-10.015a1811 1811 0 0 1-9.895-2.243c-25.012-5.622-25.012-5.622-36.68-6.555v2c-2.957-.172-2.957-.172-6.812-.75-1.265-.18-2.53-.36-3.833-.547C734 238 734 238 731 236c4.813.11 9.625.241 14.438.375 1.355.03 2.71.062 4.107.094 7.095.207 13.538.8 20.455 2.531h5l-4-1-1-4h-2v-3h-2v-2q2.999-.51 6-1l1-2-5-1v-1a188 188 0 0 0-8.125-.625c-1.508-.095-3.016-.19-4.57-.29-3.936-.063-7.536.069-11.43.415-9.525.757-19.044.441-28.584.203-3.208-.079-6.415-.146-9.623-.21l-6.098-.141-5.57-.13-4-.222v-1c13.948-2.03 27.93-2.356 42-2.312"/><path fill="#cf7251" d="M640 546a99.5 99.5 0 0 1 15.125 2.813C689.493 556.9 725.621 558.53 760 550c2.983-.74 5.98-1.436 9-2v2c-35.932 21.938-87.801 23.698-128 16a139 139 0 0 1-7-3l-5-1c1-2 1-2 5-4a750 750 0 0 0-4-6l3-3 3 1v2a212 212 0 0 0 10-2l-3-1v-2z"/><path fill="#cf704e" d="M845 240c2.93-.012 2.93-.012 6.875.313 7.979.607 15.952 1.033 23.945 1.406 9.54.642 9.54.642 13.18 4.281l3.313.5 2.687.5-2 3 1 2h-6l1 4-5 2v-2l-3 2 1 2-1 2 2 1v2c-5.5.25-5.5.25-11 0v-2a397 397 0 0 0-10 0c-4.125-.375-4.125-.375-7-1v-2h-6l-5-2-5-1 1-2-2-2c1.413-4.685 2.513-7.513 6-11z"/><path fill="#cf7a5d" d="M690 223v1h-6l-1 3h-2l-1 4h-2v-3h-5v1l-8 1v1c-3.13.033-6.247-.07-9.375-.16L653 231v2h-5v2c-5.308 3-5.308 3-8 3l.563 2.875L641 244l-3 2 4.314.076q7.883.143 15.767.296 3.42.066 6.838.125 4.9.088 9.8.187l5.967.11L685 247v1c1.988.544 3.992 1.035 6 1.5s4.012.956 6 1.5v1c-5.828-.416-11.626-.961-17.437-1.562-34.045-2.756-68.854 2.862-99.208 18.828C577 271 577 271 572 273v-2c2.9-2.15 5.812-4.186 8.813-6.187.875-.59 1.75-1.18 2.653-1.786 2.507-1.683 5.02-3.355 7.534-5.027l3.148-2.133c25.426-16.82 64.52-34.12 95.852-32.867"/><path fill="#d27655" d="M886 244a270 270 0 0 1 21.625 2c9.062 1.12 18.108 1.412 27.227 1.658 7.417.206 14.766.574 22.148 1.342v1c-3.268.218-6.54.372-9.812.5-17.31.772-17.31.772-22.188 1.5v3l-3-1-3 1v-2h-3a169 169 0 0 0-2 6h-2l-2 4-5 2-1 4h-6l3 4c-7.121-.606-13.854-2.073-20.75-3.875l-6.36-1.629-3.064-.786c-3.595-.903-7.207-1.721-10.826-2.522L855 263v-1c2.835.039 5.669.158 8.5.313l4.781.238L872 263v2c5.5.25 5.5.25 11 0v-2l-3-1 1-3v-3l4 1 2-2 2 1-1-4 5-1v-3a126 126 0 0 0-7-3zm33 7 1 2Z"/><path fill="#cf714f" d="m732 219.688 5.988.017c15.195.125 30.003.941 45.012 3.295l4.465.699c4.767.762 9.527 1.554 14.285 2.363l4.589.78 4.208.756 3.776.672L817 229v2l4 1-4.96-.14q-3.208-.057-6.415-.11l-3.273-.102c-3.125-.039-3.125-.039-8.352.352l-2 4c-4.125 2.25-4.125 2.25-8 4 3 1 3 1 8 1l-4 2 3 1v2c-6.804-.467-13.458-2.055-20.125-3.437-17.901-3.635-17.901-3.635-26.875-4.563v2c-2.957-.172-2.957-.172-6.812-.75-1.265-.18-2.53-.36-3.833-.547C734 238 734 238 731 236c4.813.11 9.625.241 14.438.375 1.355.03 2.71.062 4.107.094 7.095.207 13.538.8 20.455 2.531h5l-4-1-1-4h-2v-3h-2v-2q2.999-.51 6-1l1-2-5-1v-1a188 188 0 0 0-8.125-.625c-1.508-.095-3.016-.19-4.57-.29-3.936-.063-7.536.069-11.43.415-9.525.757-19.044.441-28.584.203-3.208-.079-6.415-.146-9.623-.21l-6.098-.141-5.57-.13-4-.222v-1c13.948-2.03 27.93-2.355 42-2.312"/><path fill="#d0704f" d="M1000 444h2c16.607 18.277 22.041 38.602 21.379 62.766-.648 13.485-4.861 24.516-11.379 36.234l-1-4-2-1 4-1v-5h2c.75-5 .75-5 1-10-2.927 0-5.284.96-8 2l-1 2-1-4h2v-4h-2l-3-3c1.176-3.528 2.346-6.346 5-9v3h2c.107-4.47-.074-8.91-.223-13.379L1010 492l3 1c.813-5.437.813-5.437 1-11h-2c.688-2.937.688-2.937 2-6l3-1-2-4v-4h-2v-2h-2l-2-4-4-2c-4-6.111-4-6.111-4-10z"/><path fill="#cf6f4e" d="M654 555c3.77-.288 7.355-.373 11.125-.312l3.304.03c8.006.126 15.712.656 23.571 2.282l-1 2-4 1-2 3-2-1v2h6l2-4h3v-2c3.263-.045 6.527-.073 9.79-.026 4.278.026 8.522-.111 12.796-.298l4.375-.178q4.497-.19 8.992-.406l4.32-.166 3.92-.175L741 557v3c-2.809.8-2.809.8-6.437 1.313l-3.622.55L728 562l-1-2v2h-3l3 2c-9.38 2.207-17.673 2.515-27.25 1.375L696 565v2c-12.962 2.592-30.927 3.26-43-3l1-5 3 1 1-2h-4z"/><path fill="#cf6e4c" d="m788 253-1 3-4.125-.062L779 256c1 4 1 4 4 8l-1 4 3 1c-2 4-2 4-5 7l-3-3c-3.125-1.312-3.125-1.312-6-2l-1 2c-4.31-.169-8.223-.878-12-3 .375-5.187.375-5.187 2-10h-2l1-2.937 1-3.063-2-1c11.88-5.416 17.963-5.684 30 0"/><path fill="#d18d74" d="M384 328c2.675 2.675 3.983 5.625 5.688 9l1.949 3.813L393 344l-1 2-3-2v-2h-2c-.254 3.037-.254 3.037-.259 7.344l-.019 4.853.012 5.303-.005 5.38q-.002 5.65.01 11.3c.011 5.794 0 11.588-.012 17.382q0 5.469.007 10.938l-.012 5.303.02 4.853c0 1.421.002 2.843.004 4.307L387 422h2c1.263 3.158 2 5.586 2 9h2l2 5h2v2c4 2 4 2 8.313 3.438L409 443l-1 3c2.665.087 5.335.08 8 0l2 1-1 4 1 2-.93 2.352c-1.555 5.301-1.279 10.55-1.195 16.023l.027 3.387c.024 2.746.06 5.492.098 8.238-3.137-4.706-2.99-8.323-2.824-13.93.385-13.996.385-13.996-1.176-20.07-3.338-3.397-5.903-4.352-10.402-5.79-7.043-2.37-10.4-8.098-13.973-14.397-2.822-6.622-3.872-11.573-3.852-18.848v-5.52l.032-5.937.008-6.095c.008-5.337.028-10.673.05-16.01.02-5.449.03-10.899.04-16.348.02-10.685.055-21.37.097-32.055"/><path fill="#d5937a" d="M640 546a99.5 99.5 0 0 1 15.125 2.813C689.493 556.9 725.621 558.53 760 550c2.983-.74 5.98-1.436 9-2v2c-8.694 5.308-18.587 8.35-28.25 11.375l-3.296 1.047c-6.878 2.086-13.277 3.16-20.454 3.578 2-2 2-2 7-3l-1-2 4 1v-2h-5v-1c3.563-.25 3.563-.25 7 0l-1 3 3.688-1c4.312-1 4.312-1 9.312-1v-3c-3.009.24-6.007.61-9 1-5.768.305-11.54.46-17.312.625l-4.69.156-4.486.133-4.08.124C698 559 698 559 694 558v2h-3l-2 5c-3.125-.062-3.125-.062-6-1v-2h2l4-4c-7.838-1.718-14.986-2.133-23.008-1.875L663 556l-1-2c-3-2-3-2-7.187-2.5L651 551v-2h-8v-2z"/><path fill="#d4896e" d="m842 487 2 1a175 175 0 0 1-9 10l-2.094 2.172C821.124 511.527 805.696 520.912 791 528l-2-1 1-2h2v-3l4-.25 4-.75c.813-3.55.813-3.55 0-7-3.937-.465-3.937-.465-9 .063l-5.062.472L782 515c3.715-1.858 6.739-2.736 10.75-3.687 16.328-4.29 32.55-12.186 46.152-22.18z"/><path fill="#d17352" d="m856 460-2 4h-2v2a216 216 0 0 1-9.25 5.688l-2.788 1.639a2343 2343 0 0 1-5.501 3.222 294 294 0 0 0-5.899 3.588C820.888 484.88 812.707 488.569 804 491l-4-1 3-1 1-2h3v-2h7v-2a359 359 0 0 1 7-1l4-2c.625-3.437.625-3.437 1-7l2-3-5 .125-5-.125v-2c-2.93-.263-5.872-.408-8.812-.5-8.857-.28-8.857-.28-12.188-2.5l-3.625-.5L790 464l-1-2c10.311.88 10.311.88 13.992 1.52C821.535 466.477 838.098 460 856 460"/><path fill="#cf6d4b" d="M828 233v2l3 1c-4.862 3.646-7.083 3.167-13 3l-3 1 .125 3.563L814 247c-6.18 1.12-12.905.406-19-1v-2h-5l1-2-5-1c3-3 3-3 6.563-4.5C796 235 796 235 798 232c9.213-3.071 20.721-1.062 30 1"/><path fill="#cf6e4c" d="M621 543c7.258.285 15.023 1.952 22 4v2h5c-3.366 3.366-7.425 2.777-12 3l-4-2c0 3 0 3 3 8l-1 2c-8.437.718-17.405 1.202-25-3v-2l-3-.5-3-.5v-2c8.941-4 8.941-4 14-4l1-2h2z"/><path fill="#d58e73" d="M775 248c6.18.403 11.343 2.598 17 5l-3 1 .063 3.938L789 262l-4 2 5 1v4l-4 3-1 4 4 .5 4 .5-1 4 2 2-1 2 4.313 1.375C802 288 802 288 804 292l5-1 1 4c-5.792-.93-10.598-3.77-15.687-6.562-12.4-6.643-25.09-12.617-38.313-17.438 5.144-1.286 8.843-.031 14 1l4-1c2.354.589 4.693 1.246 7 2l-2 1h3l1-4 1-1-2-1v-5l-4-4 1-3q3.993-.554 8-1v-2c-2.625-1.035-2.625-1.035-6-2.062a188 188 0 0 1-6-1.938z"/><path fill="#d17758" d="M678 318h2l2 2 2 1v3h2v2l4.25-2.937c5.628-3.629 7.205-4.372 13.75-3.063v2h-2c-1.25 3.875-1.25 3.875-2 8l2 2v3h-3v2h3v2h3v3c-4.836-1.061-8.778-3.495-13-6-7.785-4.474-15.777-8.206-23.988-11.812A423 423 0 0 1 661 321v-1c7.515-.242 7.515-.242 10 1v2c2.938 1 2.938 1 6 1 .75-2.937.75-2.937 1-6"/><path fill="#d99880" d="m653.5 270.875 4.168-.012c13.19.013 13.19.013 19.332 1.137v1c-1.994.24-3.997.416-6 .563l-3.375.253L665 274l2 1-1 2-2-1v4h-6l-.973-2.969L656 274c-2.809-.656-2.809-.656-6.437-.5l-4.047.164c-22.138 1.647-22.138 1.647-27.516 4.336l2 5c-4 1-4 1-8 1l-5 1v-1c-6.905-1.315-11.523-.69-18 2l-2 2h-3v3h-3l-2 5c-4.125-.187-4.125-.187-8-1 19.444-19.444 56.318-24.199 82.5-24.125"/><path fill="#d38062" d="M788 677h2l3 5c3.688.813 3.688.813 7 1a89 89 0 0 1-9.55 6.258l-3.288 1.885-3.475 1.982c-8.8 5.035-17.533 10.142-26.125 15.531L755 710l-2-1 2-5-2-3 5-2 1-5c3.063-2.062 3.063-2.062 6-3v4h4l2-2 4 1 4-1v-4l2-2 2-3 3-2v2h2v-4l-2-1z"/><path fill="#cf704e" d="M481 258h3c1 3 1 3 0 7-.774 7.586 1.493 14.538 5.918 20.648 8.58 9.872 18.808 16.613 29.934 23.348L523 311v1h-7l-4 1-2-4h-3l-1-2-4 1v-2h-6l-1-2 1-2h-3l.5-4.312.5-4.688c-3-3-3-3-6-4l-3-3h-3c-3.017-6.034-.703-15.372-.121-21.96C482 261 482 261 481 258"/><path fill="#da9d87" d="M963 284h2v2l3 1c1.26 8.832 1.585 17.203 0 26-3.888 2.755-6.13 2.37-10.812 1.883L953 314l-3.75-.633c-4.833-.955-8.832-2.158-13.25-4.367v-2c-2.661-.374-5.33-.7-8-1l-3.5-1.062c-4.414-1.183-9.276-2.05-13.5.062v-4a98 98 0 0 0-7 0l-3-2-4.187.063L893 299v-3c-2.5-2.687-2.5-2.687-5-5a137 137 0 0 1 17.387 4.797c9.387 3.18 18.856 5.883 28.426 8.453l4.771 1.313C958.714 311 958.714 311 967 311c.213-9.401-.577-18.197-4-27"/><path fill="#cf7251" d="M929 394c5.938 1.092 10.913 4.824 15.938 8l2.813 1.762C985.521 427.52 985.521 427.52 1000 442l-1 2-2.625-2.75c-3.572-3.44-5.718-4.015-10.375-5.25l1-3-5-2v-2h-3v-2h-4v2l-5-1-1 3c-2-3-2-3-3-7l-1-3 1-2h-3l-1-4c-2.875-1.125-2.875-1.125-6-2l-3-2v-2c-2.321-.41-4.658-.731-7-1l-5-1v-3h-2v-2h-5v-2l-3-1v-2h-2z"/><path fill="#d48e76" d="m623 241 2 1c-5 3-5 3-7 3v3l-3.875.438L610 249l-2 4-2 1 4 1 1-2c5.14-1.217 9.71-2 15-2l1 2c-2.8.883-5.646 1.624-8.5 2.313-13.503 3.422-25.665 7.459-38.04 13.917C577 271 577 271 572 273v-2c2.9-2.15 5.812-4.186 8.813-6.187.875-.59 1.75-1.18 2.653-1.786 2.507-1.683 5.02-3.355 7.534-5.027l3.148-2.133C603.18 249.893 612.955 245.018 623 241"/><path fill="#d18163" d="m647 140 4 2c-3.755 3.9-8.872 6.524-13.437 9.375l-5.09 3.191-2.695 1.688c-4.772 3-9.525 6.03-14.278 9.059-5.28 3.362-5.28 3.362-7.84 4.975a217 217 0 0 0-5.726 3.827c-2.57 1.743-5.244 3.332-7.934 4.885l-1-4h2v-2h3l1-2-3-1c1.728-3.455 4.49-4.82 8-6.062l3-.938 4-2v-2l4 1v1h2v-2c3-2 3-2 8-2v-2c6.938-6 6.938-6 12-6v-4c3.5-.125 3.5-.125 7 0v-2h3z"/><path fill="#d7937b" d="M1000 444h2c18.472 20.33 22.233 42.477 21 69h-1c-.143-11.883-.143-11.883-.078-17.227-.05-3.397-.117-6.47-.922-9.773-3.555-1.727-3.555-1.727-7-2v-2h-2c.688-2.937.688-2.937 2-6l3-1-2-4v-4h-2v-2h-2l-2-4-4-2c-4-6.111-4-6.111-4-10z"/><path fill="#d28265" d="M1013 331c6.308 3.227 8.25 7.635 11 14 .957 4.785 1.133 8.871 1.145 13.738l.02 5.398.003 5.821.01 5.965q.009 6.24.007 12.48c0 5.348.014 10.696.031 16.045.014 5.086.013 10.173.014 15.26l.022 5.852-.01 5.35.005 4.746L1025 439h-2c-1.543-2.52-1.543-2.52-3.187-5.812l-1.668-3.27C1017 427 1017 427 1018 424l2 4 3 3q.074-16.635.11-33.27.016-5.665.04-11.33c.025-5.413.036-10.826.045-16.24l.032-5.154v-4.732l.014-4.193L1023 353l-2-1-1-3-3-1v-2h-3a199 199 0 0 1 0-10z"/><path fill="#d37e5e" d="M653 553c3.125.313 3.125.313 6 1l-1 2-4-1v3h4l-1 3-1-2h-2l1 5c3.125.688 3.125.688 7 1l2.871 1.004c6.02 1.452 11.897 1.285 18.067 1.246l3.806.023c3.087-.006 6.173-.128 9.256-.273v-2c3.502-.009 7.004.12 10.5.313l5.906.3L717 566v1c-24.094 5.11-51.87 3.257-76-1v-1a150 150 0 0 1 6-1l-2-2-1-4c2-1 2-1 6 0v2h2v-6z"/><path fill="#d48265" d="m390 295 3 2v3h3l3 6h3v3l5 2 1 5 3-2 3 1a142 142 0 0 1-3 9v2h4l1 2h2c1 3 1 3 1 6-8.232-4.116-13.496-10.54-18.75-17.937l-3.297-4.59C390 300.942 390 300.942 390 295"/><path fill="#da9980" d="M783 527c3 .375 3 .375 6 1-10.385 6.923-23.921 9.602-36 12l-5.309 1.098c-8.62 1.405-17.294 1.153-26.004 1.09l-5.15-.002c-14.446-.052-14.446-.052-20.537-1.186v-1c3.076-.078 6.154-.083 9.23-.062l5.811.023 9.21.06q4.428.026 8.854.042l5.38.035C739 540 739 540 744 539v-1c4.935-1.03 9.887-1.947 14.844-2.867L763 534v-3l3-3h4l1 2 5-1 3.813.063L783 529z"/><path fill="#d5896d" d="m873 441 1 2h-3c4.75 4.875 4.75 4.875 7 6v2h5l3 3c5.188.813 5.188.813 10 1v-2h2l1 4 1 3-1 3h4v3h2l1-4 3 1 1 3 2-1v8a131 131 0 0 0 4 5c-4-2-4-2-7.582-5.191-4.792-4.132-9.744-7.42-15.106-10.747l-2.92-1.84a591 591 0 0 0-19.322-11.671L869 447c0-3 0-3 1-5z"/><path fill="#d2856a" d="m627 711 1 2h-2c1.105 4.864 2.31 6.31 6 10v4c4.309 2.052 7.074 2 12 2h4l2 2-1 4 3 2c-12.723-1.197-27.082-8.847-36-18 1.351-4.053 3.38-4.87 7-7z"/><path fill="#d27e60" d="M568 500c3.124-.102 6.25-.13 9.375-.125l5.273-.008C587 500 587 500 589 501v2l3.5-.5 3.5-.5v2l4 1v3l4 1 1 4 4 1v2c-4.61-.374-8.488-1.862-12.719-3.652l-3.824-1.604-3.957-1.682a5885 5885 0 0 0-7.781-3.277l-3.471-1.472a102 102 0 0 0-6.668-2.425L568 501z"/><path fill="#cf704f" d="M823 291v2h2l1-2h2c1 5 1 5 0 7q2.987 1.038 6 2l1 2-2 1 3 1-1 4c-5.628-1.014-10.792-4.322-15.812-6.937l-5.145-2.653C810 296 810 296 809 293c4.678-1.852 8.993-2.409 14-2"/><path fill="#d5876b" d="M970 380c3.5.313 3.5.313 7 1v2h2v2l3-3c3.063-.125 3.063-.125 6 1 1.125 3.438 1.125 3.438 2 7l4 2 2-1v3l3 1h-4c3.545 5.909 6.802 9.901 13 13l1 4 4 1v4l3 1c.688 3.563.688 3.563 1 7-4-4-4-4-6.312-7.812C1000.7 401.905 985.002 390.916 970 381z"/><path fill="#d89a81" d="m732.5 219.75 5.723-.023c12.326.017 24.565.48 36.777 2.273v1c-4.964.062-9.919.02-14.883-.04-5.527-.039-10.954.072-16.46.563-9.45.744-18.902.417-28.366.18-3.208-.079-6.415-.146-9.623-.21l-6.098-.141-5.57-.13-4-.222v-1c14.12-2.074 28.256-2.308 42.5-2.25"/><path fill="#d19077" d="M696 513c4.062.532 7.99 1.197 12 2 24.416 4.664 48.548 3.731 73 0-1 2-1 2-4 3.063-4.326 1.013-8.585 1.476-13 1.937l-2 1c-3.249.1-6.5.13-9.75.133l-5.969.004-3.12-.007q-4.722-.005-9.442.007l-5.969-.004-5.516-.004C718 521 718 521 716 520h-6l-2-2q-3.489-.579-7-1l-4-1z"/><path fill="#d89881" d="m718 251 2 1-2 1zm8 0h2l1 4h3l1 2 4.938 1.875C743 261 743 261 745 265c2.666.04 5.334.043 8 0v3l3 1c-4.328 1.443-6.308-.222-10.437-2.062-14.61-6.19-29.553-10.174-45.11-13.176L697 253v-1c3.502.066 7.002.204 10.5.375l5.906.273L718 253v1c3.438.25 3.438.25 7 0z"/><path fill="#d58c71" d="M813 509v2h-2l1 5c-2.973 2.352-2.973 2.352-7.062 4.625l-4.036 2.29L797 525l-3.371 1.836L791 528l-2-1 1-2h2v-3l4-.25 4-.75c.813-3.55.813-3.55 0-7-3.937-.465-3.937-.465-9 .063l-5.062.472L782 515c9.774-4.887 20.147-6.804 31-6"/><path fill="#d89981" d="m386 423 4 1c.407 2.322.744 4.657 1 7h2l2 5h2v2c4 2 4 2 8.313 3.438L409 443l-1 3c2.665.087 5.335.08 8 0l2 1-1 4 1 2-.93 2.352c-1.555 5.301-1.279 10.55-1.195 16.023l.027 3.387c.024 2.746.06 5.492.098 8.238-3.137-4.706-2.99-8.323-2.824-13.93.385-13.996.385-13.996-1.176-20.07-3.338-3.397-5.903-4.352-10.402-5.79-7.137-2.401-10.501-8.263-14.098-14.647C386 425 386 425 386 423"/><path fill="#d28669" d="M521 219h4l1 3c-3.27 2.418-3.27 2.418-7.812 5.188-8.454 5.29-15.965 10.788-23.25 17.625L492 247l-1-5 4-2 .938-3.062c.35-.97.7-1.94 1.062-2.938 5-1 5-1 7-1v-3l5-2 1-4c3.438-1.687 3.438-1.687 7-3l2-1 2 1z"/><path fill="#d28c74" d="m572 298 2 3c3.532.293 3.532.293 8.07.188l4.903-.07 5.152-.118q5.034-.115 10.07-.187l4.532-.106L610 301v3h6l2 2c-4.771-.47-9.537-.944-14.297-1.52-14.876-1.52-29.03 0-43.703 2.52a815 815 0 0 1-7 1c4.786-5.983 10.642-12.786 19-10"/><path fill="#d69780" d="M769 548v2c-8.694 5.308-18.587 8.35-28.25 11.375l-3.296 1.047c-6.878 2.086-13.277 3.16-20.454 3.578 2-2 2-2 7-3l-1-2 4 1v-2h-5v-1c3.563-.25 3.563-.25 7 0l-1 3 3.688-1c4.312-1 4.312-1 9.312-1v-3q-3.482-.622-7-1v-1a574 574 0 0 1 12.563-2.437C753.653 551.259 761.919 548 769 548"/><path fill="#d5947c" d="m716 727 4 1c-3.708 2.78-6.68 4.284-10.937 6l-3.653 1.5c-10.561 3.592-20.273 4.949-31.41 4.75l-3.598-.016c-4.958-.044-9.529-.26-14.402-1.234v-2l-2-1 3.996.219c8.915.46 17.828.88 26.754 1.031l4.172.078L692 737l1-3 9 1 1-3h2v-2l11-1z"/><path fill="#d38e74" d="m698 109 1 3c-2.872 2.16-5.7 4.056-8.75 5.938l-2.723 1.72q-2.83 1.785-5.67 3.555a775 775 0 0 0-8.244 5.24C660.71 136.716 660.71 136.716 655 139v-4h3l2-4c4-2 4-2 9-2l1-4 2 1 1-3h2v-2c5-2 5-2 8-2v-2h4v-2h4v-3c4-3 4-3 7-3"/><path fill="#d58e73" d="M755 372c4.811.363 6.494.494 10 4 3.188 1.188 3.188 1.188 6 2l-1-4 4 1-.687 2.875L773 381c3.375 1.75 3.375 1.75 7 3l1 2 4 1v-2l3 1v4l4 1 2 2 2-1c.938 3.563.938 3.563 1 7-4.722-1.889-8.328-4.03-12.562-6.812l-4.5-2.95L775 386q-2.78-1.794-5.562-3.582l-2.776-1.788q-2.704-1.741-5.412-3.477A362 362 0 0 1 755 373z"/><path fill="#d07a5a" d="m618 278 2 5c-4 1-4 1-8 1l-5 1v-1c-6.905-1.315-11.523-.69-18 2l-2 2h-3v3h-3l-2 5c-4.125-.187-4.125-.187-8-1 6.446-6.446 14.562-9.875 23-13l2.793-1.098c7.481-2.879 13.303-4.483 21.207-2.902"/><path fill="#d89880" d="M923 266h1l-.035 3.96L925 274c4.254.852 4.254.852 9.563.625l5.316-.148L944 274v-2l4 1h3l1 4q3.998.516 8 1l3 4-1 2c-.725-.594-1.45-1.189-2.198-1.8-8.35-6.554-25.07-4.868-35.363-5.41-7.947-.458-15.625-1.238-23.439-2.79v-1c3.454-.076 6.898.005 10.352.063 3.379-.058 6.38-.2 9.648-1.063 1.313-3.062 1.313-3.062 2-6"/><path fill="#dca591" d="m856 460-2 4h-2v2l-4 1 1-4-4 2v2h-3v-2h-2v2c-2.876.205-5.762.262-8.645.266l-5.427.007-5.74-.023-5.706.023-5.439-.007-5.03-.007C800 467 800 467 797 465l-3.625-.5L790 464l-1-2c10.311.88 10.311.88 13.992 1.52C821.535 466.477 838.098 460 856 460"/><path fill="#d58e74" d="M916 478c4.949 1.65 6.602 2.205 9 7l2 2.438c2.51 4.469 2.977 8.496 3.605 13.539C931 504 931 504 932 508l-3 1-2 3h-2v2h-2l-1 5-1 2-4 1a179 179 0 0 1 4.563-8.5c3.479-6.424 3.864-11.243 3.437-18.5-2.133-6.004-4.822-10.242-9-15z"/><path fill="#e2ab97" d="M965 252c9.49 1.898 16.986 8.619 23 16 7.534 11.929 8.313 23.824 8.188 37.625l-.002 4.2c-.033 7.45-.033 7.45-.186 10.175h-1c-.244-5.567-.397-11.129-.518-16.7-.446-15.585-.446-15.585-5.482-22.3v-6l-3-4v-2l-5-2a126 126 0 0 1-2-6h-3v-2h-3l-1 3c-3-5.75-3-5.75-3-8l-3 1z"/><path fill="#d6977f" d="M535 404c3.438.25 3.438.25 7 1l1 3 5-1 3 3 3.688 1.563L558 413v2h4v2h2v2c2.324.396 4.66.712 7 1 4.938.75 4.938.75 9 2v5a268 268 0 0 0 10 3l-1 3c-6.17-1.15-11.68-4.935-17.125-7.937l-3.187-1.742A3950 3950 0 0 1 559 418l-5.883-3.234q-5.1-2.806-10.195-5.621A243 243 0 0 0 535 405z"/><path fill="#d7947b" d="M457 400c4.26.918 7.694 2.857 11.375 5.125 4.723 2.82 9.507 5.374 14.438 7.813 12.51 6.207 12.51 6.207 16.875 8.437l3.886 1.96L506 425l-3 2-2-1v-2l-3 1v-2h-2v-2l-2.875.688L490 422l-2-5a256 256 0 0 0-8 0l-2-4a236 236 0 0 0-7-1l-1-3-5-2v-2l-4 1.313-4 .687c-.875-3.5-.875-3.5 0-7"/><path fill="#d69379" d="M480 492c8.898 1.398 17.24 3.763 25.813 6.5l3.888 1.223A933 933 0 0 1 526 505l-4 2-1-2h-6c-3.875-.875-3.875-.875-7-2v-2c-3.437-.312-3.437-.312-7 0l-1 3-4 1-2-3h-2v-2l-2-1 1-2h-3v-2h-5z"/><path fill="#d58d74" d="M419 334c4.5.25 4.5.25 9 1v3l5 2 1 5 5-1 1-2v2l2 1-1 4 3.438-.562L448 348v5a161 161 0 0 0 7 3l-1 3c-12.78-5.112-24.667-15.014-35-24z"/><path fill="#d58d73" d="m673 48 2 1c-3 3-3 3-5 4l-2 5 2 1-4 2-3-2h-4l-1 3a169 169 0 0 1-6 2l-1 2h-3l-1 4c-5 0-5 0-8-2 3.865-2.625 7.706-4.99 11.75-7.312l3.426-2.014c3.263-1.912 6.542-3.795 9.824-5.674l2.768-1.63C668.81 50.185 670.9 49.082 673 48"/><path fill="#cc7354" d="m581 291 3 1h-2l-1 5c5.889 1.556 5.889 1.556 9 0l1 2c2.507.443 5.032.781 7.563 1.063 2.483.28 4.963.583 7.437.937v1c-5.66.321-11.332.279-17 .313l-4.914.087-4.649.026-4.316.044L572 302v-4c-4 .25-4 .25-8 1 3.392-3.392 5.376-4.027 10-5l4 1z"/><path fill="#d57e5e" d="M775 248c6.18.403 11.343 2.598 17 5l-3 1 .063 3.938L789 262l-4 2 5 1v4c-2.294 1.72-4.614 3.41-7 5 0-4 0-4 1-5l-2-1v-5l-4-4 1-3q3.993-.554 8-1v-2c-2.625-1.035-2.625-1.035-6-2.062a188 188 0 0 1-6-1.938z"/><path fill="#d6947b" d="M929 394c5.938 1.092 10.914 4.824 15.938 8l2.785 1.747c2.765 1.741 5.522 3.495 8.277 5.253 1.578 1.005 3.156 2.01 4.781 3.047 7.826 5.09 7.826 5.09 10.219 6.953l-2 1c-3.625-1.312-3.625-1.312-7-3v-2a168 168 0 0 0-6-2l-3-2v-2c-2.321-.41-4.658-.731-7-1l-5-1v-3h-2v-2h-5v-2l-3-1v-2h-2z"/><path fill="#d58d73" d="M961 589c-9.763 8.058-20.8 15.126-32 21-1-3-1-3 0-7h4v-2h4v-2c5-2 5-2 8-2v-2l5-1 2-4c2.957-1.478 5.742-1.06 9-1"/><path fill="#d4896d" d="M792 254c6.421 1.284 12.219 3.64 18.313 6l3.689 1.406A492 492 0 0 1 823 265v1c-7.278 1.296-10.883 1.117-17-3-3.375-1.5-3.375-1.5-6-2l-1 4c-2.637-1.758-4.763-3.763-7-6z"/><path fill="#d58c71" d="M526 314c7.577 3.03 14.154 7.592 21 12l3.34 2.145c2.286 1.523 4.488 3.173 6.66 4.855l-2 2v-2l-5 1v-2l-4 2c-3.25-.75-3.25-.75-6-2v-2l-2-1v-1l-1-3 1-1-2-1v-2h-3v-2l-5-1z"/><path fill="#d48b70" d="M858 356c4.577 1.83 8.724 3.92 13.063 6.25 5.342 2.868 10.7 5.607 16.187 8.188L892 373c-3 2-3 2-8 1l-1-1-3.437 1.063L876 375l-2-2 1-4-1-2-3.062-.5L868 366v-2h-2v-3h-4v-2l-3 1z"/><path fill="#e1b19d" d="M788 491c2.625-.195 2.625-.195 6-.125l3.375.055L800 491c-4.205 2.803-8.29 3.154-13.25 4.063l-5.578 1.035L776 497l-3.375.605c-16.301 1.775-33.65 1.15-49.625-2.605v-1c6.005.383 11.96.881 17.938 1.563 10.827.935 22.299 1.107 33.062-.563l1-2c2.941-.125 2.941-.125 6.563 0 3.628.125 3.628.125 6.437 0z"/><path fill="#d38265" d="m741 350 3 1-2 4c2.187 5.061 4.086 9.086 8 13l-2 1a183 183 0 0 1-9.687-5.75l-2.745-1.672c-2.258-1.422-4.423-2.99-6.568-4.578l1-3 5 1 1-2z"/><path fill="#d58a6f" d="M678 318h2l2 2 2 1v3h2v5l1 3h3v2c-4.979-1.25-9.388-3.608-13.937-5.937-3.991-2.04-7.938-4.01-12.067-5.754L661 321v-1c7.515-.242 7.515-.242 10 1v2c2.938 1 2.938 1 6 1 .75-2.937.75-2.937 1-6"/><path fill="#d69278" d="M641 494c3.953.79 6.969 1.676 10.64 3.18l3.247 1.316 3.363 1.379c7.19 2.939 14.342 5.765 21.75 8.125-4 2-4 2-8 3a165 165 0 0 1-9-4l-5-2v-2h-2v-2h-4v-2h-3.812C644 499 644 499 641 497z"/><path fill="#dba08a" d="M840 468c3.438-.187 3.438-.187 7 0-10.775 10.775-28.47 18.46-43 23l-4-1 3-1 1-2h3v-2h7v-2a359 359 0 0 1 7-1l4-2v-3h4v-2c4.521-3.66 5.88-4 12-4z"/><path fill="#d68e74" d="M538 480c.688 3.5.688 3.5 1 7l5 1c5 2 5 2 7 5-11.487-2.743-25.132-6.422-35-13 17.041-1.556 17.041-1.556 22 0"/><path fill="#d8a18c" d="m662.148 246.867 4.043-.004 4.184.012 4.254-.012 4.02.004 3.692.004L685 247v1c1.988.544 3.992 1.035 6 1.5s4.012.956 6 1.5v1c-5.828-.416-11.626-.961-17.438-1.563-14.25-1.153-28.386-.623-42.558 1.125C633 252 633 252 627 252v-1c4.686-1.926 8.966-2.338 14-2.563 7.509-.348 7.509-.348 10.795-.944 3.497-.538 6.816-.623 10.353-.626"/><path fill="#d7947b" d="M636 307v2h6l4 2c4 0 4 0 6-1l2 2-1 1 4 2v2h3l1 3c-6.001-1.688-11.757-3.66-17.562-5.937-7.313-2.803-14.63-4.67-22.282-6.301L618 307v-1c6.635-1.456 11.654-1.538 18 1"/><path fill="#d69078" d="M772 37c7.845 3.138 15.102 6.84 21 13-2.49 4.981-5.182 6.365-10 9l-2-1 1-3h2l-2-4-1-4-3-4v-2h-4v-2l-3-1z"/><path fill="#e3b19b" d="M731 236c4.813.11 9.625.241 14.438.375 1.355.03 2.71.062 4.107.094 7.088.207 13.556.747 20.455 2.531 8.716 1.462 17.166 2.242 26 2l-4 2 3 1v2c-6.804-.467-13.458-2.055-20.125-3.437-17.901-3.635-17.901-3.635-26.875-4.563v2c-2.957-.172-2.957-.172-6.812-.75-1.265-.18-2.53-.36-3.833-.547C734 238 734 238 731 236"/><path fill="#d9aa97" d="m598 253 2 1-1 3c4.438.188 4.438.188 9 0-3.11 2.074-5.773 3.013-9.312 4.188-6.504 2.266-12.527 5.08-18.63 8.261C577 271 577 271 572 273v-2a239 239 0 0 1 9.063-6.312c9.74-6.541 9.74-6.541 13.933-9.668z"/><path fill="#d38469" d="M765 64v3l3 1a2813 2813 0 0 1-8.187 5.375l-4.606 3.023C751 79 751 79 746 81v-4h5l-.75-2.625L750 71c8.981-7 8.981-7 15-7"/><path fill="#d89880" d="M481 258h3c1 3 1 3 0 7-.778 7.629 1.492 14.63 6.023 20.719 3.498 3.963 7.134 7.415 11.164 10.844L504 299l-2 1-3-1v-2h-4l-2-5-5-3-3-3h-3c-3.017-6.034-.703-15.372-.121-21.96C482 261 482 261 481 258"/><path fill="#db9f88" d="M640 546a99.5 99.5 0 0 1 15.125 2.813c9.918 2.424 19.949 3.642 30.069 4.88l3.841.475 3.48.415L695 555v1c-5.306.264-10.625.185-15.937.188l-4.6.037-4.365.005-4.047.013L663 556l-1-2c-3-2-3-2-7.187-2.5L651 551v-2h-8v-2z"/><path fill="#d58f76" d="M888 291c6.214 1.285 12.125 2.942 18.125 5 4.298 1.47 8.535 2.911 12.93 4.063L922 301v2q-4.492.576-9 1l-2 1v-4a98 98 0 0 0-7 0l-3-2-4.187.063L893 299v-3c-2.5-2.687-2.5-2.687-5-5"/><path fill="#d4896e" d="m907 532-1 4-3 1a1185 1185 0 0 0-3 11l-2-1v-3c-5 1-5 1-9 5-4 0-4 0-8-1l4.234-2.738 5.516-3.574 2.79-1.803C905.696 532 905.696 532 907 532"/><path fill="#d06d4c" d="m629 245 1 3h-2v2c-6.156 1.952-10.495 3-17 3l-1 3c-3.062-.312-3.062-.312-6-1l2.438-1.875C609 251 609 251 610 249l4.063-.437L618 248v-3c4.206-.97 6.778-1.055 11 0"/><path fill="#d4896f" d="M691 485q5-.125 10 0l1 1c3.563.688 3.563.688 7 1v-2l4 1-1 2c4.856 1.377 8.052 2.237 13 1 0 3 0 3-1 5-7.807-.283-14.746-2.163-22.125-4.5l-3.187-.973A297 297 0 0 1 691 486z"/><path fill="#d49279" d="m647 140 4 2c-3.93 4.132-9.446 6.878-14.25 9.875-4.977 3.108-9.912 6.229-14.734 9.57L618 164l-2-1c1-4 1-4 4-6h5v-2c6.938-6 6.938-6 12-6v-4c3.5-.125 3.5-.125 7 0v-2h3z"/><path fill="#d69379" d="m445 479 3.684 2.793c5.759 3.84 11.672 5.13 18.378 6.52 3.988.867 7.964 1.762 11.938 2.687v1a287 287 0 0 1-10.375-.25l-5.836-.203C449.27 490.27 449.27 490.27 445 486c-.125-3.625-.125-3.625 0-7"/><path fill="#dfb6a6" d="M1024 350h1c.108 2.722.139 5.446.145 8.17l.02 5.4.003 5.899.01 5.986q.009 6.285.007 12.57c0 5.388.014 10.775.031 16.163.014 5.114.013 10.229.014 15.343l.022 5.9-.01 5.4.005 4.79L1025 439h-2c-1.543-2.52-1.543-2.52-3.187-5.812l-1.668-3.27C1017 427 1017 427 1018 424l2 4 3 3 .031-3.075q.163-15.765.341-31.532.066-5.893.125-11.786.088-8.445.187-16.888l.05-5.37.06-4.913.048-4.36z"/><path fill="#da9c85" d="M690 223v1h-6l-1 3h-2l-1 4h-2v-3h-5v1l-8 1v1c-3.13.033-6.247-.07-9.375-.16L653 231v2q-5.489.625-11 1c3.07-2.046 5.27-2.741 8.813-3.656l3.511-.91L658 228.5l3.582-.934c19.968-5.13 19.968-5.13 28.418-4.566"/><path fill="#d38367" d="M853 278c7.123 2.065 14.053 4.417 21 7-4.43 2.215-6.97 2.33-11.875 2.375l-4.18.086c-4.399-.514-6.614-1.58-9.945-4.461l1-2h5z"/><path fill="#d58c71" d="M417 480h2l-.125 4 .125 4h4l.5 3.063.5 2.937 4-1 1 4 2 2c3 5 3 5 4 9-5.84-2.92-9.418-6.192-13.187-11.5l-2.043-2.844c-2.486-3.73-3.824-5.852-3.52-10.406z"/><path fill="#d28467" d="M680 412c4.616 1.846 8.646 3.946 12.938 6.438l4.152 2.37L700 423l-2 3-5 1v-2c-5-2-5-2-8-1l-3-3 1-3h-2c-.625-3-.625-3-1-6"/><path fill="#d4876b" d="M657 398c4.57 1.828 8.417 3.91 12.625 6.438l3.977 2.37C677 409 677 409 680 412q-3.518-.378-7-1v-2l-3 1-4-2-1 2c-3.437-.562-3.437-.562-7-2-2-5-2-5-1-10"/><path fill="#d99c86" d="M462 462c6.707.555 13.265 1.695 19.875 2.938l5.555 1.027C492 467 492 467 495 469v2h5l1 2 4 2c-4.473 1.49-7.031-.35-11.375-2.062-9.135-3.488-18.266-6.215-27.7-8.774L462 463z"/><path fill="#d48c72" d="M624 377c5.973 2.39 11.07 5.585 16.5 9l3.188 1.945c2.508 1.578 4.923 3.302 7.312 5.055l-3 2v-2h-3v-2a209 209 0 0 0-9-2l-3-1-3 4-.875-3.437L628 385l-2-1-1-4z"/><path fill="#d58b70" d="M797 399c5.063-.312 5.063-.312 10 0l-1 4 3.813.438L814 404l2 5 4.188.438L824 410c.313 3.188.313 3.188-1 6-4.722-1.889-8.249-4.032-12.437-6.875l-3.872-2.617L803 404l-3.473-2.258L797 400z"/><path fill="#d68e74" d="m1019 512 3 1c0 10.832-4.303 20.927-10 30l-1-4-2-1 4-1v-5h2c.565-4.35 1-8.611 1-13l2-3-1-3z"/><path fill="#d69279" d="M548 448c6.883 2.753 13.397 6.139 20 9.5l4.2 2.09 3.925 2.004 3.633 1.834L582 465l-3 2v-2l-3.062.063c-4.414-.07-7.059-1.01-10.938-3.063l-2-3-5-1-2-5h-4v-2l-3 1z"/><path fill="#dfac99" d="M390 239h1c.324 4.458.159 7.599-1.496 11.781-2.061 7.153-1.901 13.88-1.817 21.281l-.01 4.358c.042 7.81.042 7.81.323 10.58h2c.083 2.665.083 5.335 0 8-7.301-10.952-6.06-28.92-4.187-41.437 1.075-5.038 2.344-9.755 4.187-14.563"/><path fill="#d3886d" d="M700 424c5.547 1.145 10.359 4.26 15.25 7l4.828 2.688C724 436 724 436 726 438l-3 1v-2h-4v-2h-2v2c-3-.25-3-.25-6-1v-2l-5 2 1-5-5-2v-2h-2z"/><path fill="#daa18b" d="M548 514c5.252 1.05 9.76 2.744 14.75 4.688a608 608 0 0 0 25.074 9.085C591 529 591 529 593 531c-3.937.188-3.937.188-8 0l-1-3-2.812.125c-5.14-.153-8.66-1.827-13.317-3.879C562.705 522.004 558.637 521 553 521c-2-3-2-3-3-6z"/><path fill="#d7977f" d="M896 341c3.47.458 6.674.891 10 2v3c4.06.744 7.874 1 12 1h2v5c3 .688 3 .688 6 1v2l5 1v3c-7.162-1.7-13.773-5.722-20.312-9l-3.94-1.945-3.736-1.868-3.423-1.707C897 343 897 343 896 341"/><path fill="#d89e88" d="M855 262c2.835.039 5.669.158 8.5.313l4.781.238L872 263v2c2.352.095 4.71.074 7.063 0 2.31-.073 4.627-.097 6.937 0l-1 2q4.497 1.014 9 2v2q3.491.562 7 1v1c-7.125-.488-13.865-2.076-20.75-3.875l-6.36-1.629-3.064-.786c-3.595-.903-7.207-1.721-10.826-2.522L855 263z"/><path fill="#d89278" d="M890 459h4v2l4-1 1 2 4 1v3h2l1-4 3 1 1 3 2-1v8a131 131 0 0 0 4 5c-4-2-4-2-7.375-5.062-4.848-4.378-10.306-7.685-15.844-11.118L890 460z"/><path fill="#d99d86" d="M612 517c4.96.365 8.52.76 13 3h10v2l5.5 1.5 5.5 1.5v2c3 .75 3 .75 6 1v-2l2 1-1 2 4 3c-8.475-1.657-16.556-4.322-24.75-7l-4.23-1.367c-5.41-1.756-10.738-3.52-16.02-5.633z"/><path fill="#d5967f" d="M440 511c6.712-.671 12.235 1.084 18.535 3.125C462 515 462 515 465.934 515H469v2l3.438-.062L476 517l1 3 3 1c-7.145-.671-14.107-1.91-21.125-3.375l-3.168-.633c-5.53-1.147-10.654-2.43-15.707-4.992z"/><path fill="#dcab97" d="m842 487 2 1c-5.809 6.97-12.038 13.182-19 19l-2-1 1-4 3 1v-4l-4 1c3.3-3.3 6.603-5.264 10.625-7.625 7.292-4.292 7.292-4.292 8.375-5.375"/><path fill="#d58d72" d="M615 482c5.713 1.272 11.074 4.216 16.375 6.625l5.46 2.477L641 493l-4 2-1-2-3.375 1.063L629 495l-3-3h-2v-2l-3 1-1-3-3-1v-2h-2z"/><path fill="#e1ac98" d="M696 565c3.502-.009 7.004.12 10.5.313l5.906.3L717 566v1c-11.285 2.393-22.902 2.187-34.375 2.188-1.461 0-2.922 0-4.427.002-7.79-.04-15.462-.235-23.198-1.19v-1c2.989-.065 5.98-.059 8.969-.027l5.605.037q5.925.052 11.852.117l5.605.033 5.205.051L696 567z"/><path fill="#d7987f" d="M653 468c4.996.384 6.87.902 11 4h3c4.188 1.375 4.188 1.375 8 3v2q4.998 1.012 10 2l1 2 3 1 1 3c-12.94-3.34-25.601-9.034-37-16z"/><path fill="#d58f74" d="M490 380c2.007.287 4.006.63 6 1l3.375.375L502 382v3c3.542-.267 6.63-.877 10-2-1 4-1 4-2 5l2 1v2l5 1 1 3c-4.434-1.773-8.61-3.738-12.875-5.875l-4.117-2.055c-3.735-1.93-7.408-3.899-11.008-6.07z"/><path fill="#d58769" d="m784 274 2 2 3.688.375L793 277l-1 4 2 2-1 2 4.313 1.375C802 288 802 288 804 292l5-1 1 4c-6.614-.902-12.415-4.553-18-8v-4h-4v-3c-2.875-1.125-2.875-1.125-6-2l-2-1v-2c2-1 2-1 4-1"/><path fill="#e1ad99" d="M696 513c4.062.532 7.99 1.197 12 2 13.13 2.508 25.973 3.216 39.295 3.605 2.903.097 5.804.241 8.705.395v1c-6.512.226-13.028.186-19.543.185-3.31.002-6.62.02-9.93.04q-3.135.005-6.27.005l-5.807.013C710 520 710 520 708 518q-3.489-.579-7-1l-4-1z"/><path fill="#d49178" d="M593 179c-4.848 4.185-10.31 7.41-15.75 10.75l-2.941 1.824C567.133 196 567.133 196 566 196v-5c3-2 3-2 7-2v-2h4v-2h4v-3c4.623-3.467 6.415-3.28 12-3"/><path fill="#d5947c" d="M552 118v2h-3v3l-7 1v3h-3v2c-5.94 5.4-11.29 6.047-19 7 4.045-4.045 8.873-6.335 13.875-9 16.76-9 16.76-9 18.125-9"/><path fill="#d4876b" d="m752 708 1 3c-3.55 2.516-3.55 2.516-8.312 5.25l-4.739 2.766L736 721l-2-1 1-6-2-1 3-1v-2c2.082.694 4.144 1.449 6.188 2.25L745 713v-3c5-2 5-2 7-2"/><path fill="#d99981" d="M817 230c8.243.5 16.099 2.178 24.125 4l3.766.828c3.046.683 6.079 1.422 9.109 2.172v1c-2.117.295-4.245.51-6.375.688l-3.586.324C841 239 841 239 839 237c-6 0-6 0-9 1l-1 4-1-4 2-2-2-1v-2h-6l-5-2z"/><path fill="#d68d72" d="M829 662h2v2l3 1a2097 2097 0 0 1-9.875 5.563l-2.84 1.615c-2.395 1.335-4.837 2.586-7.285 3.822l-2-1 1-4h4l-1-5 3 2 2-5c4.125.875 4.125.875 8 2z"/><path fill="#d6937b" d="m882 633 5 1c-3.618 3.618-7.38 5.552-11.875 8-4.76 2.6-9.473 5.209-14.125 8l-2-1 1-2h2v-2l3-1v-2c2-1 2-1 8-1v-3q2.999-.51 6-1l1-3 2 1z"/><path fill="#d68b70" d="m690 532 3 1v2h2l1-2c1.125 2.938 1.125 2.938 2 6-5.333 2.667-12.356.567-17.937-.437l-4.59-.81c-.573-.123-.573-.123-3.473-.753v-1c3.61-.293 7.221-.45 10.84-.621L686 535l1-2h2z"/><path fill="#d27d5e" d="M993 303h1q-.267 6.594-.648 13.184L994 320c3.273.848 3.273.848 7 1l4 3-4.312.375C996 325 996 325 993 327l-2-1v-3l-4-1 1-2h2v-2l2-1a98 98 0 0 0 .563-7.062c.113-2.315.25-4.629.437-6.938"/><path fill="#d48c72" d="M735 290c5.563 1.66 10.647 4.119 15.875 6.625l5.18 2.477L760 301c-3.713 1.857-6.783 3-11 3-3-5-3-5-3-7h-2v-2h-6z"/><path fill="#d58e73" d="M726 251h2l1 4h3l1 2 4.938 1.875C743 261 743 261 745 265c2.666.04 5.334.043 8 0v3l3 1c-4.767 1.589-7.934-.854-12.437-2.812l-5.122-2.208A211 211 0 0 1 730 260v-3l-3-1z"/><path fill="#d48f76" d="m742 78 3 1 1 3c-2.648 2.05-2.648 2.05-6.375 4.313-4.366 2.683-8.676 5.373-12.875 8.312L723 97l-2-1v-3h4v-2h2v-2l4-1-2-1c4-2 4-2 8-2v-2h2v-2h3z"/><path fill="#d6947c" d="M677 273c10.693.139 20.82 2.848 31 6v1c-5 .688-5 .688-10 1v-2l-5 1-2-1-1 2-1-3a109 109 0 0 0-7-1v-1l-5-1z"/><path fill="#d9a08a" d="M775 223c5.578-.228 10.733.305 16.219 1.277l4.57.807 4.711.853 4.805.842c8.64 1.543 8.64 1.543 11.695 2.221v1a349 349 0 0 1-10.937-.375l-3.155-.133c-7.78-.365-7.78-.365-8.908-1.492-3.689-.244-7.376-.384-11.07-.523L780 227l1-3h-6z"/><path fill="#d38f75" d="m504 144 2 1c.25 3.563.25 3.563 0 7h-2l-1-2c-3.062.25-3.062.25-6 1v2c-3 2-3 2-7 2v2h-3v2h-6c3.915-3.915 7.241-5.992 12.063-8.625 7.775-4.267 7.775-4.267 10.937-6.375"/><path fill="#d17b5e" d="M728 86v2h3l-1 2-3-1v2h-2v2l-3 1-2 5c-4.125 2.625-4.125 2.625-8 4v-5h2l1-3 4-2 1-4c6-3 6-3 8-3"/><path fill="#dca28b" d="M602 555c3.563-.25 3.563-.25 7 0v2c7.457 2.74 15.18 2.183 23 2l-2 2a176 176 0 0 0 10 3c-5.497 1.374-10.146-.06-15.562-1.25l-3.135-.66c-6.837-1.464-13.626-3.008-20.303-5.09z"/><path fill="#d18165" d="M676 509c6.633-.754 12.697 1.13 19 3l2 3-3.937-.187L689 515l-1 3-4-1-1-3h-5v-3h-2z"/><path fill="#d48a6e" d="m411 209 1 3-1 2h-2l-.437 2.938L408 220l-3 1v2l2 1-1 2c-6.111 2-6.111 2-9 2 1.715-4.288 3.038-6.6 5.875-10.062l2.055-2.536c1.92-2.227 3.99-4.322 6.07-6.402"/><path fill="#df9c83" d="M441 456h6l3 3-3.5-.812-3.5.812c-1.392 6.89 0 13.384 2 20h-3l-1-5-3.687.063L434 474c.566-3.64 1.964-5.946 4-9h2l.25-4.5z"/><path fill="#d69278" d="M931 359c5.535.375 8.115 1.07 13 4l3-1 5 2 1 5h4l1 4c-4.463-1.785-8.65-3.775-12.937-5.937l-4.153-2.09L937 363l-3.504-1.691L931 360z"/><path fill="#d79a84" d="m628 75-1 4-5 2-1 2c-5 2-5 2-8 2v3c-4.97 1.723-9.844 2.969-15 4 4.076-4.076 8.96-6.378 14-9.062C626.799 75 626.799 75 628 75"/><path fill="#d7937a" d="m390 295 3 2v3h3l3 6h3l-.5 3.375L401 313l3 2-1 4c-13-16.667-13-16.667-13-24"/><path fill="#d79981" d="M661 689v2l-3 1-2 3h-3l-1 4-5 3-2-1-1 3h-6l-1 3-4-1q6.432-4.258 12.875-8.5l3.707-2.457 3.535-2.324 3.27-2.158C659 689 659 689 661 689"/><path fill="#d59379" d="m562 194 1 2 3 1q-4.59 2.944-9.187 5.875l-2.62 1.684c-4.02 2.556-7.754 4.665-12.193 6.441l1-5 4-1 4-4h4v-2h2v-2h5z"/><path fill="#d58b71" d="m774 616 2 1-4 4h-2v6c-4 3-4 3-7 3l-2-2-4-1q4.178-2.795 8.375-5.562l4.71-3.13c1.293-.761 2.584-1.523 3.915-2.308"/><path fill="#ddb2a1" d="M769 548v2c-7.464 4.17-15.456 7.95-24 9v-2h5v-3l-4-1q5.187-1.254 10.375-2.5l2.984-.723C766.773 548 766.773 548 769 548"/><path fill="#d48b71" d="M504 300c4.582 1.833 8.188 3.894 12.313 6.563l3.8 2.44L523 311v1h-7l-4 1c-2-4-2-4-3-7h-3c-1.187-3-1.187-3-2-6"/><path fill="#d7967f" d="M454 359h4v2h5l3 3 3.688-.062L473 364v4l5 3v2h5l-4 2c-3.574-1.562-3.574-1.562-7.687-4l-4.293-2.531c-4.432-2.722-8.788-5.446-13.02-8.469z"/><path fill="#d5947c" d="m446 180 2 1a282 282 0 0 1-7 8l-1 2h-6l-1 4c-4 2-4 2-8 1 6.735-5.766 13.372-11.448 21-16"/><path fill="#d28468" d="M1000 444c2 0 2 0 3.91 1.906 3.563 4.294 5.893 7.412 7.465 12.844L1011 462c-2.812-.25-2.812-.25-6-2-4-8-4-8-4-11z"/><path fill="#c77354" d="M989 282c3 1 3 1 5 5 .91 4.197 1.128 8.206 1.133 12.492l.004 3.633-.012 3.75.012 3.82A419 419 0 0 1 995 320h-1c-.248-2.557-.42-5.122-.562-7.687l-.278-4.66c-.142-4.138-.007-8.149.215-12.278L993 290c-3.562-.125-3.562-.125-7 1l1-3h2z"/><path fill="#dca692" d="m582.168 300.602 4.893-.012 5.126.035 5.163-.035 9.393.022L610 301v3h6l2 2c-9.612-.948-9.612-.948-13.938-1.531-6.555-.607-13.045-.575-19.625-.531l-3.923.013q-4.758.02-9.514.049c3.931-3.931 5.696-3.386 11.168-3.398"/><path fill="#dba38f" d="m932.375 247.875 3.295.008c7.159.042 14.218.228 21.33 1.117v1c-24.88 1.936-24.88 1.936-36 1l-2-2c3.957-1.978 9-1.144 13.375-1.125"/><path fill="#d3866b" d="M741 239c7.384.321 13.962 1.925 21 4l-4 2-1-2-3 1v-2c-3 1-3 1-6 6-3-1-3-1-4-2l-4 2-1-3 5-2-3-2z"/><path fill="#d49078" d="M810 295c5.58-.372 7.391-.456 12 3l2.188 2.063C827 302 827 302 831.875 303l4.125 1-1 4c-5.67-1.005-10.84-4.4-15.875-7.062l-5.18-2.723L810 296z"/><path fill="#dca48d" d="M603 280v2c-2.264.757-4.564 1.405-6.875 2-6.912 1.787-6.912 1.787-9.125 4h-3v3h-3l-2 5c-4.125-.187-4.125-.187-8-1 6.455-6.455 14.558-9.849 23-13 5-2 5-2 9-2"/><path fill="#d68d73" d="M630 728c2.253.093 4.503.252 6.75.438 3.778.307 7.458.562 11.25.562l2 2-1 4 3 2c-5.599-.524-9.88-2.073-14.937-4.5l-4.028-1.906L630 729z"/><path fill="#d6967d" d="m703 661 2 1-1 2h-3v3h-2v2h-5v2h-2l1 5-1-2c-2.723.46-2.723.46-6.062 1.375l-3.348.898L680 677c3.92-3.92 8.44-6.738 13.063-9.75l2.798-1.863c2.339-1.527 4.735-2.965 7.139-4.387"/><path fill="#d79981" d="M805 327c4.696 1.879 9.027 4.021 13.5 6.375l4.469 2.336c3.332 1.892 6.15 3.785 9.031 6.289l-4 1-4-3h-4l-3-4h-3v-3h-3v-2l-5-1z"/><path fill="#d4927a" d="M965 252c9.816 1.963 16.458 8.825 23 16l-1 2c-2.937-1-2.937-1-6-3-1.187-3.187-1.187-3.187-2-6h-3v-2h-3l-1 3c-3-5.75-3-5.75-3-8l-3 1z"/><path fill="#dca591" d="M973 421c9.614 6.133 18.927 12.926 27 21l-1 2-2.625-2.75c-3.572-3.44-5.718-4.015-10.375-5.25l1-3-5-2v-2h-3v-2l-5-2z"/><path fill="#d27c5d" d="M485 372h2l1 4h2l2-4 4 4-1 4h3v2c-6.61-1.38-11.184-2.51-17-6z"/><path fill="#ce6d4b" d="M551 536h3v2h6a1243 1243 0 0 1 10 4v-2h2l-1 5c-8.114-.114-8.114-.114-11-3l-5-1v-2h-4z"/><path fill="#d7977f" d="M557 334c5.373 2.149 9.972 5.013 14.813 8.125l2.677 1.707A2744 2744 0 0 1 581 348c-4.392 1.464-6.822-.228-11-2-4.188-2.513-6.716-4.543-10-8l-3-3z"/><path fill="#d28063" d="M639 69v2h-3l-2 4-3 2v3l-4 2-2 2-5 1-1-2h2l1-3 5-1 1-5c7.889-5 7.889-5 11-5"/><path fill="#d48d72" d="m999 553 4 2c-3.745 6.206-9.968 11.15-16 15v-5h2v-2h2l1-3h2l1-3h2v-2h2z"/><path fill="#d8977f" d="M586 507c2.665-.083 5.335-.083 8 0v1l3.813-.125C602 508 602 508 605 511v2l4 1v2c-5.344-.341-9.98-2.458-14.875-4.5l-4.617-1.906L586 508z"/><path fill="#d17e60" d="m581 291 3 1h-2l-.375 3.438L581 299l-4 1-3 2-2-1v-3c-4 .313-4 .313-8 1 3.392-3.392 5.376-4.027 10-5l4 1z"/><path fill="#d79981" d="M823 416h6l4 4 4 1 4 4 3.188 2.063C847 429 847 429 848 432c-4.48-1.792-7.923-3.751-11.937-6.375l-3.59-2.336L829 421l-3.441-2.227L823 417z"/><path fill="#dfaa96" d="M994 398c4.283 2.142 6.64 4.64 10 8l4 2 1 4 4 1v4l3 1c.688 3.563.688 3.563 1 7-4-4-4-4-6.437-7.937-3.809-5.925-8.89-10.567-13.93-15.438L994 399z"/><path fill="#d89f8a" d="M805 248c2.502.039 5.003.158 7.5.313l4.219.238L820 249v2h9v2l3.438-.125L836 253l1 4c-2.84-.344-2.84-.344-6.937-1.5l-4.403-1.207L821 253q-4.497-1.105-9-2.187a185 185 0 0 1-7-1.813z"/><path fill="#d5947c" d="M591 96v2h-3l-1 3-2 2h-4l-1 3c-4.623 3.467-6.415 3.28-12 3 4.103-3.514 8.48-6.114 13.188-8.75l4.292-2.422C589 96 589 96 591 96"/><path fill="#d58d71" d="M519 393h2v2h4v2l3-1 2 1v-2h2v4h2v2l2 1-1 2c-6.153-1.295-11.685-4.785-17-8z"/><path fill="#d58f75" d="M855 319c3.5-.187 3.5-.187 7 0v2h3v2l3.375-.5L872 322c2.565 2.565 2.54 4.477 3 8-4.473-1.79-8.566-3.802-12.812-6.062l-4.083-2.16L855 320z"/><path fill="#d59076" d="M859 650c-3.683 3.116-7.448 5.516-11.687 7.813l-3.45 1.894L841 661l-2-1v-3h3l1-3 4 1 1-4v2h3v-2c3-2 3-2 8-1"/><path fill="#db9f87" d="M393 346c2.52 2.52 4.63 5.01 6.813 7.813 2.472 3.137 4.886 5.874 7.75 8.687L410 365l-1 2a554 554 0 0 1-7-7h-2v-2h-6c-.312-3.187-.312-3.187 0-7z"/></svg>