<svg xmlns="http://www.w3.org/2000/svg" width="1408" height="768"><path fill="#d07656" d="M795.438 217.063c8.717 5.612 14.023 11.78 16.562 21.937 4.148 2.07 4.148 2.07 9.375 4.125 9.436 3.749 9.436 3.749 12.625 5.875 4-1 4-1 7.063-2.5 8.817-3.36 16.233-2.866 24.937.5 6.703 3.548 11.473 9.044 14.938 15.75 2.45 9.799 1.559 17.257-2.938 26.25-.917.89-1.833 1.781-2.777 2.7C873 295 873 295 873.57 299.495l1.555 4.942c3.454 11.302 3.87 20.426 3.422 32.238L879 341l5 2c7.143 7.143 10.093 12.915 10.438 22.938-.183 8.12-2.52 15.3-8.438 21.062-7.937 5.622-15.518 8.779-25.512 7.578-3.488.422-3.488.422-6.34 3.508l-2.773 4.289c-3.248 4.944-6.458 9.82-10.145 14.445l-3.668 4.68-3.433 4.281C832 430 832 430 833.12 434.566L835 439c1.17 9.5.333 16.83-5 25-5.392 6.429-10.834 10.473-19.371 11.344-5.903.152-9.894-.025-15.379-2.406L791 472c-3.858 2.854-6.715 5.56-10 9q-3.89 3.674-7.812 7.313l-4.145 3.898A1424 1424 0 0 1 758 502.437c-3.51 3.228-6.964 6.481-10.312 9.875-3.754 3.754-7.695 7.194-11.688 10.688l-4 4c-4 4-4 4-7.562 7.063-5.655 5.017-10.77 10.496-15.95 16L705 553c-6.122-1.225-8.569-3.72-13-8v-2l-4-2a120 120 0 0 1-4.75-4.687c-4.248-4.335-8.668-8.328-13.25-12.313a1930 1930 0 0 1-7.375-6.875c-7.11-6.658-14.294-13.21-21.625-19.625-6.618-5.79-13.126-11.701-19.625-17.625A638 638 0 0 0 612 471.5a669 669 0 0 1-15-13.5l-2.797-2.555C592 453 592 453 591.438 449c.624-4.44 1.06-6.199 4.562-9 4.765-.692 7.243-.406 11.5 1.875L610 444v2l4 2a247 247 0 0 1 6.75 6.188c5.003 4.708 10.07 9.3 15.25 13.812a2026 2026 0 0 1 6 5.5 539 539 0 0 0 10 9c4.401 3.851 8.705 7.798 13.008 11.758a784 784 0 0 0 7.742 6.992c5.87 5.263 11.589 10.688 17.32 16.102L694 521l4.242 4.086L702 528c4.063-2.031 6.125-3.951 9.25-7.187 4.413-4.502 8.99-8.677 13.75-12.813l4-4a161 161 0 0 1 7.938-7.437c3.787-3.322 7.302-6.785 10.835-10.368 3.27-3.223 6.766-6.18 10.227-9.195l3.5-3.5c4.496-4.496 9.224-8.727 14.242-12.637 3.226-4.091 2.585-6.927 2.258-12.05-.23-8.338.337-12.924 5-19.813l4-4c-.945-4.45-.945-4.45-3-10l-1.12-3.038a693 693 0 0 0-3.755-9.774l-2.555-6.583a1456 1456 0 0 0-4.005-10.22l-1.385-3.522-1.266-3.19C769 376 769 376 769 373c-4.312-1.187-4.312-1.187-10 0-4.481 4.789-7.621 10.403-11 16a995 995 0 0 1-3.773 5.82C734.184 410.264 734.184 410.264 733 415q1.9 4.05 4 8c2.227 8.907.73 15.68-3 24-4.749 6.648-9.404 10.016-17 13-10.064 1.677-17.506.714-26-5-5.975-5.064-8.877-9.443-11-17 .127-2.669.297-5.336.5-8 .18-7.104.18-7.104-2.7-10.898-3.144-2.607-6.391-4.852-9.8-7.102a852 852 0 0 1-6.937-5.5c-3.802-2.977-6.508-4.678-11.063-6.5-2.688.94-5.353 1.949-8 3-5.542 1.03-8.49 1.177-13.875-.687C623 402 623 402 620.133 404.359a149 149 0 0 0-5.492 6.457c-4.545 5.479-9.4 8.827-15.766 11.934l-3.633 1.797c-9.005 4.036-20.937 4.009-30.242.828-22.06-10.478-35.697-33.398-44.633-55.395-1.271-3.634-2.365-7.263-3.367-10.98l-.96-3.348c-6.489-26.398-1.631-54.423 12.335-77.527C542.355 257.327 563.624 242.729 588 237c27.582-4.755 53.977-.465 77.313 15.438C680.135 263.703 680.135 263.703 683 268c.527 4.665.632 7.081-2.062 11-3.797 2.585-5.418 2.843-9.938 2-4.505-2.954-8.418-6.36-12.5-9.875-18.502-14.79-39.6-17.823-62.5-16.125-19.399 2.727-36.996 13.642-48.934 28.996-12.972 18.859-16.703 41.89-12.879 64.254C538.53 368.606 549.752 392.543 567 405c5.992 3.457 11.16 3.532 18 3 7.048-2.35 11.65-5.909 17-11l4.188-3.312L609 390c-1.062-4.812-1.062-4.812-3-10-.796-8.98 1.04-16.067 5.688-23.812 7.09-6.708 13.753-10.246 23.375-10.375C641 346 641 346 646 347l2-4a260 260 0 0 1 4.938-6.375l2.996-3.773L659 329q2.753-3.498 5.5-7l2.75-3.496q2.757-3.513 5.5-7.04a569 569 0 0 1 16.656-20.398c2.307-2.727 4.515-5.506 6.719-8.316C711.643 263.796 729.224 249.422 752 240h2l.75-4c1.975-7.9 6.632-13.367 13.25-18 8.843-4.58 18.291-4.407 27.438-.937M775 236c-3 5-3 5-3 11 3 5 3 5 7 7 3.938.438 3.938.438 8 0 3.884-3.14 5.802-5.287 6.375-10.25-.485-4.854-1.722-6.553-5.375-9.75-6.073-1.613-7.447-1.332-13 2m33 22-3.187 3.75c-4.414 4.92-8.424 7.582-14.943 8.867C787 272 787 272 785.784 275.389l-.647 4.365-.748 4.78-.702 5.029c-.25 1.632-.5 3.265-.76 4.947A730 730 0 0 0 781 308l-.825 4.918L780 317l4 2c2.138-1.759 4.255-3.55 6.258-5.46 3.036-2.812 6.218-5.322 9.492-7.853 5.933-4.615 11.7-9.388 17.41-14.277a104 104 0 0 1 5.649-4.476C825 285 825 285 826 281c.29-5.143.171-9.971-1-15-4.781-4.289-10.346-8-17-8m-87.96 24.95c-3.62 3.631-6.842 7.45-10.005 11.48-1.877 2.37-3.889 4.633-5.91 6.882-5.361 5.974-10.21 12.347-15.125 18.688l-7 9-3.559 4.578c-13.589 17.46-13.589 17.46-17.285 21.629L659 358c.563 2.938.563 2.938 2 6 2.342 7.026 2.452 12.74 1 20 2.595 2.647 5.07 4.763 8 7l3.113 2.426a505 505 0 0 0 6.719 5.113C683 401 683 401 685.449 403.336c2.176 2.039 2.176 2.039 6.551 4.664 5.188-1.562 5.188-1.562 7.965-2.906 4.616-1.664 8.888-.86 13.676-.16 5.726-1.592 7.557-7.063 10.359-11.934a683 683 0 0 1 4.805-7.312l2.515-3.817q2.588-3.92 5.18-7.836l2.492-3.785 2.261-3.422C743 364 743 364 744 361a238 238 0 0 0-4-8c-2.29-9.163-1.193-16.614 3-25 4.372-6.024 8.932-10.079 16.313-11.75L762 315c2.534-7.75 3.38-16.086 4.625-24.125l.695-4.363 1.253-8.02C769 275 769 275 769 269a127 127 0 0 0-7-5 148 148 0 0 1-4-6c-13.336 0-28.976 16.511-37.96 24.95M844 267c-1.674 3.348-1.274 6.326-1 10 2.603 4.435 4.03 5.012 9 7 3.94-.082 5.651-.737 8.813-3.125 2.643-3.474 3.187-5.526 3.187-9.875-3-5-3-5-7-8-5.823-.647-8.87-.255-13 4m-14 35.938c-4.127 3.574-8.258 7.124-12.5 10.562a1075 1075 0 0 0-12.375 10.25l-3.18 2.672L799 329l-3.07 2.39L794 334c.793 3.481.793 3.481 3 7 4.148 1.729 4.148 1.729 9.375 2.906l5.672 1.313 2.959.636a570 570 0 0 1 8.947 2.02C838.51 351.163 838.51 351.163 842 350l2.688-3.312c4.712-5.246 9.859-7.107 16.312-9.688 1.886-9.48-.495-19.819-3-29l-.738-3.324L856 302c-5.812-1.25-5.812-1.25-8.957-1.578C844 300 844 300 839 298c-4.334 0-5.773 2.11-9 4.938M758 337c-2.491 6.228-2.491 6.228-1 11 2.5 2.813 2.5 2.813 5 5l1 1c4.322.36 7.083.538 10.875-1.687 2.887-3.142 4.152-6.02 4.063-10.313-1.179-3.77-2.962-5.46-5.938-8-5.63-2.815-9.704-.613-14 3m101 20c-3.97 3.97-3.85 6.479-4 12 3 5 3 5 6 7 4.956.315 7.505.248 12-2 3-5 3-5 3-11-2.577-4.963-3.618-5.847-9-8-3 0-3 0-8 2m-71.062 3.938C785 366 785 366 785.426 369.156c1.28 3.653 2.717 7.202 4.261 10.75 2.24 5.277 4.274 10.635 6.351 15.977q2.596 6.659 5.232 13.3l1.518 3.83c.684 1.685 1.399 3.36 2.212 4.987 7.324 1.936 7.324 1.936 12 1 4.226-3.706 6.968-8.303 10-13a949 949 0 0 1 5.875-7.937A801 801 0 0 0 838 391l2.383-3.191C842 385 842 385 841 381a457 457 0 0 0-5-13c-3.943-1.486-3.943-1.486-9.059-2.676l-5.545-1.318-5.833-1.318-5.823-1.377c-16.86-3.947-16.86-3.947-21.803-.373M626 368c-1.797 3.593-1.262 7.076-1 11 1.438 3 1.438 3 4 5 5.089 1.236 7.8 1.621 12.5-.812 3.292-2.881 3.433-3.522 3.875-7.938-.455-5.155-1.502-6.872-5.375-10.25-5.908-1.97-9.02-.487-14 3m75 56c-2.227 3.233-3.018 5.132-2.937 9.063 1.078 3.38 2.513 5.366 4.937 7.937 3.348 1.674 6.326 1.274 10 1 2.81-1.794 4.51-3.019 6-6 .238-4.928.237-7.525-2-12-6.427-3.272-9.79-3.88-16 0m96 17c-1.575 3.15-1.348 5.52-1 9 2.592 4.375 4.053 5.748 9 7.063 4-.063 4-.063 9-3.063 3-4 3-4 3.063-8.437C816 441 816 441 813.375 437.938c-6.926-3.976-10.926-2.387-16.375 3.062"/><path fill="#d07b5e" d="M533 307h2c-.194 2.323-.514 4.635-.875 6.938-4.058 30.103 3.775 55.336 21.563 79.812C560.77 400.208 565.96 405.588 574 408c10.029.816 16.299-1.028 24.125-7.312L602 397l4.188-3.312L609 390c-1.062-4.812-1.062-4.812-3-10-.718-8.102.75-13.685 4-21l4-3c-1 5-1 5-2 6-.032 3.661.069 7.313.16 10.973L612 376h-2c1.188 4.438 1.188 4.438 3 9l3 1v4l-5 1v2h-2v2h-3l-1 5-2 3h-3l-2 4 4 1v2l2 1-1 3 5-1v-2h3l2-4h2l-1-5h3l1-2c3.892-.973 7.012-1.23 11-1v2c2.625.266 2.625.266 6 .25l3.375.016L641 401v-2h7v-2h6v3c-1.982.428-3.99.728-6 1l-5.312 1.625c-7.256 1.754-12.485.816-19.688-.625-2.684 2.352-2.684 2.352-5.437 5.625-5.621 6.604-10.857 11.303-18.688 15.125l-3.633 1.797c-9.005 4.036-20.937 4.009-30.242.828-22.001-10.45-36.03-33.55-44.668-55.64A212 212 0 0 1 517 359l-1.312-4.5c-.708-3.6-.917-6.84-.688-10.5h1a308 308 0 0 1 2 7l1.125 2.938c.875 3.062.875 3.062.688 7.312L520 365l5 2 5 3v-4h2v4h2c-.457-2.839-.923-5.678-1.492-8.496-.61-4.203-.508-8.256-.508-12.504a748 748 0 0 0-1.465-15.498c-.7-7.586-.048-14.028 1.465-21.502z"/><path fill="#cd7050" d="M570 250v2l3 1 3-3c2 2 2 2 2 6l-3 1-5 2v2l-5 1v3h-3v2h-3v2l-2 1-1 4a804 804 0 0 1-5.809 6.457c-6.263 7.269-10.051 15.015-13.05 24.086L536 307h-3c-.625 4-.625 4-1 9l-.578 3.406c-.59 6.431-.045 12.667.453 19.094l.277 3.879c.458 6.236 1.044 12.419 1.848 18.621.188 5 .188 5 0 9h-2v-4h-2v4c-4-1-4-1-8-3v-2h-2c-.71-3.325-1.371-6.66-2-10l-2-5v-6h-2c-1.77-26.619 2.73-52.628 20.23-73.684 2.209-2.489 4.477-4.905 6.77-7.316l3-3.5c3.802-3.168 7.196-3.627 12-4.5v-2c5.137-2.303 8.265-3 14-3"/><path fill="#d06f4e" d="m653 343 3 1v4h2l2 3-1 3-3 1-2-1v6h3v2h2c.15 4.697-.009 9.365-.125 14.063L659 380h2c.16-2.625.16-2.625.063-6-.054-2-.084-4-.063-6h1c.102 2.415.13 4.833.125 7.25l.008 4.078C662 383 662 383 661 387h2v2l3 1 4 4a352 352 0 0 0 7 3l1 2 3 2c-8.625 1-8.625 1-12 1l-1-2h-4v-2h-2v3h-6l-3-3-5-1v2h-7v2c-2.625.266-2.625.266-6 .25l-3.375.016L629 401v-2c-5.437.188-5.437.188-11 1l-1 3-3-1 1 5-4 4h-3v2l-5 1-1-4-5-2c3-5 3-5 6-6l1.5-3.562L606 395h3v-2h2v-2l5-1v-4l-4-1c-1.375-4.562-1.375-4.562-2-9h2c-.128-2.194-.357-4.382-.625-6.562-.405-4.772-.487-7.145 1.25-11.688 3.365-3.896 6.716-4.635 11.688-5.5L628 352v2h6l-1-5h5c.563 4.375.563 4.375 0 9-4 2-4 2-7 2v3h-4v2l-5-1 1 4-1.062 3.063c-.31.969-.62 1.938-.938 2.937l2 3v3l5 2 4 2c5.726 0 7.255-.515 12-3v2l3-1c.56-4.021 1-7.935 1-12h4c.207-2.738.207-2.738-.187-6.312l-.356-3.551C651 357 651 357 650 354h-2c.188-4.5.188-4.5 1-9h3z"/><path fill="#d07b5e" d="M740 353h3v5h2c.875 3.75.875 3.75 1 8l-4 4a253 253 0 0 0-2 6l-3 3h-2l1 4-3 3-2 3h-2c-1 4-1 4-1 5l-.125 4.063L728 402h2v2l5 1v-4h2l1-5h3l1-5h3l-1-5h2c1 5 1 5-2 9.836a549 549 0 0 1-6.062 8.328c-4.985 7.035-4.985 7.035-4.688 12.063L734 419l-3-1v-2l-5 1c-.418-2.746-.418-2.746-.187-6.437.122-2.185.202-4.375.187-6.563h-2v4c-3.026.098-6.058.177-9.082.043C712 408 712 408 709 409l-1 5h-2v-2h-4v-2h4v-2c-3.988-.23-7.108.027-11 1v2l-4 4 1 5-4.39.121L683 421c-.83 4.142-.995 6.942-.75 11.063.015 1.044.03 2.09.047 3.166.094 2.994.094 2.994.703 7.771h3v2l3 1 1-2h2v2h2v2h-2a140 140 0 0 0 2 8c-6.062-3.031-9.675-7.607-12.937-13.5-1.082-4.58-.85-7.723-.5-12.375.133-7.207.133-7.207-2.766-11.031-3.146-2.603-6.385-4.852-9.797-7.094a644 644 0 0 1-7.187-5.5l-3.293-2.469C655 402 655 402 654 400l4 .688 4 .312v-3h2v2h8v2c3.125-.687 3.125-.687 6-2-2-3-2-3-6.375-4.937C667 393 667 393 663 389v-2h-2l1-4c1.855 1.499 3.686 3.033 5.426 4.664 3.928 3.565 8.16 6.7 12.406 9.875C683 400 683 400 685.449 402.336c2.176 2.039 2.176 2.039 6.551 4.664 5.313-1.562 5.313-1.562 8.078-2.86 5.005-1.953 9.606-1.446 14.922-1.14l2 1 2-5a172 172 0 0 1 3.922-6.043l2.36-3.506 2.468-3.639c3.105-4.59 6.19-9.191 9.25-13.812l1.962-2.912c1.698-2.631 1.698-2.631 4.038-7.088-1.312-5.125-1.312-5.125-3-9"/><path fill="#cf7150" d="M776 354h2v2l4-2v4h3l1-4h5v2l5 1 3 2-3.125-.5c-3.875.5-3.875.5-7.277 3.971C786 367 786 367 786.632 371.33l1.923 4.63 2.054 5.118 2.266 5.297 2.148 5.273c1.96 4.798 3.962 9.577 5.977 14.352 4 9.645 4 9.645 4 12 3 .044 6 .04 9 0l4 1v2c-3.21.371-3.21.371-7.375.438l-4.148.12L803 421c-2-5-2-5-2-8h-2l-2-4-1 2-4 1v-2h-5c-.312 3.5-.312 3.5 0 7l-1-2h-2a293 293 0 0 1-4.812-12.187l-1.292-3.428q-1.295-3.441-2.578-6.886c-1.747-4.638-3.572-9.244-5.407-13.848C769 376 769 376 769 373c-4.312-1.187-4.312-1.187-10 0-4.28 4.97-7.571 10.424-11 16h-1v-5h2v-5l3-1a150 150 0 0 0 1-6c2.972-1.486 5.696-1.132 9-1.125l3.813-.008C769 371 769 371 771 372c-.375-3-.375-3-1-6h-2v-2h2q1.02-2.994 2-6l2-1 2 1z"/><path fill="#d07354" d="M804 435c5.438-.312 5.438-.312 11 0l1 4h2v11h2l-1 5-5 1-1 2-4 2-1 2-3 1 5 1v2h2v4h-2v-2h-2v3c2.844.293 2.844.293 6.5.188l3.656-.083L821 471c-6.634 4.975-12.921 4.61-21 4l-4.75-2.062L791 472c-3.858 2.854-6.715 5.56-10 9q-3.89 3.674-7.812 7.313l-4.145 3.898A1424 1424 0 0 1 758 502.437c-3.657 3.357-7.222 6.76-10.687 10.313C744 516 744 516 742 516v-6l3-1 1-5h2v2h3a150 150 0 0 0 1-6h2l1-3h4v-2h2v-2h3l1-4c4-3 4-3 6-3v-2h3l1-4h3v-2h-2v-2h-2v-2h-2v4h-2v-6l-3 1h-2c-2.916 2.813-5.68 5.752-8.469 8.691L754 484l-2-1c1.867-2.126 3.852-4.147 5.875-6.125l3.648-3.57c4.561-4.336 9.195-8.544 14.18-12.39 3.304-4.192 2.757-7.287 2.547-12.54-.31-9.196-.31-9.196.75-12.375h2c.374 3.609.61 7.13.75 10.75l.168 3.078c.21 4.832.279 7.778-1.918 12.172l4-3 2 1-.687-5.375L785 449l3-2v7l2-2 2-2 2 1q.569-3.991 1-8h1l.875 4.313C798 452 798 452 801 455c6.076 1.372 7.452 1.33 13-2 2-3 2-3 1.938-7.437C815 441 815 441 812.813 438.5c-3-1.6-5.457-2.11-8.813-2.5z"/><path fill="#cf6f4e" d="m766 471 4 1v6h2v-4h2v2h2v2h2v2l-3 1-1 3h-3v2l-2.937 1.938C765 490 765 490 764 493h-3v2h-2v2l-4 1-1 2h-2l-.437 3-.563 3h-3v-2h-2v5l-4 1 .313 3c-.438 5.606-3.224 7.587-7.149 11.375L733 526l-2-1v-2h-2v2l-5 2-2-1v2l-4-1v5h-4v-2l2-1c-5-3-5-3-7-4 4.388-4.923 8.482-8.37 15-10a191 191 0 0 0 5-6l4-3 3-5 7-6 3-5a289 289 0 0 1 8.5-8.125l4.594-4.258L763 474z"/><path fill="#d0704f" d="M724 404h2c.326 3.127.38 6.233.46 9.375L727 416h4c3 3 3 3 3.438 6.688L734 426h-4v-2h-2v-4h-2v4h-2v-6h-2v2l-3 3c-3.016-.26-6.031-.525-9.04-.863-3.744-.173-5.944.662-8.96 2.863l-1 2h-2c-.351 9.947-.351 9.947 1 14h2v2l4 1-1 2h-2v2h-2v-2h-4v-2h-2v2h-2v-2h-2l-1 4-3-3v-2h-3c-.282-3.71-.37-7.23-.312-10.937l-.01-3.155c.019-2.638.16-5.275.322-7.908 2-1 2-1 5.75-.687L692 420c-.687-3-.687-3-2-6h2l1-3h2v-2c4.509-2.254 6.208-2.106 11-1v2h-4v2h4v2h2v-5c4.389-2.194 5.582-2.04 10.25-1.375L724 408z"/><path fill="#cf7454" d="M776 215c9.246-.933 16.024-.135 24 5 6.33 5.41 9.977 10.907 12 19l2 2-4-1-1 4 2 1h-3v3h-2c-.066-3.595.139-7.152.32-10.742L806 234l-4-2v-5l-4 1 1 5-3 1 1 3c-.378 4.094-1.174 7.957-2 12h-2l-.375-4.187c-.875-6.736-.875-6.736-4.625-9.813-3.937-1-3.937-1-8-1-5 3-5 3-8 7-.75-2.875-.75-2.875-1-6l4-2 1-5 1-4v-4l-2-1c4-1 4-1 9.25-.937L789 218v-2c-2.844-.16-2.844-.16-6.5-.062a190 190 0 0 1-6.5.062z"/><path fill="#cf704f" d="m609.25 236.563 3.64-.061c7.245.004 12.71.7 19.11 4.498v3h-4v-2l-3 1c-.875 3.5-.875 3.5-1 7l3 1-2.599.076q-5.826.176-11.651.362l-4.09.119-3.926.127-3.618.11C598 252 598 252 594 253c-3.687.25-3.687.25-7 0l-1-3h2v-4h4v-4a98 98 0 0 0-7 0l-3-2c9.274-2.435 17.678-3.495 27.25-3.437"/><path fill="#d08265" d="m718 260 2 1a552 552 0 0 1-7 7l-2 4h-2v2l-2 1-1 3h2v-2h2v-2h2v4h2v-2h4v2l5-1v-2h2v-2l5-2v-2h4l1-4h3l1 3c-2.315 1.94-4.645 3.866-7.043 5.703-7.87 6.113-14.645 12.795-20.816 20.61-3.798 4.767-7.83 9.377-12.141 13.687-.312-3.25-.312-3.25 0-7 2.5-2.312 2.5-2.312 5-4v-2h3c-.625-4.937-.625-4.937-2-10l-3-1v-2h-3v4l-2-1c0-7.885 12.842-17.061 17.988-22.316z"/><path fill="#d08063" d="M599.875 439.438c4.48.61 6.703 1.654 10.125 4.562v2l4 2 1 2c-3-.875-3-.875-6-2v-2h-3v10l-3 3 1 3c3.063-.687 3.063-.687 6-2v-2h2v2l4-1c1.769 4.296 2.139 6.445 1 11l2.5 3 2.5 3-1 4c-3.098-2.426-3.098-2.426-7.062-6.312l-4.122-3.985L606 466a267 267 0 0 0-4.625-4.062A136 136 0 0 1 593 454l-1-1c-.355-4.262-.43-7.138 1.5-11 2.5-2 2.5-2 6.375-2.562"/><path fill="#d06f4d" d="m865 281 5 1v4h2c-.355 2.625-.355 2.625-1.187 6l-.793 3.375L869 298h-3v4l-2-1-1-4-5 1-1 2c-4.086.07-7.929-.486-12-1v-2h-4l-1-3h2v-5h4l1-3 4 1v-2c4-1 4-1 8.688-.875L864 284z"/><path fill="#d08266" d="m772 381 3 1v4h2a279 279 0 0 1 5 10l2 4c4.125.625 4.125.625 8 0v-6l2 2 2-3q2.255 5.685 4.5 11.375l1.3 3.273c3.2 8.125 3.2 8.125 3.2 10.352 3 .044 6 .04 9 0l4 1v2c-3.21.371-3.21.371-7.375.438l-4.148.12L803 421c-2-5-2-5-2-8h-2l-2-4-1 2-4 1v-2h-5c-.312 3.5-.312 3.5 0 7l-1-2h-2a321 321 0 0 1-5-12.687l-2.687-7.137-1.2-3.222A424 424 0 0 0 772 384z"/><path fill="#d59279" d="m653 245-4 2v-2h-4v-2c-3.5-.562-3.5-.562-7 0-.187 3.563-.187 3.563 0 7l-4-1 1 4 4 2v2l4 1 3 1v2l4 1c-5.12 1.28-7.7-.41-12.344-2.578-9.64-3.75-18.67-4.878-28.906-5.047A614 614 0 0 1 597 254v-1c4.825-.243 9.644-.398 14.473-.518 4.809-.16 8.17-.304 12.527-2.482v-7l4-1v2l4-2c-7.972-4.384-14.54-4.518-23.375-4.312l-3.848.029c-9.267.113-9.267.113-12.777 1.283-2.666.04-5.334.044-8 0 20.047-10.023 49.788-3.275 69 6"/><path fill="#d08165" d="m750 241 2 1c0 4 0 4-1 7l2 2v3l3.5.313 3.5.687v6l-2-1v-2c-2.643 1.21-5.239 2.523-7.812 3.875C742.322 266 742.322 266 739 266c2-5 2-5 6-7h4l-1-3c-.97.35-1.939.701-2.937 1.063L742 258l-2-4h3l-1-5h-6l-1 3c-3.062.688-3.062.688-6 1 4.125-4.125 7.382-5.87 12.625-8.312l4.602-2.176z"/><path fill="#cf6f4d" d="M638 243c3.5-.562 3.5-.562 7 0v2l3.813.25L653 246c1.88 2.762 3 4.63 3 8h-2v2h-4v4c-4.351-.167-7.082-1.04-11-3v-2l-4-1-3-2h2v-3l4 1-.187-3.437z"/><path fill="#d28d74" d="m750 484 2 1a551 551 0 0 1-7 7l-3 5-7 6-3 5-3 1-2 4c-2.923 2.615-5.462 4.23-9 6-5.046 3.028-10.288 6.577-13 12h-5v-2h-2v-2l-4-2c-2.312-2.5-2.312-2.5-4-5l1-2c2.883 2.516 5.538 5.226 8.238 7.938L702 528c4.063-2.031 6.125-3.951 9.25-7.187 4.413-4.502 8.99-8.677 13.75-12.813l4-4a161 161 0 0 1 7.938-7.437c3.152-2.765 6.032-5.555 8.937-8.563z"/><path fill="#cf8368" d="M775 480h3l1 3c-2.219 2.426-2.219 2.426-5.5 5.313l-3.602 3.218L766 495a1810 1810 0 0 0-7.875 7.313l-3.617 3.363a261 261 0 0 0-7.328 7.242C744 516 744 516 742 516v-6l3-1 1-5h2v2h3a150 150 0 0 0 1-6h2l1-3h4v-2h2v-2h3l1-4c4-3 4-3 6-3v-2h3z"/><path fill="#d1886f" d="m613 356 1 3-2 3a103 103 0 0 0 0 7.188c.074 2.27.096 4.543 0 6.812h-2c1.188 4.438 1.188 4.438 3 9l3 1v4l-5 1v2h-2v2l-4-1 4-4a206 206 0 0 0-3-10c-.719-8.11.826-13.654 4-21z"/><path fill="#d1967f" d="M779 436h2c.66 4.531.66 4.531 1.063 10.5l.472 5.906c-.651 6.806-2.685 8.948-7.535 13.594l-2 3 2 1-1 4h-2v4h-2v-6l-3 1h-2c-2.916 2.813-5.68 5.752-8.469 8.691L754 484l-2-1c1.867-2.126 3.852-4.147 5.875-6.125l3.648-3.57c4.561-4.336 9.195-8.544 14.18-12.39 3.304-4.192 2.757-7.287 2.547-12.54-.31-9.196-.31-9.196.75-12.375"/><path fill="#d1866c" d="M665 345h5c-5.844 7.836-5.844 7.836-8.5 10.625-1.5 2.375-1.5 2.375-.875 5.25L662 364c1.726 5.18 2.359 9.532 2 15l-2 4-1-3h-2c.251 2.344.586 4.68 1 7l-2-1c-.174-2.891-.213-5.791-.187-8.687l.019-4.825c.168-4.488.168-4.488.805-8.07L659 362h-2v-2h-3v-6l4 1 1-3 3-1v-2h2z"/><path fill="#d06f4d" d="M606 446h3l1 2 5 2c2.125 2.938 2.125 2.938 4 6l3 3-3 2-2 3-1-5-4 1v-2h-2v2c-2.875 1.375-2.875 1.375-6 2l-2-4 4-2c.04-3.333.043-6.667 0-10"/><path fill="#d08c73" d="M533 307h2c-.194 2.323-.514 4.635-.875 6.938-2.74 20.33-1.135 39.952 8.594 58.304L544 375l-1 2-4-3v-2h-2v-5h-3c-1.34-4.442-2.003-8.404-1.98-13.047-.028-6.857-.758-13.639-1.485-20.451-.7-7.586-.048-14.028 1.465-21.502z"/><path fill="#d19078" d="M740 353h3v5h2c.875 3.75.875 3.75 1 8l-4 4a253 253 0 0 0-2 6l-3 3h-2l1 4-3 3-2 3h-2l-1 4c-3 2.875-3 2.875-6 5l-1-2c1.395-2.418 2.906-4.77 4.46-7.09l2.868-4.314 3.047-4.534q2.954-4.416 5.898-8.84l2.67-3.976C742 364 742 364 743 361q-1.425-3.038-3-6z"/><path fill="#cf6e4c" d="m692 308 1 3-1 2h-2v2h-2v-3h2v-2h2zm-5 8v3h-2v3l-2 1-.437 3.5L682 330l-3 1v-2c-3 3-3 3-4 6-4.333 4.667-4.333 4.667-7 6l-4-1v-2h6v-2h-2v-4c3-2 3-2 6-2v-2h2l2-4h2v-6c5-2 5-2 7-2"/><path fill="#d2886d" d="M778 226h6v2h5c.625 2.875.625 2.875 1 6l3 2c1 1 1 1 1.125 6.063L794 247h-1l-.875-4.312C791 238 791 238 788 235c-6.076-1.372-7.452-1.33-13 2l-3 4c-.75-2.875-.75-2.875-1-6l4-2 1-5z"/><path fill="#d3957d" d="M856 392c2.835-.009 5.671.12 8.5.313l4.781.3L873 393v1c-4.274.592-8.148 1.113-12.441.543-3.559.457-3.559.457-6.551 3.754l-2.883 4.453c-1.025 1.54-2.05 3.08-3.105 4.668L845 412a444 444 0 0 1-5.187 7.063l-2.168 2.91L836 424h-1c0-6 0-6 3-10h3v-5h2l2-5c2-2 2-2 6-5v-2l2-1v-2h3z"/><path fill="#d0866c" d="M646 347v2c-3.127.326-6.233.38-9.375.46L634 350v4h-6v-2c-9.414 2.414-9.414 2.414-12 5l-2-1v-2c10.796-7.852 18.76-9.648 32-7"/><path fill="#cf6e4e" d="m842 409-1 5h-3l-1 3q-1.493 4.002-3 8l-1-2h-2l1 4h-4l1 4-3 1c-1.041-4.392-.957-8.604 0-13 4.563-3.062 4.563-3.062 9-5l-1-4c4-2 4-2 8-1"/><path fill="#d06f4e" d="m672 505 2 1v2l4 1c.438 4.5.438 4.5 0 9l-3 1v5l-5-1c-1.693-5.322-2.465-10.423-2-16l2-1 1 4z"/><path fill="#d1856a" d="M795 218c6.952 2.78 10.692 6.693 14.375 13.188C811 235 811 235 812 239l2 2-4-1-1 4 2 1h-3v3h-2c-.066-3.595.139-7.152.32-10.742L806 234l-4-2a1185 1185 0 0 1-3-11h-3z"/><path fill="#d5a08b" d="m794 334 3 6c3.046.886 6.126 1.658 9.215 2.383 1.883.445 3.765.89 5.705 1.347l2.99.693q4.519 1.05 9.033 2.12C838.673 350 838.673 350 841 350l4-4-1 5c-4.145 2.445-6.548 1.924-11.375 1.25L828 351v-2l-5.5-.5-5.5-.5v-2c-4.46-.367-8.906-.446-13.379-.559-1.195-.145-2.39-.29-3.621-.441l1-3-3.437.313L794 342c-.437-4-.437-4 0-8"/><path fill="#d0927b" d="m891 357 3 2c1.442 9.783-.55 17.293-5.625 25.688C884.313 388.643 878.79 393 873 393v-2h4l1-4 5-1v-3h4v-3h2v-3h2c.149-3.33.167-6.667.125-10l-.055-5.625z"/><path fill="#d0937c" d="M648 397h6v3c-1.982.428-3.99.728-6 1l-5.312 1.625c-7.256 1.754-12.485.816-19.688-.625-2.75 2.938-2.75 2.938-5 6h-1c0-6 0-6 1-8 3.892-.973 7.012-1.23 11-1v2c2.625.266 2.625.266 6 .25l3.375.016L641 401v-2h7z"/><path fill="#d39882" d="M877 258c4.72 4.72 4.94 8.073 5.375 14.75-.16 8.058-2.735 14.02-7.5 20.5L872 296l-2-2v-3h3l1-4h3v-5h1c.101-2.811.13-5.625.125-8.437l.008-4.747C878 265 878 265 877 264z"/><path fill="#d39a84" d="M859 307c2 4 2 4 2 7h2c.177 4.336.23 8.602.188 12.938l-.002 3.732c-.046 9.19-.046 9.19-1.186 10.33-3.991.464-7.992.705-12 1 3-3 3-3 6.652-3.766L860 337c.754-2.984.754-2.984.563-6.75-.06-1.338-.12-2.676-.18-4.055a199 199 0 0 0-2.043-15.562L858 308z"/><path fill="#d29780" d="M648 263c3.014.603 6.019 1.255 9 2l2 3 4 1 1 4 2 1 3 2c4.646.964 8.369 1.017 13 0-2 4-2 4-4 5-4.823.675-6.683.208-10.812-2.5L663 275q-2.587-2.1-5.187-4.187l-2.418-1.981C653 267 653 267 648 264z"/><path fill="#d08b71" d="m547 257 2 1-2.187 2.063C544 263 544 263 542.5 267.063c-1.641 4.308-2.887 5.293-6.5 7.937l-2.125 3.188C532 281 532 281 529 282c0-9.476 9.527-16.762 15.898-23.262z"/><path fill="#d59c86" d="M799 359c6.189-.221 12.019.265 18.125 1.25l4.57.703c4.417 1.074 7.462 2.67 11.305 5.047l5 2v5l-2-4c-3.624-1.264-3.624-1.264-8.29-2.324l-5.038-1.178-5.297-1.185a4836 4836 0 0 1-10.352-2.387l-4.658-1.05L799 360z"/><path fill="#cf6e4c" d="M818 304h4v3h-2v2h-3l1 4a157 157 0 0 1-9 2v2h-2v2h-2v2h-3c2-4 2-4 4-7h2v-4h4l1-4 1 2h2v-2h2z"/><path fill="#d7947c" d="M680 426h1l1 10h1l-.125 3.5.125 3.5h3v2l3 1 1-2h2v2h2v2h-2a140 140 0 0 0 2 8c-6.14-3.07-9.804-7.686-12.937-13.75-1.404-5.613-1.326-10.47-1.063-16.25"/><path fill="#d59077" d="m831 423 4 1-2 4c-1 4-1 4 .438 6.813 2.336 6.263 2.005 12.562 1.562 19.187h-1c-.251-3.644-.386-7.287-.523-10.937L833 440h-5v2h-2v2h-2c1-4 1-4 4-7v-10l3-1z"/><path fill="#d49780" d="m762 370.813 3.813-.043C769 371 769 371 771 373l-1 2 3 1-1 5-2-2v-3.125L769 373c-4.375-1.375-4.375-1.375-10 0-4.27 4.98-7.571 10.424-11 16h-1v-5h2v-5l3-1a150 150 0 0 0 1-6c2.97-1.485 5.698-1.17 9-1.187"/><path fill="#d3896e" d="M786 354h5v2l5 1 3 2-3.125-.5c-3.875.5-3.875.5-7.375 4.188C786 367 786 367 787 372c-2-1-2-1-3.812-5.875L782 361l3-3z"/><path fill="#d0957f" d="M586.563 254.938 591 255c-3.65 1.825-7.25 3.248-11.062 4.688-6.957 2.748-12.75 6.133-18.938 10.312l-4 2v-2l-2-1h4v-2h3v-2h3v-3l5-1v-2a359 359 0 0 1 7-1c6.028-3.014 6.028-3.014 9.563-3.062"/><path fill="#d18c72" d="M775 480h3l1 3c-2.57 2.777-2.57 2.777-6.125 5.938l-3.508 3.152A224 224 0 0 1 761 499v-6h3l1-4c4-3 4-3 6-3v-2h3z"/><path fill="#d4866a" d="M795 443h1l.875 4.313C798 452 798 452 801 455c2.655.713 5.32 1.385 8 2v1l-5 1v1c-4 .188-4 .188-8 0v-2h-4v-6l2-1q.554-3.993 1-8"/><path fill="#d38d74" d="M627 363q5-.125 10 0a336 336 0 0 1-7.187 3.5C627 368 627 368 626 370l.125 5.688L626 381c-3-1-3-1-5-3-1.277-4.684-.73-7.523 1-12v-2l5 1z"/><path fill="#d49882" d="M661 383c5.14 3.804 10.207 7.693 15.25 11.625 1.18.92 2.362 1.84 3.578 2.79C683 400 683 400 687 404l-5-1-1-2-4-2-1-2-4.312-1.875C667 393 667 393 663 389v-2h-2z"/><path fill="#daa692" d="M533 307h2c-.194 2.323-.514 4.635-.875 6.938-1.799 13.255-1.49 25.78.73 38.964L535 356l-3 2 .07-3.73c-.093-6.963-.797-13.85-1.535-20.768-.7-7.586-.048-14.028 1.465-21.502z"/><path fill="#c37f65" d="M625 252v1c-2.027.15-4.058.228-6.09.281l-3.814.114-4.034.105q-3.92.103-7.84.219l-3.538.092C597 254 597 254 596 255a161 161 0 0 1-11 0v-2c12.787-2.807 27.141-3.572 40-1"/><path fill="#cf8f76" d="M842 382h2c-.325 4.545-1.65 8.115-4 12l-3 1-1 5h-3l-2 5h-3c2.926-5.853 6.815-10.997 10.566-16.348C841 385 841 385 842 382"/><path fill="#d2896e" d="m774 464 2 1-3 4 2 1-1 4h-2v4h-2v-6l-3 1h-2c-2.916 2.813-5.68 5.752-8.469 8.691L754 484l-2-1c2.438-2.836 2.438-2.836 6-6.375l3.5-3.523c3.146-2.788 5.735-4.359 9.5-6.102z"/><path fill="#d2896f" d="m833 454 1 3c-2.96 5.471-6.292 9.92-11 14l-2-1 1-5h2v-5l4 1 1-4 4-1z"/><path fill="#e0b09e" d="M520 295h1c.419 5.965-.587 9.617-3 15-1.827 7.601-2.369 14.857-2.562 22.625A502 502 0 0 1 515 344h-1c-.799-16.946-.388-33.03 6-49"/><path fill="#d7a18d" d="m717 515 2 1c-2.023 2.223-4.149 4.352-6.312 6.438-6.603 6.391-6.603 6.391-7.688 8.562h-5v-2h-2v-2l-4-2c-2.312-2.5-2.312-2.5-4-5l1-2c2.883 2.516 5.538 5.226 8.238 7.938L702 528c5.278-2.64 8.51-6.51 12.54-10.762z"/><path fill="#d79d87" d="M804 435c5.438-.312 5.438-.312 11 0l1 4h2v11h2l-1 5c-4.021 1.966-5.585 2.104-10 1l5-3c2-3 2-3 1.938-7.437C815 441 815 441 812.813 438.5c-3-1.6-5.457-2.11-8.813-2.5z"/><path fill="#d2967e" d="M760 317h-2v2l-3.437 1.938C751 323 751 323 750 326l-5 1v4h-2v3h-3c.905-6.031 4.861-9.794 9-14 6.085-4.229 6.085-4.229 11-3"/><path fill="#d16f4e" d="M617 466h3v2h2v-2h2v4h2v2h-2v2h2l-1 3c-4-1-4-1-7-3v-2l-2-2z"/><path fill="#d18d74" d="M692 311h4c-2.12 4.24-4.629 7.532-7.562 11.25l-3.004 3.828L683 329h-1v-6l3-1v-3h2l1-4h2v-2h2z"/><path fill="#d18c74" d="m812.75 470.313 4.672.363L821 471c-5.143 3.857-7.909 4.156-14.187 4.188l-3.856.042L800 475v-2c4.944-3.708 6.729-3.19 12.75-2.687"/></svg>