<svg xmlns="http://www.w3.org/2000/svg" width="1408" height="768"><path fill="#cf6d4e" d="M0 0c4.731-.39 9.336-.564 14.077-.623l4.59-.091c5.126-.097 10.253-.172 15.38-.245l10.966-.192c33.445-.564 66.896-.872 100.345-1.116l13.443-.102 3.375-.026c18.013-.142 36.02-.43 54.03-.776a3563 3563 0 0 1 55.482-.62c10.386-.04 20.763-.148 31.146-.424 65.162-1.678 65.162-1.678 76.308 7.973 7.42 9.172 10.118 18.843 11.9 30.34 1.503 7.694 4.964 14.198 8.583 21.09C405 66.288 405 66.288 405 71c-3.628.384-6.96.471-10.594.407l-3.453-.013c-3.856-.02-7.712-.067-11.568-.114q-4.122-.03-8.246-.052-8.903-.056-17.807-.141c-9.365-.087-18.731-.137-28.097-.18-26.638-.124-53.276-.285-79.913-.517a7889 7889 0 0 0-44.095-.262 3146 3146 0 0 1-27.994-.225c-5.778-.06-11.554-.074-17.332-.074q-4.053-.014-8.106-.086C132.994 69.489 132.994 69.489 127 71c1.295 5.389 2.51 6.953 6 11l2.98 5.2q1.601 2.746 3.208 5.487l1.788 3.06c11.278 19.257 22.71 38.424 34.208 57.55 4.768 7.962 9.479 15.957 14.192 23.952a6718 6718 0 0 0 4.737 8.013q8.08 13.648 16.091 27.34a3012 3012 0 0 0 20.136 33.95c4.743 7.884 9.398 15.815 14.035 23.76a1698 1698 0 0 0 17.438 29.188 1030 1030 0 0 1 17.367 29.566c3.82 6.683 7.791 13.269 11.765 19.86a1991 1991 0 0 1 21.445 36.456c6.653 11.6 13.492 23.069 20.466 34.479 5.344 8.763 10.478 17.626 15.535 26.557 2.918 5.125 5.936 10.18 8.988 15.227 4.327 7.19 8.59 14.417 12.862 21.639 2.905 4.908 5.817 9.812 8.755 14.7 3.67 6.127 7.275 12.289 10.879 18.454 10.583 18.076 21.23 36.115 32.031 54.062 3.343 5.588 6.636 11.204 9.93 16.82 5.08 8.638 5.08 8.638 7.164 9.68l2-5a480 480 0 0 1 5.086-7.273c1.833-2.612 3.54-5.268 5.226-7.977 2.536-4.025 5.205-7.901 8-11.75 8.244-11.425 15.907-23.258 23.688-35a2135 2135 0 0 1 19.727-29.2q3.769-5.529 7.478-11.1l2.16-3.244c.54-.81 1.08-1.62 1.635-2.456l-4.265.034q-19.824.15-39.648.225c-6.795.026-13.59.062-20.386.118q-9.823.08-19.646.097-3.763.015-7.525.055a957 957 0 0 1-10.476.039l-3.195.054c-2.848-.02-2.848-.02-6.859-.622 5.044-12.61 13.594-23.978 20.988-35.328 4.197-6.51 8.29-13.083 12.387-19.656A4941 4941 0 0 1 453 401l3.34-5.293 1.665-2.64 4.597-7.286A355 355 0 0 1 467 379c4.528 1.51 5.205 4.535 7.438 8.688l2.675 4.933 1.42 2.648c2.51 4.672 5.053 9.325 7.592 13.981l1.552 2.854a850 850 0 0 0 10.198 18.146c2.768 4.884 5.446 9.817 8.125 14.75a978 978 0 0 0 11.957 21.414c7.06 12.39 13.799 24.966 20.619 37.49a2921 2921 0 0 0 12.225 22.143c8.02 14.417 8.02 14.417 9.199 17.953-6.964 13.927-17.227 26.767-25.977 39.61A1969 1969 0 0 0 521 603l-7.348 11.02q-2.578 3.869-5.148 7.742c-6.82 10.264-13.718 20.473-20.629 30.676a6214 6214 0 0 0-32.525 48.555q-2.76 4.16-5.523 8.317a6081 6081 0 0 0-5.28 7.959c-.4.598-.4.598-2.414 3.63l-2.129 3.208c-1.901 2.745-3.796 5.387-6.004 7.893h-2c-1.186-1.824-2.269-3.716-3.312-5.625a806 806 0 0 0-10.875-18.875l-3.372-5.691-1.718-2.9q-2.57-4.34-5.133-8.686a3776 3776 0 0 0-16.43-27.614c-3.176-5.307-6.306-10.642-9.437-15.976a6945 6945 0 0 0-9.036-15.32l-1.652-2.796-11.723-19.83-1.638-2.772a6898 6898 0 0 1-9.924-16.852 2167 2167 0 0 0-11.48-19.27 1590 1590 0 0 1-7.082-11.98 2035 2035 0 0 0-11-18.5c-8.023-13.346-15.929-26.76-23.813-40.188-10.084-17.153-20.234-34.268-30.5-51.312-5.677-9.439-11.239-18.944-16.8-28.45a1899 1899 0 0 0-12.856-21.668 2246 2246 0 0 1-8.469-14.257l-1.67-2.83q-3.372-5.709-6.739-11.421a5550 5550 0 0 0-25.74-43.171 2632 2632 0 0 1-14.144-23.848q-3.359-5.694-6.77-11.356A2523 2523 0 0 1 159.5 272a2474 2474 0 0 0-11-18.5c-7.612-12.654-15.089-25.389-22.562-38.125A2151 2151 0 0 0 115 197a2459 2459 0 0 1-13.191-22.223 5321 5321 0 0 0-26.496-44.59 3888 3888 0 0 1-16.938-28.468q-3.616-6.131-7.25-12.25C43.953 77.387 36.803 65.296 29.78 53.127a388 388 0 0 0-10.188-16.583c-1.62-2.59-3.09-5.225-4.53-7.919C11.653 22.245 7.812 16.146 4 10 0 3.4 0 3.4 0 0"/><path fill="#cf6d4d" d="M1054.45-3.53c5.13.002 10.246.144 15.374.288q5.532.001 11.064-.032c8.963-.023 17.915.084 26.875.248 10.428.185 20.854.214 31.283.235 18.595.042 37.187.211 55.78.459 18.058.24 36.114.41 54.174.492l3.376.016 13.435.06a18618 18618 0 0 1 64.063.413c12.895.097 25.789.22 38.683.386q5.4.066 10.799.111c4.885.043 9.769.11 14.653.185l4.392.022c3.917.077 3.917.077 9.599.647-1.367 5.466-4.218 9.964-7 14.812l-1.797 3.155a900 900 0 0 1-11.8 20.033c-2.974 4.951-5.876 9.944-8.778 14.937-8.014 13.778-16.164 27.473-24.312 41.17q-5.163 8.694-10.313 17.393c-6.699 11.31-13.41 22.611-20.123 33.912a9918 9918 0 0 0-14.002 23.65 2840 2840 0 0 1-12.5 20.97c-3.55 5.932-7.059 11.889-10.572 17.844a2687 2687 0 0 1-11.627 19.487 1956 1956 0 0 0-9.426 15.98 2398 2398 0 0 1-9.359 15.669 4820 4820 0 0 0-11.453 19.238l-2.499 4.209a43163 43163 0 0 0-17.372 29.304c-5.245 8.854-10.5 17.702-15.754 26.55a13154 13154 0 0 0-17.54 29.605 18485 18485 0 0 1-16.664 28.148q-4.081 6.885-8.156 13.774a5056 5056 0 0 1-19.39 32.535c-6.156 10.23-12.203 20.52-18.227 30.828a2349 2349 0 0 1-15.657 26.318c-5.646 9.385-11.183 18.833-16.695 28.297a905 905 0 0 1-12.053 20.03c-3.039 4.96-5.954 9.992-8.868 15.027a1654 1654 0 0 1-13.75 23.273c-3.374 5.62-6.702 11.266-10.033 16.91a7264 7264 0 0 1-9.073 15.337 6602 6602 0 0 0-20.957 35.542 2653 2653 0 0 1-17.152 28.903 2724 2724 0 0 0-9.122 15.303q-2.08 3.511-4.169 7.016c-3.033 5.104-6.038 10.214-8.909 15.411l-2.648 4.742-2.234 4.114L976 732c-4.914-2.457-6.042-4.749-8.93-9.39-4.102-6.499-8.253-12.95-12.515-19.344l-3.325-4.989-1.674-2.508q-2.531-3.795-5.06-7.593c-5.434-8.148-10.907-16.26-16.503-24.298-3.076-4.442-6.069-8.938-9.055-13.44l-1.836-2.76a7838 7838 0 0 1-7.32-11.026c-3.959-5.962-7.984-11.875-12.032-17.777-6.335-9.236-12.554-18.546-18.75-27.875q-2.505-3.76-5.013-7.52l-3.466-5.202q-4.95-7.43-9.931-14.84l-2.222-3.313a2899 2899 0 0 0-4.303-6.395c-4.952-7.392-4.952-7.392-6.065-10.73 1.336-3.012 1.336-3.012 3.375-6.688l2.242-4.07L856 528l2.258-4.055c3.618-6.467 7.292-12.9 10.992-19.32 2.178-3.8 4.227-7.58 6.188-11.5 2.89-5.78 6.053-11.366 9.242-16.984a489 489 0 0 0 6.258-11.579c2.815-5.324 5.785-10.517 8.875-15.687 4.334-7.291 8.314-14.735 12.21-22.266a444 444 0 0 1 10.22-18.558 315 315 0 0 0 4.695-8.489 671 671 0 0 1 7.75-13.812l2.261-3.953L939 379c4.575 1.525 5.517 4.774 7.938 8.875l2.968 4.965 1.547 2.593c2.435 4.04 4.96 8.02 7.485 12.004l3.035 4.79L965 417l5.875 9.312c8.324 13.179 16.667 26.345 25.125 39.438 10 15.551 10 15.551 10 18.25-3.453.195-6.827.25-10.281.227h-3.31c-3.637 0-7.273-.016-10.909-.032l-7.533-.008a9141 9141 0 0 1-19.886-.05c-6.756-.02-13.512-.03-20.268-.04-13.271-.02-26.542-.055-39.813-.097l6.027 9.039q3.022 4.54 6.036 9.086a641 641 0 0 0 9.007 13.125c8.795 12.534 17.296 25.257 25.76 38.015A950 950 0 0 0 955 574a1229 1229 0 0 1 5.125 7.687q2.423 3.666 4.875 7.313l2.617 4.145L970 596c3.76-3.76 6.19-8.08 8.875-12.625l1.566-2.621c3.291-5.53 6.436-11.13 9.559-16.754 1.99-3.403 3.987-6.799 6-10.188l5.229-8.822q2.6-4.39 5.193-8.787c4.77-8.084 9.544-16.164 14.39-24.203a624 624 0 0 0 8.25-14.125 345 345 0 0 1 7.5-12.625c4.115-6.62 7.993-13.368 11.876-20.125 4.621-8.041 9.274-16.055 14.074-23.992 3.44-5.715 6.839-11.456 10.238-17.196l2.092-3.532L1081 410l1.833-3.098A14583 14583 0 0 0 1104 371a22636 22636 0 0 1 10-17l2.992-5.082a4055 4055 0 0 1 17.696-29.73 2959 2959 0 0 0 20.718-35.036c5.609-9.63 11.23-19.248 16.989-28.789 3.74-6.265 7.42-12.565 11.105-18.863 8.9-15.21 8.9-15.21 13-22 4.277-7.085 8.448-14.231 12.625-21.375a2802 2802 0 0 1 18.056-30.437c6.055-10.062 12.048-20.16 18.035-30.263 3.783-6.38 7.578-12.753 11.401-19.109 4.543-7.562 8.984-15.181 13.406-22.814 2.552-4.391 5.127-8.74 7.836-13.037C1280 74 1280 74 1281 71c-3.535-.295-6.9-.362-10.44-.32l-3.44.005c-3.848.009-7.695.04-11.542.07q-4.11.016-8.22.028-8.884.03-17.767.083c-9.35.055-18.7.084-28.051.108q-39.892.111-79.786.314a14522 14522 0 0 1-44.016.155q-13.964.031-27.927.132c-5.776.035-11.55.046-17.326.049q-4.04.01-8.08.05c-3.656.037-7.31.037-10.965.027l-3.288.06c-2.93-.031-2.93-.031-7.152-.761-.58-5.674 3.24-11.354 5.625-16.438l1.384-2.993Q1011.995 47.28 1014 43l1.762-3.793q1.545-3.322 3.21-6.585c1.688-3.848 2.84-7.38 3.972-11.402 5.784-18.277 12.252-24.188 31.506-24.75"/><path fill="#cf6e4e" d="M496 384c2.669-.254 2.669-.254 6.5-.26l4.393-.021 4.907.007 5.15-.016q7.118-.017 14.235-.015c5.106-.002 10.212-.015 15.319-.027 11.177-.023 22.354-.03 33.531-.035q10.455-.006 20.912-.017a66859 66859 0 0 1 69.076-.041h3.766l3.771-.001c20.183-.004 40.365-.03 60.548-.068q31.035-.057 62.068-.058c11.63 0 23.259-.009 34.888-.038q14.848-.038 29.696-.017c5.057.008 10.114.007 15.171-.016 5.466-.02 10.93-.01 16.396.008l4.914-.04 4.385.034 3.83-.002L912 384c-1.075 5.375-2.904 8.7-5.625 13.438-3.142 5.546-6.199 11.086-9 16.812a212 212 0 0 1-7.062 13.188c-3.61 6.218-6.948 12.552-10.25 18.937-3.396 6.564-6.833 13.082-10.5 19.5-3.87 6.785-7.482 13.685-11.063 20.625-4.262 8.26-8.648 16.413-13.258 24.484-2.675 4.79-5.214 9.647-7.742 14.516-3.233 6.226-6.53 12.402-10 18.5-3.447 6.058-6.725 12.191-9.937 18.375-4.152 7.987-8.452 15.876-12.848 23.73-5.06 9.122-9.968 18.326-14.9 27.516Q785.411 621.813 781 630l-3.5 6.5-7 13-1.75 3.251-3.496 6.49q-4.415 8.199-8.824 16.4a5206 5206 0 0 1-17.821 32.891c-3.425 6.27-6.81 12.561-10.18 18.862a4360 4360 0 0 1-3.84 7.163 1280 1280 0 0 0-9.034 17.08l-3.18 6.05-1.432 2.827c-1.357 2.56-1.357 2.56-3.943 6.486l-5 1c-1.71-1.98-1.71-1.98-3.375-5.187l-2.078-3.903L694 754q-1.675-3.128-3.36-6.254-3.864-7.173-7.699-14.363c-23.762-44.537-23.762-44.537-34.754-63.883-2.632-4.653-5.14-9.328-7.5-14.125-3.894-7.913-8.15-15.62-12.39-23.352-3.4-6.2-6.76-12.421-10.11-18.648l-1.755-3.26q-4.664-8.673-9.303-17.357c-6.202-11.607-12.44-23.184-18.867-34.668-3.097-5.6-6.063-11.266-9.04-16.93-2.219-4.154-4.518-8.253-6.847-12.347-2.767-4.879-5.401-9.78-7.875-14.813-2.413-4.91-4.978-9.685-7.687-14.437-3.73-6.547-7.237-13.18-10.688-19.875-3.78-7.324-7.701-14.515-11.875-21.625-3.968-6.761-7.581-13.593-11.023-20.633-4.356-8.666-9.077-17.142-13.719-25.657C496 386.938 496 386.938 496 384m109 62c.909 4.543 1.71 6.525 4.063 10.313a188 188 0 0 1 7.625 14.062c3.612 7.322 7.467 14.492 11.397 21.646 4.19 7.632 8.313 15.3 12.415 22.979a2602 2602 0 0 0 13.688 25.313c4.029 7.35 7.953 14.746 11.812 22.187 7.947 15.32 16.237 30.442 24.762 45.45 3.54 6.407 6.852 12.932 10.172 19.456L703 631h2c1.498-2.388 2.897-4.84 4.25-7.312l2.266-4.114L714 615l1.42-2.582c3.673-6.691 7.207-13.446 10.705-20.23a1208 1208 0 0 1 14.075-26.389c4.488-8.185 8.867-16.426 13.237-24.674a4085 4085 0 0 1 19.964-37.177c4.597-8.475 9.16-16.969 13.724-25.461l3.953-7.345q3.152-5.85 6.297-11.704l2.003-3.716C804 447.114 804 447.114 804 446c-2.519-.11-5.04-.144-7.562-.154l-5.078-.026-5.643-.013-5.887-.025c-6.465-.026-12.93-.041-19.396-.055l-6.657-.017q-13.834-.033-27.668-.051-19.882-.023-39.765-.107-13.95-.056-27.9-.063c-5.566-.004-11.13-.016-16.696-.048a2690 2690 0 0 0-18.594-.024l-5.65-.05-5.07.025-4.45-.01zM703 0h2c1.786 2.679 3.477 5.422 5.125 8.188l2.758 4.605 1.487 2.495c3.164 5.265 6.405 10.484 9.63 15.712l3.754 6.113c6.583 10.718 13.19 21.419 19.871 32.075a1823 1823 0 0 1 14.563 23.624c5.11 8.433 10.33 16.79 15.617 25.114 3.776 5.997 7.489 12.033 11.195 18.074a2165 2165 0 0 0 17.074 27.363A1799 1799 0 0 1 815.5 178.5c4.13 6.69 8.293 13.358 12.5 20a2272 2272 0 0 1 14.142 22.662c3.6 5.826 7.247 11.62 10.92 17.4a825 825 0 0 1 12 19.563c4.487 7.52 9.14 14.9 13.934 22.227 4.351 6.733 8.574 13.545 12.79 20.364 2.523 4.063 5.047 8.052 7.847 11.932 2.795 3.958 5.026 8.11 7.367 12.352 2.22 3.616 4.515 7.183 6.813 10.75a11060 11060 0 0 1 5.515 8.629q3.3 5.169 6.547 10.371l1.867 2.984C929 360 929 360 929 362c-2.745.242-5.503.33-8.258.37l-5.462.087-5.975.055-3.02.028q-7.917.071-15.835.105c-5.455.028-10.908.107-16.362.198-4.19.06-8.38.08-12.57.089a608 608 0 0 0-8.964.139c-5.014-.016-9.635-.098-14.554-1.071-4.125-4.309-4.125-4.309-6-9l-2.5-4.008-2.5-4.117-2.895-4.758L821 335q-3.342-5.5-6.687-11l-1.761-2.896a5600 5600 0 0 0-15.8-25.762 6459 6459 0 0 1-13.87-22.631 4991 4991 0 0 0-8.481-13.8 5311 5311 0 0 1-21.448-35.122 1615 1615 0 0 0-13.77-22.285c-3.011-4.833-5.929-9.72-8.847-14.61-3.432-5.72-6.925-11.403-10.414-17.09a1012 1012 0 0 1-6.219-10.359l-1.651-2.782a3913 3913 0 0 1-4.618-7.823C705 145 705 145 703 144l-2 5a407 407 0 0 1-5.125 8.688l-1.586 2.625c-5.029 8.303-10.121 16.566-15.216 24.827a3651 3651 0 0 0-13.26 21.673c-4.933 8.12-9.912 16.21-14.924 24.28a2262 2262 0 0 0-11.764 19.22A1870 1870 0 0 1 624.5 274c-7.276 11.601-14.404 23.288-21.5 35-7.309 12.063-14.653 24.1-22.125 36.063l-1.902 3.046A2089 2089 0 0 1 574 356l-1.655 3.27C570 362 570 362 566.109 362.735l-4.809-.022-5.45.018-5.893-.075q-3.015-.01-6.03-.011-6.312-.015-12.626-.082a1828 1828 0 0 0-16.222-.088c-4.148-.008-8.296-.028-12.443-.052q-4.452-.024-8.903-.043l-5.421-.058-4.802-.041L480 362l-1-2c1.336-2.547 1.336-2.547 3.375-5.75l2.254-3.566q4.48-6.96 8.973-13.914c2.582-4.06 5.088-8.158 7.586-12.27 5.89-9.684 11.98-19.236 18.082-28.788 6.553-10.273 13.055-20.576 19.421-30.966 7.763-12.596 15.64-25.123 23.559-37.621 4.667-7.377 9.234-14.81 13.773-22.266 7.892-12.882 15.946-25.665 24.04-38.422 5.004-7.905 9.875-15.885 14.724-23.886 4.645-7.652 9.404-15.228 14.201-22.785 6.721-10.635 13.308-21.355 19.887-32.079a1465 1465 0 0 1 7.523-12.109c7.064-11.259 14.027-22.561 20.836-33.976 3.344-5.564 6.783-11.064 10.239-16.559 3.81-6.094 7.541-12.235 11.277-18.375A209 209 0 0 1 703 0"/><path fill="#d3876d" d="m913 425 1 2-1.562 4.563c-.475 1.464-.95 2.928-1.438 4.437l2 1c-.75 3.563-.75 3.563-2 7h-2l-1 4h-2l-1 3-2 1-1 3h-3v2h2l-1 3v-2h-2l1 4 2 1-5 3 1-3-2-1c-2.014 4.027-3.133 7.593-4 12l2 1-1 3h2v2c2.844.379 2.844.379 6.5.563 2.169.113 4.337.25 6.5.437v1c2.96.138 5.925.2 8.888.237l5.876.08 6.42.07 6.517.077q6.843.079 13.687.149c5.863.06 11.725.134 17.588.212q6.734.084 13.467.152 3.244.035 6.487.08c3.017.04 6.035.068 9.052.094l5.215.058L1004 483l1-2 1 3c-3.446.3-6.717.376-10.168.34l-3.31.002a1866 1866 0 0 1-10.924-.049q-3.769-.009-7.538-.013c-6.637-.011-13.273-.04-19.91-.074-6.763-.03-13.526-.044-20.289-.06q-19.93-.05-39.861-.146l1.68 2.45 2.195 3.238 2.18 3.199C902 496 902 496 904 501c-4-2-4-2-8-6-3-2-3-2-6-2l1-4-2-1-1-2-4.187.75L880 487c1.048-5.797 4.545-10.96 7.375-16.062l1.602-2.914c4.677-8.473 9.486-16.868 14.308-25.258 3.344-5.87 6.551-11.798 9.715-17.766"/><path fill="#d07e62" d="M1173 255c1.067 4.268 1.118 6.77 0 11l-5 1v3h3l-1 2 3 1c.563 4.625.563 4.625 0 9-3.062-.187-3.062-.187-6-1l1 4a124 124 0 0 1-8 1v2h-2l-1 3-4 2c-1.047 2.82-1.047 2.82-1.75 6.125l-.734 3.32L1150 305l-2-2c-3.213 4.756-3.44 9.407-4 15l-2 4h-3v-2h-2l-2 5-2 5-4 1v6h-2l1 5c-3.375 2.438-3.375 2.438-7 4l-1-2c1.283-2.467 2.683-4.873 4.125-7.25l2.797-4.652L1130 327q2.379-4.018 4.746-8.045a2785 2785 0 0 1 14.379-24.142 1176 1176 0 0 0 11.688-19.875c3.897-6.767 7.922-13.398 12.187-19.938"/><path fill="#d0785b" d="m1245 133 2 3h-2v2.875c0 4.125 0 4.125-1.187 9.5L1243 153l3 1-1 5c-3.437 1.375-3.437 1.375-7 2l-2-1 .75 3.313.25 3.687-4 3-1 2-4-1c-2.625 2.438-2.625 2.438-5 5h-2l-1 5-3 1c2.278-5.694 5.269-10.796 8.375-16.062l1.876-3.185q1.922-3.26 3.848-6.518a990 990 0 0 0 5.424-9.368l3.227-5.554 2.922-5.075z"/><path fill="#cf7a5e" d="M713 736c6.3-.35 6.3-.35 9 1-1.69 6.554-5.15 12.378-8.312 18.313l-1.725 3.36-1.701 3.19-1.533 2.916C707 767 707 767 702 768c-2.098-2.719-2.098-2.719-4.062-6.5l-1.973-3.719L694 754l-2.309-3.844L690 747l1-2c3.188.063 3.188.063 6 1l-2 5 5 1 1 2 4-1 4 3 1-2 2-3h-2c-3-5-3-5-3-7l3-1 3-3 2 1v3h2c-1-4-1-4-4-6z"/><path fill="#d07f64" d="M1216 182c1 4 1 4-.687 7.188L1214 192l4 1h-2c-1.25 4.5-1.25 4.5-2 9h2l-1 3-5-1v4q-2.997.52-6 1l-2 4-1 2h-2l1 4-4 4h-2l-1 3h-2c1.55-3.876 3.124-7.137 5.195-10.719l1.91-3.309 2.02-3.472 2.045-3.53c4.492-7.733 9.073-15.397 13.83-22.97"/><path fill="#ce7456" d="M1266 98h3l2 5h6v5l-2 1v-3h-3v6h-2v-2h-4l-1 3-3-1 .125 3.813L1262 120c-5 2-5 2-7 2l-2 3h-2c2.319-5.797 5.29-10.936 8.438-16.312l1.775-3.112c1.509-2.578 3.14-5.084 4.787-7.576"/><path fill="#d17b5e" d="m1095 523 3 1c-1.873 4.683-4.043 8.617-6.625 12.938a882 882 0 0 0-11.879 20.597L1078 560h-1c-.187-4-.187-4 0-8h2c1.344-5.377 2.359-9.565 1-15a150 150 0 0 0-6-1l-1-3 3-4v3l3 1 1 1 1-3 5 1 2 4 3-1v-4l-2-1h3l1-2h2z"/><path fill="#d17c60" d="M514 461c3.95 3.95 6.142 8.593 8.688 13.5l1.548 2.918C528 484.624 528 484.624 528 488l-3 4v-5c-5-2-5-2-8-2l-1-3h-9l-1-3 1-2h3v-2l3.688-.625L517 473c-1.062-3.875-1.062-3.875-3-8z"/><path fill="#d27e62" d="m1043 609 4 1c-2.33 5.823-5.365 10.933-8.562 16.313l-1.827 3.11A446 446 0 0 1 1032 637h-1c-1.235-4.715-.64-7.488 1-12l-1-2 1-2-3 1-1-4 4-2v3h2v-3h2v-2h6zm-5 4 2 1Z"/><path fill="#d08267" d="M511 489h2c.75 3.875.75 3.875 1 8l-2 2-1.25 3.5c-1.75 3.5-1.75 3.5-4.937 5.063L503 508v-2h-2l-1 5c-5.24 7.747-5.24 7.747-9 9 2.139-5.347 5.044-9.688 8.313-14.375l1.724-2.5c1.646-2.38 3.304-4.753 4.963-7.125l2.793-4.102z"/><path fill="#d17759" d="m664 675 .25 3.563L665 682l5-1c.938 2.938.938 2.938 1 6h-2c-.73 1.977-1.394 3.98-2 6l-1 2h-2l-1 2a1729 1729 0 0 1-3.5-6.375l-1.969-3.586C656 684 656 684 656 682l4-1-1-3c4-3 4-3 5-3"/><path fill="#d48e77" d="M993 697h2c-.98 3.92-2.253 6.437-4.273 9.902l-2 3.448-2.102 3.587-2.078 3.577c-2.82 4.847-5.662 9.677-8.547 14.486-5.261-2.63-7.024-6.017-10-11l1-2c3 2 3 2 5 5l4-2 2 1a589 589 0 0 0 3-7h2v-2h2l-1-5 2-3h2l.438-3.5.562-3.5h3z"/><path fill="#d0866e" d="M703 0h2c1.811 2.57 3.525 5.207 5.188 7.875l2.792 4.43L715 16l-1 2-5-3v-4h-2l-1-2-1 2-3.062.313L699 12v5c-2.911 2.846-5.125 4.708-9 6 1.836-4.591 3.94-8.412 6.5-12.625l2.406-3.977A212 212 0 0 1 703 0"/><path fill="#d38a72" d="M556 537c2 1 2 1 3.387 3.602.88 4.873-.852 6.711-3.574 10.773-.92 1.39-1.841 2.78-2.79 4.21-.997 1.458-1.995 2.914-3.023 4.415l-3.086 4.602c-5.291 7.819-5.291 7.819-7.914 11.398h-1c0-5.59.086-7.525 3-12l4-1 1-5 3-1 1-5 1-2h2c.733-3.32 1.395-6.655 2-10z"/><path fill="#d08065" d="M598 170h1c.13 2.393.176 4.79.188 7.188l.042 4.042C599 185 599 185 597 190h-3v-2c-3 1.188-3 1.188-6 3v3c-2.937 2.813-2.937 2.813-6 5l-1-2a238 238 0 0 1 6.188-10.25l1.79-2.855c6.348-10.092 6.348-10.092 9.022-13.895"/><path fill="#d4967f" d="M895 613c3.438.063 3.438.063 7 1 1 5 1 5 1 8l2 2v3l3 1 1 5h2v3h2v3l3 1c1.684 2.328 1.684 2.328 3.438 5.25 1.802 2.984 3.521 5.702 5.785 8.36C927 656 927 656 927 660h2l1 5c-4.297-4.297-7.443-8.948-10.75-14l-1.895-2.87q-2.682-4.06-5.355-8.13a3335 3335 0 0 0-4.312-6.5l-1.801-2.71c-3.001-4.437-6.1-8.805-9.2-13.173C895 615 895 615 895 613"/><path fill="#d1866d" d="M425 578c4.309 4.309 6.896 9.477 9.941 14.727C437 596 437 596 439 597l2-5c4.426-6.809 4.426-6.809 8-8l1 4a146 146 0 0 1-6 5l-2.062 3.375c-.64.866-1.28 1.732-1.938 2.625-5-1-5-1-9-4v-2h-2c-3-5-3-5-3-7h-2c-1-3-1-3 1-8"/><path fill="#d28a72" d="m897 406 3 1c-1.11 4.437-3.092 7.97-5.307 11.947a432 432 0 0 0-4.834 9.01l-3.109 5.856-1.602 3.08c-1.294 2.418-2.708 4.772-4.148 7.107l-2-2v-3h2l.313-4.437L882 430l5-1-1-4 2-3h2l1-4h2v-4h2l-1.125-3.562L893 407l4 1z"/><path fill="#d07f63" d="M1105 370c1 2 1 2 0 7h-2l-2 5h2c0 5 0 5-2 9l-2 1-1 4c-5 2-5 2-7 2 .247-5.438 1.811-8.925 4.75-13.437l2.172-3.383L1100 378l3-4.812z"/><path fill="#d38c75" d="m592 563 3 1-1 2 3 1-1 3 3 1v4c2 1 2 1 5.688 1.625L608 578c-.25 3.688-.25 3.688-1 7l3-1-1 4 2 5v4h2v4l2 1-2 2c-2.006-3.423-3.805-6.824-5.562-10.375a3412 3412 0 0 0-3.239-6.379l-1.627-3.207c-2.836-5.482-5.93-10.814-9.025-16.152C592 565 592 565 592 563"/><path fill="#d28167" d="M1141 443h2l2 4c-1.026 2.597-1.026 2.597-2.797 5.492l-1.906 3.133-2.047 3.25-2 3.32c-1.648 2.667-3.437 5.247-5.25 7.805-2-2-2-2-3-6l2-1v-2l-4-1v-3l4-1v-2l4 1 5-1v-3h2z"/><path fill="#d0886e" d="M939 379c4.193 1.398 4.978 3.706 7.25 7.438l2.203 3.558L950 393l-1 2-3.062-2.562C942 390 942 390 937.688 390.938 934 393 934 393 932 397l-2-1a93 93 0 0 1 5.438-11.375l1.808-3.273z"/><path fill="#d07b60" d="M832 386c2.42-.124 4.844-.17 7.268-.193l4.802-.049c7.246-.044 14.492-.085 21.737-.108q5.759-.025 11.516-.082c5.498-.054 10.995-.077 16.493-.091l5.252-.07 4.794.01 4.26-.025L911 386c-1.258 6.29-3.79 10.45-7 16h-1c-.812-3.5-.812-3.5-1-7h4v-3l-4-1h5l1-3c-3.784-.267-7.41-.32-11.195-.258l-3.553.02c-3.793.024-7.585.067-11.377.113q-7.379.07-14.758.117l-3.632.024c-10.5.041-21.022-.078-31.485-1.016z"/><path fill="#d2876d" d="M513 609h3c-1.859 4.647-3.804 7.701-6.75 11.688-3.135 4.305-6.119 8.593-8.812 13.187-.805 1.361-1.61 2.722-2.438 4.125h-1c-.812-5.437-.812-5.437-1-11 4-1 4-1 6 0v-5h3a150 150 0 0 0 1-6h2v-2h3v-2l-2-1h3z"/><path fill="#d28b73" d="M467 379c4.765 1.588 5.681 5.43 8 9.75 2.597 4.808 5.188 9.563 8 14.25l-1 2-4-2-1.375-4.125L475 395h-6c-.187-3.937-.187-3.937 0-8-3-1-3-1-6 0 2-5 2-5 4-8"/><path fill="#d48b72" d="M815 560h3c-2.552 6.379-5.803 12.272-9.062 18.313l-1.971 3.689-1.877 3.486-1.723 3.205L802 591h-1c-.228-5.178-.345-8.31 2-13l4 1v-5l-1-1 1-5h2v2h2v-6z"/><path fill="#d38d75" d="m775 632 3 1c-1.133 5.467-4.144 10.304-6.75 15.188l-2.7 5.062L766 658l-1.957 3.688A362 362 0 0 1 760 669h-1c-.25-4.562-.25-4.562 0-9l3 1-.5-2.937L761 655h3l1-2h2l-.5-3-.5-3h2c2-4 2-4 2-8h3v-5h2z"/><path fill="#d17e64" d="M518 298h1c0 6 0 6-2 9l1 1v2h2v2h-4v2l-5 1 2 2-2 4 1 3h-4l-1-3 2-3-3 1c1.95-4.877 4.275-8.872 7.063-13.312l2.722-4.364z"/><path fill="#cc6c4d" d="m889 486 2 3-1 5-1-2c-5 1-5 1-7 3.563L880 498h-5c.888-5.258 1.51-8.866 5.875-12.187C884 485 884 485 889 486"/><path fill="#d18469" d="M0 0c4.438-.375 4.438-.375 9 0l1 3-2 3h2v4l-2 1 3 3c2 5 2 5 2 8h2v5c-4.07-5.427-7.49-11.2-11-17L1.5 5.875C0 3 0 3 0 0"/><path fill="#d2886e" d="M409 551c3.846 3.846 6.36 8.298 9.125 12.938l1.668 2.748c2.26 3.773 4.134 7.022 5.207 11.314l-2 2-.875-3.437L421 573l-4 1-5-2a196 196 0 0 1 2-9l-3-3c-2-5-2-5-2-9"/><path fill="#d18a72" d="m452 403 2 4c-1.75 2.375-1.75 2.375-4 5l-.937 3c-1.294 3.653-3.351 5.288-6.063 8l-1 5-3 1c-1.687 3.563-1.687 3.563-3 7l-2-3c2.122-5.304 4.802-9.625 7.875-14.437l3.18-4.997L448 409l2.258-3.848z"/><path fill="#d18e77" d="M381 20h2c1.485 2.809 2.86 5.676 4.188 8.563l2.41 5.218L392 39l2.184 4.531 1.941 4.032 1.758 3.628L399 54l-1 2-2-1v-2l-4-2 1-4h-2c-2-4-2-4-2-10h-2v-4h-2l-.937-4.062L383 25l-3 1c.188-2.937.188-2.937 1-6"/><path fill="#d38a71" d="m1009 665 2 1v2l2 1c-1.134 2.5-1.134 2.5-3.05 5.785l-2.057 3.545-2.206 3.732-2.17 3.745c-3.881 6.646-3.881 6.646-5.517 9.193h-1c-1.222-8.556-1.222-8.556 0-11h4v-3l4-1-2-5h4l-1-3c1.313-3.75 1.313-3.75 3-7"/><path fill="#d28469" d="m394 666 4 1h3l1 3 5-1c-.146 4.822-1.054 9.272-2 14l2 1-2 2c-2.348-3.418-2.348-3.418-5.062-8.187l-2.723-4.731C395 669 395 669 394 666"/><path fill="#d07f63" d="M852 535h1l-.125 3.438L853 542l3 1 2-1v4h4l-1 5-5-1v2c-4-1-4-1-6.5-4.562-1.5-4.438-1.5-4.438.188-8.938z"/><path fill="#d18d75" d="m457 690 2 1c-.196 5.382-2.501 8.775-5.473 13.148l-2.724 4.043-2.865 4.184-2.877 4.254Q441.543 721.823 438 727l-1-4h2v-6h4v-3h2l-.062-3.5.062-3.5h3l1-2h2l.438-3.5.562-3.5h3v-4h2z"/><path fill="#d0876d" d="M1389 25h2c1.116 5.579.825 6.13-1.93 10.738l-1.91 3.233-2.035 3.342-2.012 3.4c-1.663 2.787-3.383 5.54-5.113 8.287h-1c-.187-4-.187-4 0-8h2v-5h4l-1-5 4-1c1.188-3.375 1.188-3.375 2-7z"/><path fill="#d39078" d="M1138 314c1 4 1 4-1.375 8l-2.625 4-1 4-4 1v6h-2l1 5c-3.375 2.438-3.375 2.438-7 4l-1-2c1.388-2.654 2.89-5.248 4.438-7.812.913-1.522 1.827-3.043 2.769-4.61l5.242-8.594q2.76-4.5 5.551-8.984"/><path fill="#d28a71" d="m30 52 4 1-1 3h2v3l2 1 4 4 3-1 2 2-1 3 1 4-1 4 2 1-2 2c-2.207-3.242-2.207-3.242-4.812-7.875-2.599-4.583-5.187-9.123-8.012-13.57C30 54 30 54 30 52"/><path fill="#d28d74" d="M548 250c1.036 4.143 1.233 5.972 0 10a476 476 0 0 1-6 5 118 118 0 0 0-3 7l-3 3v3l-5 1c1.653-4.133 3.35-7.386 5.688-11.125l2.136-3.426Q543.388 257.21 548 250"/><path fill="#d69a83" d="M872 579c3.782 1.26 5.37 3.032 8 6l2 5 2.563 3.563C887 597 887 597 888 601h2l2 6 3 3-1 3a4147 4147 0 0 1-6.133-8.852q-2.279-3.301-4.57-6.596a3529 3529 0 0 1-5.36-7.74l-3.41-4.917C872 581 872 581 872 579"/><path fill="#d18469" d="m1228 162 4 1c1.444 6.111 1.444 6.111 0 9l-4-1c-2.625 2.438-2.625 2.438-5 5h-2l-1 5-3 1c1.835-4.587 3.908-8.605 6.375-12.875l2.336-4.117z"/><path fill="#d18a71" d="M1339 112h3c-1.356 5.425-4.17 9.882-6.937 14.688l-1.67 2.955c-4.142 7.232-4.142 7.232-6.393 8.357v-4h2v-4l-2-1h4l-1-5 3-3h2l-1-3 2-2h3z"/><path fill="#d59a85" d="m816 325 4 2 1 5 2 1c2 2 2 2 2 6l3 1 1 5h2v3l4 2v5l4 2v4c-4.377-1.459-5.018-4.574-7.05-8.477-3.187-5.759-6.853-11.202-10.462-16.703C816 327.394 816 327.394 816 325"/><path fill="#d38f77" d="M871 460c-1.117 5.587-3.187 9.483-5.875 14.5l-2.68 5.031A275 275 0 0 1 857 489c-1.559-3.118-.677-5.678 0-9h2l-1-4 3 1v-2h2v-8h2l1-5c3-2 3-2 5-2"/><path fill="#d49076" d="m505 319 1 2c-2.344 6.563-2.344 6.563-6 9v5l-5 2c.313 3.438.313 3.438 1 7l-2 3-5-1c2.044-5.11 4.555-9.38 7.438-14.062l2.933-4.786C502 323 502 323 505 319"/><path fill="#cf785a" d="M783 485h3c2 5 2 5 2 9l-5 5-4-1c-1-5-1-5 1.25-9.312z"/><path fill="#d18368" d="M1408 1c-1.757 4.391-3.72 8.22-6.062 12.313l-2.16 3.8L1398 20h-1v-9l-1-3h2V6l3-1 1-3c2-1 2-1 6-1"/><path fill="#d38d75" d="M556 497h3v4c3 1.125 3 1.125 6 2v2l3 2c.125 3.563.125 3.563 0 7l1 1v6c-3.036-4.048-5.27-8.088-7.625-12.562l-2.414-4.567C557 500 557 500 556 497"/><path fill="#d29079" d="M498 432c3.32 4.426 5.918 9.097 8.563 13.938l1.498 2.708c2.232 4.07 4.212 8.038 5.939 12.354-3-1-3-1-6-6l-3-2-.5-3.062L504 447l-3-1v-5h-2q-.624-4.487-1-9"/><path fill="#d38b73" d="m1219 313 4 1c-1.847 3.844-3.803 7.36-6 11l-3.812 6.688A146 146 0 0 1 1210 337h-1c-.687-4-.687-4-1-8h2l1-3 1 1-.312-3.625L1212 320l5 2v-3h2l-1-4z"/><path fill="#d28a72" d="m484 529 1 4-3 4-2 5c-2 4-2 4-4 5v2h-3l1 3-4-1c2.02-5.049 4.46-8.8 7.563-13.25l3.003-4.328C483 530 483 530 484 529"/><path fill="#d58f76" d="M529 488c3.389 3.955 5.855 8.101 8.313 12.688l2.175 4.011L541 508l-1 2-3-1 1-4a119 119 0 0 0-7-2l-2-3 2-5h-2c-.125-3.5-.125-3.5 0-7"/><path fill="#d49078" d="m849 493 4 2c-2.186 5.466-4.832 10.607-7.562 15.813l-1.538 2.966A385 385 0 0 1 840 521h-1c-.135-4.596-.119-8.526 1-13h5v-3h2v-4h2a236 236 0 0 0-1-7z"/><path fill="#d58f76" d="M522 433c3 1 3 1 5 5h6l2 3-4 4c1 5 1 5 4 8l-2 3c-1.84-3.031-1.84-3.031-3.937-7.5-2.211-4.661-4.405-9.07-7.063-13.5z"/><path fill="#d2896f" d="M864 514c1.295 5.181-.276 8.043-2 13 1 1 1 1 4 2v2c-3 1-3 1-6.125.375L857 531l-1 3-3 1c1.893-4.731 4.108-8.89 6.625-13.312l2.477-4.364z"/><path fill="#cf7e62" d="M1259 110h2c1.684 3.368 1.345 6.322 1 10-5 2-5 2-7 2l-2 3h-2c2.204-5.511 4.802-10.004 8-15"/><path fill="#d18a73" d="M711 753h2c-1.26 6.296-3.307 9.744-7 15l-5-1-3-5 1-3 2 1 1 3h3v-2h2l1-4c2-3 2-3 3-4"/><path fill="#d28870" d="m1085 539 3 2c-1.757 4.391-3.72 8.22-6.062 12.313l-2.16 3.8L1078 560h-1c-.187-4-.187-4 0-8h2l1-4c1.438-3.75 1.438-3.75 3-7h2z"/><path fill="#d2856b" d="M300 507h3v2l4-2h5l-1.937 2.688C308 513 308 513 307 518h3l1 4-2 2c-2.164-3.016-2.164-3.016-4.625-7.25l-2.477-4.203C300 509 300 509 300 507"/><path fill="#d59982" d="M792 286h3v4h2v3l2 1c2.958 2.958 4.218 5.28 6 9l2 3v3l2 1 2 3-1 4-2.922-4.82-3.828-6.305-1.922-3.172c-2.528-4.16-5.048-8.29-7.781-12.32C792 288 792 288 792 286"/><path fill="#d18a72" d="M340 434c3.539 3.539 5.658 7.244 8.188 11.563l2.73 4.628C353 454 353 454 353 456l-5-2v-3l-3-1c-2.987-5.137-5-10.035-5-16"/><path fill="#d38f77" d="M929 396c1.116 4.463.457 5.812-1 10l1 2h-2l-.875 2.938L925 414l-4 1v2l-3 1c1.93-4.824 4.178-9.233 6.625-13.812l2.477-4.645z"/><path fill="#d59782" d="M703 142h4v4h2l3 4h2v6a117 117 0 0 0 4 5l1 5 3 1 1 3h-3c-1.686-2.28-1.686-2.28-3.504-5.434l-1.994-3.404-2.064-3.6a2045 2045 0 0 0-4.067-6.996l-1.815-3.158C705 145 705 145 703 144z"/><path fill="#d3896f" d="M531 587c-2.659 6.115-7.092 11.618-11 17h-1c-.75-3-.75-3-1-6h3v-3h2l-1-4 1-3c3-1 3-1 8-1"/><path fill="#d18a72" d="m1352 88 4 1c-1.987 4.968-4.34 9.36-7 14l-2.687 4.75L1344 111l-2-3 1-3 1 1 1-2h2l-.5-3-.5-3h2l1-3 1-3h2z"/><path fill="#d17b5d" d="m777 496 1 4 1 3 3 1v4h-2v2h-6c-1.125-3.062-1.125-3.062-1-7 1.938-3.937 1.938-3.937 4-7"/><path fill="#d38e77" d="M1127 474c-1.044 5.22-2.68 8.182-5.437 12.688l-2.434 4.011C1117 494 1117 494 1115 496c-.687-4-.687-4-1-8h3l1-5h2l1-2h2l-1-5c3-2 3-2 5-2"/><path fill="#d17659" d="M773 626c4.188.625 4.188.625 8 2l-2 5-4-1v2h-2l1 3-1 2h-2c-1.208-5.133-1.027-6.932 1-12z"/><path fill="#d3886f" d="M381 503c4.014 4.632 7.02 9.662 10 15l-1 2-5-1-1-3h-2l1-4h-3c.313-4.5.313-4.5 1-9"/><path fill="#cf765a" d="M1144 306c1.411 4.233.66 7.626 0 12l-2 4h-3c-1.205-4.822-.537-7.314 1-12z"/><path fill="#d59883" d="m722 171 4 2q.55 2.992 1 6l3 1c2 4 2 4 2 7h2l1 5h2v3l2 1 1 5c-3.167-3.167-5.043-6.209-7.312-10.062l-2.391-4.047L728 183a4476 4476 0 0 0-3.562-5.812C722 173 722 173 722 171"/><path fill="#d0876d" d="m1028 16 2 4-1 2h-2v6l-4 2v4l-4 1c1.968-6.199 4.163-12.142 7-18z"/><path fill="#d08269" d="M635 507h2c1.762 2.738 1.762 2.738 3.688 6.313l1.949 3.55C644 520 644 520 643 523h-3l1-4h-3v-2l-3 1c-.312-5.437-.312-5.437 0-11"/><path fill="#d4937b" d="M778 263h3v4h2v3l3 1 2 5 4 2c.875 3 .875 3 1 6l-2 2c-2.531-3.566-2.531-3.566-5.5-8.562l-2.969-4.942C780 268 780 268 778 263"/><path fill="#d28c73" d="M758 226h1v5l3 1 1 2 5 1-1 4 1.063 3.125L769 245l-2 2c-2.094-2.945-2.094-2.945-4.5-7.125l-2.406-4.133A189 189 0 0 1 756 228z"/></svg>