<svg xmlns="http://www.w3.org/2000/svg" width="1408" height="768"><path fill="#cf6f4f" d="M741.075 111.99c12.159-.12 24.285.393 36.425 1.01l3.388.164c24.36 1.19 48.635 3.128 72.848 6.063l5.283.606 4.768.63 4.172.533L871 122c.805 4.026 1.125 7.162 1.126 11.203l.008 3.808-.007 4.175.005 4.44c.004 4.93 0 9.86-.003 14.789l.006 10.579q.004 14.385 0 28.77-.003 13.505 0 27.01.004 28.369-.006 56.737-.005 24.368.001 48.734.01 28.275.005 56.55-.003 14.976.001 29.952.004 14.07-.005 28.14l.002 10.36q.002 7.038-.006 14.075l.007 4.202c-.02 9.362-.02 9.362-1.134 10.476-3.13-.504-6.258-1.02-9.379-1.58-104.307-18.685-104.307-18.685-133.981.033-6.365 6.14-6.52 14.455-6.78 22.86.376 21.786 3.899 43.417 7.03 64.935 7.375 52.438 7.375 52.438-1.366 70.478-7.35 9.532-20.231 11.155-31.46 12.875-21.497 2.535-43.006 1.903-64.564.649l-3.4-.19c-24.38-1.376-48.646-3.617-72.836-6.97-1.744-.23-3.487-.462-5.283-.7l-4.768-.719-4.172-.612L537 646c-.823-4.116-1.127-7.368-1.131-11.51l-.012-4.015.003-4.406-.01-4.684q-.01-7.803-.011-15.604l-.015-11.16q-.019-15.18-.024-30.358l-.012-18.945a104118 104118 0 0 1-.026-55.817v-3.397l-.002-6.815v-3.415q-.009-27.418-.046-54.836-.035-28.132-.037-56.265.001-15.803-.025-31.605-.024-14.85-.01-29.7.002-5.466-.013-10.93c-.013-4.953-.007-9.907.004-14.86l-.025-4.42.02-4-.002-3.467C536 263 536 263 539 260c3.19-.367 3.19-.367 7.207-.356l4.58-.01 5.025.038 5.28.006c5.637.01 11.272.041 16.908.072q5.373.01 10.746.016l5.46.029q5.573 0 11.146-.12c10.535-.139 20.337.47 30.732 2.28 35.52 6.115 35.52 6.115 46.916-.955 3.11-10.218 1.205-19.943-.594-30.309l-.787-4.637a1554 1554 0 0 0-3.503-19.384c-11.055-60.261-11.055-60.261 3.08-81.8 13.683-14.002 41.391-12.528 59.88-12.88M724 163a341 341 0 0 0-.177 10.499l-.02 3.346c-.02 3.671-.031 7.343-.041 11.014l-.013 3.79q-.03 9.93-.044 19.858a5024 5024 0 0 1-.085 20.543c-.026 5.255-.035 10.51-.038 15.766q-.008 3.786-.035 7.574c-.025 3.531-.024 7.062-.017 10.593l-.039 3.171c.031 4.316.174 7.284 2.413 11.035C728 282 728 282 730 282l2 4a367 367 0 0 0 8.687 8.75A298 298 0 0 1 757 312a794 794 0 0 0 8.375 8.375c7.515 7.405 7.515 7.405 8.625 9.625h2l2 4a367 367 0 0 0 8.687 8.75A304 304 0 0 1 803 360a916 916 0 0 0 11.379 10.828L817 374c-2.094 4.189-4.373 6.778-7.563 10.187l-3.238 3.47a369 369 0 0 1-8.449 8.53C794 400 794 400 794 402h-2c-1.52 1.731-3.03 3.47-4.516 5.23-4.57 5.095-9.552 9.796-14.449 14.575C770 425 770 425 770 427h-2a285 285 0 0 0-4.914 5.629c-2.235 2.54-4.6 4.887-7.024 7.246C752 444 752 444 752 446c2.954.247 2.954.247 7.144.243l4.723.01 5.16-.023h5.24q5.5-.006 11.003-.024c5.639-.018 11.277-.02 16.916-.02l10.654-.018 5.154-.003 4.732-.02 4.193-.011C830 446 830 446 831 445c.1-3.598.134-7.176.127-10.775l.005-3.475c.004-3.876 0-7.751-.003-11.627l.006-8.296q.004-11.302 0-22.605c-.003-7.866 0-15.733 0-23.6q.004-19.822-.005-39.644-.007-22.95.002-45.9.007-19.665.003-39.332-.003-11.763.001-23.525.004-11.057-.005-22.114l.002-8.14q.002-5.533-.006-11.065l.007-3.294c-.02-7.38-.02-7.38-1.134-9.608-3.24-.195-6.49-.245-9.736-.243l-3.1-.006c-3.398-.003-6.797.007-10.195.019h-7.051q-7.4.003-14.8.024-9.509.024-19.017.02-7.282.001-14.566.013l-7.014.006q-4.892.004-9.785.022l-5.636.011C725 162 725 162 724 163M577 302a541 541 0 0 0-.13 13.225l-.005 4.222q-.004 6.948.002 13.897l-.003 9.607q-.002 10.083.006 20.166.006 12.96-.004 25.918-.005 9.924 0 19.847l-.002 9.56q-.003 6.667.007 13.333l-.007 4.037c.022 9.074.022 9.074 1.136 10.188 2.392.11 4.787.15 7.182.161l4.671.03 5.088.012 5.175.017q5.43.014 10.857.02c5.569.01 11.137.041 16.705.072q5.257.01 10.513.016l5.095.038 4.662-.01 4.136.011c.962-.12 1.924-.242 2.916-.367 0-3 0-3-1.941-5.2l-2.622-2.488c-3.022-2.93-5.868-5.81-8.625-9-4.977-5.63-10.325-10.846-15.68-16.117C623 410 623 410 622 408h-2v-2h-2l-2-4c-3.843-3.96-7.767-7.81-11.729-11.65-5.258-5.16-9.876-10.433-14.271-16.35h2v-2l3-1a301 301 0 0 0 4.617-5.332c4.283-4.795 8.962-9.207 13.567-13.691C616 349 616 349 616 347h2a285 285 0 0 0 4.914-5.629c2.235-2.54 4.6-4.887 7.023-7.246C634 330 634 330 634 328h2v-2h2a321 321 0 0 0 4.582-5.3c4.285-4.784 8.981-9.17 13.602-13.626C659 304 659 304 659 301c-3.068-.367-3.068-.367-7.42-.356l-4.904-.01-5.36.038-5.44.006q-5.715.01-11.428.04c-5.856.032-11.711.042-17.567.048l-11.065.03-5.353.014-4.914.029-4.354.02C578 301 578 301 577 302m126 13c-3.714 3.357-6.973 6.968-10.25 10.75-2.994 3.393-6.037 6.572-9.25 9.75-3.089 3.055-6.018 6.095-8.875 9.375-4.3 4.892-8.902 9.414-13.527 13.996-3.546 3.582-6.825 7.3-10.098 11.129l-4 4c1.262 5.048 3.393 6.663 7.125 10.25 4.868 4.752 9.395 9.63 13.875 14.75a998 998 0 0 0 10.11 10.047C681 412 681 412 684 416h2l2 4h2l2 4a106 106 0 0 0 4.437 4.562l2.372 2.317L701 433l3 3c5.5-3.913 9.6-8.928 14-14a503 503 0 0 1 5-5c2.945-2.91 5.71-5.814 8.437-8.938 3.93-4.48 8.119-8.602 12.403-12.742C746 393 746 393 746 391h2v-2l4-2a300 300 0 0 0 7-8l2-2c-1.356-5.423-4.257-7.738-8.125-11.75-4.02-4.187-7.966-8.356-11.742-12.766L738 349h-2v-2h-2l-2-4c-3.022-3.14-6.07-6.21-9.188-9.25-9.515-9.319-9.515-9.319-13.738-14.297C706 316 706 316 703 315M577 487c-.1 3.65-.136 7.28-.13 10.93l-.005 3.483q-.004 5.73.002 11.462 0 3.963-.003 7.925-.002 8.317.006 16.636.006 10.689-.004 21.378-.005 8.186 0 16.373l-.002 7.885a4966 4966 0 0 0 .007 10.998l-.007 3.328c.022 7.488.022 7.488 1.136 8.602 3.244.1 6.49.128 9.736.13l3.1.005q5.098.004 10.195-.002l7.051.003q7.4.001 14.8-.006 9.509-.006 19.017.004 7.282.005 14.566 0l7.014.002q4.893.003 9.785-.007l5.636-.002C683 606 683 606 684 605c.1-3.65.136-7.28.13-10.93l.005-3.483q.004-5.73-.002-11.462 0-3.963.003-7.925.001-8.317-.006-16.636-.006-10.689.004-21.378.005-8.186 0-16.373l.002-7.885q.003-5.499-.007-10.998l.007-3.328c-.022-7.488-.022-7.488-1.136-8.602-3.244-.1-6.49-.128-9.736-.13l-3.1-.005a4448 4448 0 0 0-10.195.002l-7.051-.003q-7.4-.002-14.8.006-9.509.006-19.017-.004-7.282-.005-14.566 0l-7.014-.002a3930 3930 0 0 0-9.785.007l-5.636.002C578 486 578 486 577 487"/><path fill="#d29b87" d="m547.141 259.583 3.343.019 3.425-.01q3.581-.002 7.162.017c3.678.016 7.356 0 11.034-.02q3.471.004 6.942.013l3.367-.019c2.533.024 5.063.2 7.586.417l-1 3c-2.857.356-2.857.356-6.684.328l-4.255-.015-4.499-.063-4.298-.016-4.323-.03c-1.373.02-2.747.042-4.162.065C556 263 556 263 551.364 261.529c-5.503-1.47-8.17-2.017-13.364.471-4.969 10.38-4.28 23.796-4.98 35.045q-.446 5.66-.908 11.32c-2.67 34.386-4.076 68.895-5.176 103.364q-.224 6.915-.456 13.83l-.116 3.473c-.604 17.48-1.798 34.855-3.31 52.278-2.278 26.613-3.785 53.156-3.753 79.874v3.167c.164 60.631.164 60.631 18.699 80.649 24.618 18.018 60.072 17.366 89.285 16.97 3.296-.033 6.59-.023 9.886-.001 64.091.308 64.091.308 85.829-16.969 16.477-21.287 13.028-54.207 11.5-79.437q-.143-3.756-.258-7.512c-.444-12.677-2.245-24.771-4.836-37.172q-.94-5.19-1.844-10.388a762 762 0 0 0-4.168-21.885L723 486l1-1c4.483.296 8.949.654 13.424 1.045 117.83 9.62 117.83 9.62 135.716-4.258 9.068-13.114 5.77-28.907 3.136-43.644-1.665-7.885-3.827-15.504-6.42-23.131C869 412 869 412 870 410h2c.247 2.84.247 2.84.243 6.869l.01 4.54-.023 4.962v5.037q-.006 5.29-.024 10.58c-.018 5.422-.02 10.843-.02 16.264q-.007 5.123-.018 10.244l-.003 4.956-.02 4.55-.011 4.03C872 485 872 485 871 486c-3.13-.504-6.258-1.02-9.379-1.58-104.307-18.685-104.307-18.685-133.981.033-6.365 6.14-6.52 14.455-6.78 22.86.376 21.786 3.899 43.417 7.03 64.935 7.375 52.438 7.375 52.438-1.366 70.478-7.35 9.532-20.231 11.155-31.46 12.875-21.497 2.535-43.006 1.903-64.564.649l-3.4-.19c-24.38-1.376-48.646-3.617-72.836-6.97l-5.283-.7-4.768-.719-4.172-.612L537 646c-.823-4.116-1.127-7.368-1.131-11.51l-.012-4.015.003-4.406-.01-4.684q-.01-7.803-.011-15.604l-.015-11.16q-.019-15.18-.024-30.358l-.012-18.945a104000 104000 0 0 1-.027-59.214l-.001-6.815v-3.415a51880 51880 0 0 0-.046-54.836q-.035-28.133-.037-56.265.001-15.803-.025-31.605-.024-14.85-.01-29.7.002-5.466-.013-10.93c-.013-4.953-.007-9.907.004-14.86l-.025-4.42.02-4-.002-3.467c.91-6.787 5.832-6.155 11.515-6.208"/><path fill="#ce9d8c" d="m584.916 299.839 5.157-.03 5.618-.012 5.713-.017q5.994-.015 11.987-.02c5.138-.006 10.275-.03 15.413-.058 4.88-.023 9.758-.025 14.637-.03l5.625-.038 5.147.01 4.567-.011c1.062.12 2.125.242 3.22.367v3l-3 1v-3c-20.6-8.609-51.451-13.953-72.712-5.92-8.57 5.31-10.948 11.646-13.365 21.015C564.85 352.878 560.505 410.285 578 445c6.438 7.219 12.965 9.038 22.385 10.012 17.428.135 34.795-3.81 51.331-9.05C655 445 655 445 658 445v2c-21.417 8.414-51.79 15.082-73.948 6.943-5.86-3.65-8.446-6.924-10.406-13.403-4.888-21.616-3.707-44.496-2.834-66.478l.207-5.283c2.88-68.89 2.88-68.89 13.897-68.94"/><path fill="#d4927a" d="M782 338c6.527 5.439 12.574 11.185 18.125 17.625 4.782 5.399 9.994 10.272 15.254 15.203L818 374c-2.094 4.189-4.373 6.778-7.562 10.188l-3.243 3.468a434 434 0 0 1-8.383 8.531C795 400 795 400 794 402h-2l-1 3-3-4h5v-5l4-1v-4h2v-2c3-2 3-2 6-2v-4h2v-2h2v-2h4l-1-3h3v-2l-5-1c-2-1-2-1-4-5l-2-2v-3l-4-1c-3-5-3-5-3-7h-2l-3-5-4-4h-3v-2h-2c-.625-3-.625-3-1-6"/><path fill="#d2886e" d="m685 329 4 2c-1.55 2.102-1.55 2.102-4.312 4.625-3.175 2.99-6.135 5.889-9 9.188a374 374 0 0 1-10.5 11.437l-3.395 3.578L659 362l-2-4 3-3 2.438-3.125C665 349 665 349 669 348l2-4 2-3h2v-2h2l2-4 4-2v-2h2z"/><path fill="#d28a70" d="m777 413 4 2c-1.762 2.313-1.762 2.313-4.687 5-5.262 4.899-5.262 4.899-6.313 7h-2l-2 4a208 208 0 0 1-6.5 6.75l-3.531 3.547C753 444 753 444 751 444l1-5 3-1 2-5h4l1-4 1-2h2v-2h2l2-4h2v-2h4v-4h2z"/><path fill="#cd7657" d="M652 440h5l1 2 2 1c-.396 3.518-.396 3.518-2 7-3.316.81-3.316.81-7.663.719l-4.913-.053-5.338-.166-5.44-.09c-5.758-.104-11.514-.257-17.271-.41a7300 7300 0 0 0-11.68-.215c-7.097-.138-14.195-.282-21.291-.469l-4.342-.11L577 449v-1c2.483-.08 4.968-.085 7.451-.066l4.924.03 5.379.044 11.088.05q8.812.046 17.627.113c5.636.042 11.273.066 16.91.087l5.385.056 4.914.01c.72.006.72.006 4.367.03L658 448c-1.231-3.694-3.208-5.351-6-8"/><path fill="#d38a70" d="M699 313c3.97-.195 7.21-.263 11 1v2h2l-1 4 2 1h-3l-2.437-2.625L705 316c-5.519 2.76-8.624 7.028-12.637 11.64L690 330l-1-2-2-1 3-1-1-2h3v-3h2v-2h3v-4h2z"/><path fill="#d38b71" d="M807 381h2c0 5 0 5-3.027 8.48l-3.91 3.707c-7.005 6.696-7.005 6.696-8.063 8.813h-2l-1 3-3-4h5v-5l4-1v-4h2v-2c3-2 3-2 6-2v-4h2z"/><path fill="#f1bca8" d="m656 444 2 1v2c-3.082.254-3.082.254-7.451.259l-4.924.019-5.379-.012-5.455.005q-5.726.002-11.453-.01c-5.878-.011-11.755 0-17.633.012q-5.543 0-11.084-.007l-5.385.012-4.914-.02c-1.441 0-2.882-.002-4.367-.004L577 447l1-2c3.037-.234 3.037-.234 7.166-.211l4.662.01 5.078.04 5.168.017c5.475.017 10.95.049 16.426.082q8.212.042 16.426.07 5.124.019 10.246.054l4.662.02 4.13.025C655 445 655 445 656 444"/><path fill="#ca8b75" d="M557 260c3.159-.388 3.159-.388 7.352-.398l4.515-.012 4.758.035 4.781-.035 4.508.012 4.186.01 2.9.388-1 3c-3.159.388-3.159.388-7.352.398l-4.515.012-4.758-.035-4.781.035-4.508-.012-4.186-.01L556 263z"/><path fill="#d89f89" d="m651 311 1 4c-2.809 3.37-5.044 5.022-9 7l-3 5-3 1v2h-2v3l-5 1a125 125 0 0 1 4-6h2v-2h2l1-3h2l2-4a361 361 0 0 1 8-8"/></svg>