<svg xmlns="http://www.w3.org/2000/svg" width="1408" height="768"><path fill="#cd6c4a" d="m575.854 139.84 3.429-.016c3.811-.016 7.623-.024 11.434-.033l8.174-.03q13.449-.043 26.898-.07l4.62-.01q21.555-.047 43.111-.074 27.593-.031 55.184-.133c12.927-.048 25.853-.072 38.78-.08 7.724-.004 15.448-.02 23.172-.059 7.267-.037 14.534-.045 21.801-.032q4 0 8-.032c3.643-.027 7.284-.018 10.927 0l3.192-.05c7.46.095 11.656 2.15 17.424 6.779 4.126 5.26 5.18 8.664 4.636 15.245l-.311 3.965-.354 4.36c-1.178 15.425-2 30.847-2.62 46.305-.389 9.38-.91 18.714-1.728 28.067C847.06 297.48 847.06 297.48 857 310c16.702 9.837 42.2 4.63 60.23 1.406 10.766-1.86 10.766-1.86 16.645.798 5.86 5.243 8.938 9.435 9.392 17.595l.024 5.923.02 3.274c.019 3.57.023 7.14.025 10.711l.02 7.454q.017 7.815.015 15.628c0 6.668.027 13.336.061 20.004.022 5.133.026 10.265.025 15.398q.005 3.687.027 7.374c.02 3.442.014 6.883.002 10.325l.008 5.93c-.676 7.086-2.82 11.372-7.619 16.555-8.962 6.07-18.835 4.526-29.07 3.652q-4.395-.273-8.79-.525c-4.609-.265-9.197-.57-13.793-1.002-20.493-1.87-20.493-1.87-27.222 1.5-4.295 5.302-5.209 10.582-5.06 17.29.95 4.366 1.905 6.522 5.06 9.71 14.376 4.83 31.798 2.376 46.759 1.563 8.404-.429 16.816-.645 25.228-.887 4.484-.13 8.961-.316 13.442-.55l6.186-.265 5.43-.28c5.834.493 9.128 2.17 13.955 5.419 5.849 7.067 6.132 11.513 6.177 20.587l.02 3.302c.02 3.614.031 7.228.041 10.841l.013 3.74q.03 9.798.044 19.596c.011 6.744.046 13.488.085 20.232.026 5.188.035 10.376.038 15.563q.008 3.729.035 7.458c.025 3.483.024 6.964.017 10.447l.039 3.1c-.046 6.38-1.092 10.738-4.509 16.134-6.836 5.784-10.531 7.124-19.312 7.134l-5.386.014h-5.97q-3.152.004-6.302.01-8.689.014-17.378.017-9.36.007-18.718.022c-15.078.02-30.156.03-45.234.039l-21.286.015a170699 170699 0 0 1-89.096.044l-4.61.002c-24.658.008-49.316.033-73.974.066q-37.949.049-75.896.054c-14.212.002-28.423.011-42.634.036q-18.15.034-36.301.02c-6.176-.004-12.352-.002-18.528.017q-8.478.026-16.957.001c-3.017-.003-6.034.013-9.051.03l-5.426-.026-4.68.003c-7.047-.824-11.145-3.18-15.699-8.56-3.872-5.95-3.732-10.698-3.77-17.6l-.03-3.328q-.044-5.461-.07-10.924l-.02-3.769a9908 9908 0 0 1-.077-19.755 2772 2772 0 0 0-.103-16.342c-.06-6.578-.09-13.156-.1-19.734q-.014-3.758-.057-7.514c-.039-3.511-.04-7.021-.032-10.533l-.06-3.118c.074-7.422 2.166-11.58 6.757-17.321 7.354-5.883 14.663-5.082 23.692-4.939l4.317.056q4.698.06 9.394.127c8.703.123 17.406.228 26.108.335l5.629.07c24.73.303 49.462.475 74.194.646q7.825.054 15.65.113l3.146.023c16.853.127 33.703.346 50.555.598 17.285.256 34.568.409 51.854.47 9.714.039 19.423.126 29.135.325 9.126.186 18.244.248 27.371.212q5.043.013 10.082.17c20.805.615 20.805.615 26.873-3.206 3.819-6.552 3.449-13.62 2.201-20.893-1.253-4.403-1.707-5.726-5.408-8.577-4.989-.917-9.44-.833-14.506-.548l-5.705.003c-5.193.005-10.37.177-15.559.376-5.417.18-10.835.205-16.255.245-10.281.1-20.555.334-30.833.62-13.947.38-27.896.57-41.847.767l-10.042.144-3.29.047q-9.687.146-19.373.386-4.578.113-9.157.212-5.585.125-11.168.291l-4.971.106-4.319.115c-5.942-.463-8.887-2.396-13.018-6.606-4.982-6.681-5.008-12.168-5.04-20.432l-.02-3.244c-.02-3.533-.024-7.065-.026-10.598l-.02-7.383q-.017-7.734-.015-15.468c0-6.6-.027-13.2-.061-19.799-.022-5.082-.026-10.164-.025-15.246q-.005-3.65-.027-7.299c-.02-3.406-.014-6.81-.002-10.217l-.008-5.866c.648-6.738 2.523-11.165 7.306-15.948 6.512-4.47 11.502-5.55 19.382-5.322l5.638.135 6.158.195 6.505.164q6.995.174 13.988.364c7.364.193 14.728.337 22.093.468l3.766.066q5.737.102 11.476.201c15.86.276 31.717.588 47.572 1.061a1877 1877 0 0 0 34.707.723c6.13.074 12.249.198 18.374.44 31.356 1.209 31.356 1.209 40.529-2.683 4.235-5.703 3.774-11.43 3.237-18.25-1.25-7.053-1.25-7.053-3.237-9.75-4.003.12-4.003.12-9 1-3.506.092-7.013.135-10.52.14l-3.1.01q-5.111.01-10.224.011l-7.354.015q-9.967.019-19.933.024-6.23.005-12.457.012-19.492.02-38.985.027-22.492.007-44.987.05-17.398.034-34.795.034-10.387 0-20.775.025-9.765.023-19.53.01-3.581-.002-7.164.013c-3.261.013-6.522.007-9.784-.004l-5.528.005c-9.013-.69-13.988-3.556-19.864-10.372-2.286-5.715-2.267-9.664-2.29-15.814l-.02-3.303c-.02-3.603-.024-7.206-.026-10.809l-.02-7.521q-.017-7.885-.015-15.77c0-6.728-.027-13.456-.061-20.185-.022-5.179-.026-10.358-.025-15.537q-.005-3.72-.027-7.44c-.02-3.474-.014-6.946-.002-10.42l-.008-5.983c.695-7.343 2.78-11.563 8.056-16.655 5.613-4.184 10.542-3.716 17.292-3.724"/><path fill="#cd6c4a" d="m575.915 139.873 3.448-.005c3.832-.004 7.665 0 11.497.003l8.218-.006q11.181-.005 22.362 0c7.784.003 15.568 0 23.351 0q19.605-.003 39.21.005 22.706.006 45.413-.002 19.458-.007 38.917-.003 11.638.003 23.276-.001 10.935-.004 21.868.005 4.028 0 8.055-.002 5.467-.002 10.936.006l3.272-.007c2.421.007 4.842.064 7.262.134v1c-3.505.106-6.99.142-10.496.138l-3.421.009q-5.731.011-11.463.01l-8.173.016q-8.828.017-17.655.026c-9.296.01-18.593.031-27.89.053-26.443.062-52.886.116-79.329.15q-21.884.027-43.769.087c-7.729.021-15.458.037-23.188.04q-10.902.002-21.803.044-4.011.01-8.022.005c-3.639-.003-7.276.01-10.914.03l-3.24-.017c-7.295.067-7.295.067-10.637 3.409v2h3l2 3 5 2c.062 3.125.062 3.125-1 6h-6v2c-3.5.25-3.5.25-7 0v-2l-5-1c-.615 3.984-.615 3.984-.6 9.813l-.011 3.197c-.007 3.52.022 7.04.052 10.56q.007 3.65.007 7.3.011 7.675.065 15.35c.045 6.56.06 13.121.064 19.682.004 5.032.02 10.065.039 15.097q.012 3.628.02 7.255.015 5.078.058 10.157c.01 1.928.02 3.856.032 5.843.34 5.896 1.739 9.032 5.274 13.746v2h4v2c3.23.201 6.468.248 9.703.247l3.163.008c3.533.005 7.066-.004 10.599-.012l7.557.006c6.87.005 13.74-.003 20.61-.013 7.178-.009 14.356-.007 21.534-.007q18.098-.002 36.197-.023 20.925-.023 41.852-.02 20.107 0 40.215-.013 8.565-.006 17.129-.006 10.095-.002 20.191-.017 3.705-.004 7.41-.004 5.061 0 10.121-.012l5.72-.005C820 279 820 279 824.483 278.304L828 278c3.94 3.94 3.627 6.55 4 12v4h-3c-.18 2.844-.18 2.844.125 6.5l.258 3.656L830 307h3l2 1-1 3h-4v2c-2.955.219-5.922.285-8.885.303l-5.877.05-6.43.026-6.54.051q-8.644.067-17.29.113c-9.2.051-18.4.117-27.6.188q-4.822.033-9.643.055l-5.944.04-5.229.03A84 84 0 0 0 725 315h5l1 2q3.507-.975 7-2l3 1 3.375-.563C748 315 748 315 753 317l-4 2 1 2c4-2 4-2 6-5l4 4-.688 3.187L759 326c3.437 1.375 3.437 1.375 7 1 .09-2.665.077-5.334 0-8 2.728-3.325 4.683-3.928 8.875-4.875 4.231-.128 7.222.249 11.125 1.875v3a275 275 0 0 0 8-3h5l2 2h3l1 2 3-1 1-3 5 2v2l3 1c1 4 1 4 0 7l5 1 3 2-3 3h-2l-1-3-2 5c-3.563.937-3.563.937-7 1l-1-2-3 1v-6h-2v2h-2v-2h-2l1 4-3 1q-.062-3.5 0-7h-2v-2h-2l-2 4-4-2-1-3-3 4-4.563-.125L775 329c-1.25 3-1.25 3-2 6h-5c-.188 4.312-.188 4.312 0 9l-2 3h-2l-1 2h-3v5h-2v2h-4v4h-2l.312 3.937L752 368c-4.914 1.805-9.274 1.122-14-1v-5l-3-1q1.425-3.038 3-6h-2l-1-5c-5 0-5 0-8 2h-5l1 3-1 2h2v2l-4 1 1 4-3 1v3l-4-2c-3.188.187-3.188.187-6 1l-1 3c-2.375 2.25-2.375 2.25-5 4l-3-1 1 3c-2 3-2 3-6 6l-1-1-5 1v-6l-1-3 1-5h3l-1-4c4.586-1.632 7.238-2.19 12-1v3h2l-1-5 3-3c-2-5-2-5-4-6l.625 2.937L703 358l-2 1v-3h-5v2h-2v-4h-2v-2c-4.875 3.75-4.875 3.75-6 6h2v2h-4v2h-4v-2h-2v6l3-2 3 1h-2l2 3 2-1c0 6 0 6-3 10a442 442 0 0 1-7 3l-2 3-4-1v2h2l-1 5h2c-.25 4.5-.25 4.5-1 9h-2v-4l-3 5-4-1-4 1-2-1-3 1c1-5 1-5 2-8l5 1v-4l-5 1c-3-1-3-1-5-4l-5-1v2h-6l-2-2h-2c2 5 2 5 3 7l-5 2-.313 3.062L633 399c-4.063 1-4.063 1-8 1v-2l-2 1-1 3h3l-1 3-3-1v5l2 1-3 6h-6c2 3 2 3 4 4a564 564 0 0 1-3 9l-.438 4.5L614 437l-4 1c.5 3.125.5 3.125 2 6l4-1 2 1v-2h2v2h2l1-2 3-1-1 5 3 1 1-3 1 4c-2.938.75-2.938.75-6 1l2.733-.071a3990 3990 0 0 1 65.718-1.144c10.597-.1 21.187-.258 31.78-.55 10.214-.284 20.42-.406 30.637-.428q5.864-.054 11.723-.27c5.458-.192 10.884-.194 16.345-.148l4.958-.31c5.04.175 7.065.978 11.106 3.921 3.761 8.592 3.74 18.837 1.567 27.844-1.918 3.864-3.094 4.648-7.146 6.014-8.65 1.505-17.383 1.025-26.12.737q-5.103 0-10.206.039c-9.282.031-18.552-.13-27.83-.322-9.685-.169-19.37-.162-29.055-.174a4176 4176 0 0 1-48.817-.427 5717 5717 0 0 0-50.264-.51c-1.031-.007-2.063-.012-3.125-.018l-15.521-.081c-25.426-.129-50.852-.282-76.277-.573l-5.447-.06q-12.653-.144-25.304-.313l-8.838-.106-4.045-.06c-9.119-.103-9.119-.103-13.572 1.01v2h-6l-1 4c-3.063 1.25-3.063 1.25-6 2 2.368-5.92 4.778-7.519 10-11 5.858-1.464 11.693-1.034 17.692-.939l4.317.056q4.698.06 9.394.127c8.703.123 17.406.228 26.108.335l5.629.07c24.73.303 49.462.475 74.194.646q7.825.054 15.65.113l3.146.023c16.853.127 33.703.346 50.555.598 17.285.256 34.568.409 51.854.47 9.714.039 19.423.126 29.135.325 9.126.186 18.244.248 27.371.212q5.043.013 10.082.17c20.805.615 20.805.615 26.873-3.206 3.819-6.552 3.449-13.62 2.201-20.893-1.253-4.403-1.707-5.726-5.408-8.577-4.989-.917-9.44-.833-14.506-.548l-5.705.003c-5.193.005-10.37.177-15.559.376-5.417.18-10.835.205-16.255.245-10.281.1-20.555.334-30.833.62-13.947.38-27.896.57-41.847.767l-10.042.144-3.29.047q-9.687.147-19.373.386-4.578.113-9.157.212-5.585.125-11.168.291l-4.971.106-4.319.115c-5.942-.463-8.887-2.396-13.018-6.607-4.982-6.68-5.008-12.167-5.04-20.43l-.02-3.245c-.02-3.533-.024-7.065-.026-10.598l-.02-7.383q-.017-7.734-.015-15.469c0-6.6-.027-13.198-.061-19.798-.022-5.082-.026-10.164-.025-15.246q-.005-3.65-.027-7.299c-.02-3.406-.014-6.81-.002-10.217l-.008-5.866c.648-6.738 2.523-11.165 7.306-15.949 6.512-4.468 11.502-5.548 19.382-5.321l5.638.135 6.158.195q3.253.084 6.505.164 6.995.174 13.988.364c7.364.193 14.728.337 22.093.468l3.766.066q5.737.102 11.476.201c15.86.276 31.717.588 47.572 1.061a1877 1877 0 0 0 34.707.723c6.13.074 12.249.198 18.374.44 31.356 1.209 31.356 1.209 40.529-2.683 4.235-5.703 3.774-11.43 3.237-18.25-1.25-7.053-1.25-7.053-3.237-9.75-4.003.12-4.003.12-9 1-3.506.092-7.013.135-10.52.14l-3.1.01q-5.111.01-10.224.011l-7.354.015q-9.967.019-19.933.024-6.23.005-12.457.012-19.492.02-38.985.027-22.492.007-44.987.05-17.397.033-34.795.034-10.388 0-20.775.025-9.765.023-19.53.01-3.581-.002-7.164.013c-3.261.013-6.522.007-9.784-.004l-5.528.005c-9.013-.69-13.988-3.556-19.864-10.372-2.286-5.715-2.267-9.664-2.29-15.814l-.02-3.303c-.02-3.603-.024-7.206-.026-10.809l-.02-7.521q-.017-7.885-.015-15.77c0-6.728-.027-13.456-.061-20.185-.022-5.179-.026-10.358-.025-15.537q-.005-3.72-.027-7.44c-.02-3.474-.014-6.946-.002-10.42l-.008-5.983c.695-7.343 2.78-11.563 8.056-16.656 5.634-4.2 10.579-3.703 17.353-3.689M809 314h6l-3 1-1 2v-2z"/><path fill="#cd6c4a" d="m489.176 308.757 4.3-.01 4.622.023h4.79q5.02.006 10.04.024c5.09.018 10.182.02 15.273.02l9.772.018 4.578.003c17.33.077 17.33.077 25.449 1.165-.063 3.813-.063 3.813-2 9-2.636 11.66-2.328 23.435-2.336 35.324l-.02 6.822q-.017 7.13-.015 14.259c0 6.047-.027 12.094-.061 18.14-.023 4.695-.026 9.388-.025 14.082q-.004 3.342-.027 6.682c-.068 10.648.125 20.345 3.263 30.628 1.078 4.055 1.078 4.055 1.221 7.063-4.798 1.581-7.09 1.465-12 1q-3.923.039-7.845.145a2336 2336 0 0 1-8.796.023l-4.733.01q-4.928.007-9.854.007c-5.02.003-10.04.02-15.061.04q-4.8.005-9.602.005l-4.533.022c-16.636-.036-16.636-.036-23.889-5.502-6.585-6.697-7.065-11.316-7.091-20.677l-.02-3.304c-.02-3.597-.015-7.195-.01-10.792l-.015-7.518q-.014-7.875.003-15.751c.011-6.72-.009-13.441-.038-20.162-.018-5.175-.018-10.35-.012-15.524q0-3.717-.019-7.432c-.015-3.469-.004-6.936.013-10.404v-5.974c.695-7.223 2.777-11.487 7.877-16.587 5.554-4.022 10.01-4.876 16.801-4.868"/><path fill="#c86d4e" d="M435 491c1.225 4.899 1.073 9.211 1.018 14.27l-.059 6.494-.037 3.478c-.06 6.09-.091 12.18-.127 18.27a4500 4500 0 0 1-.193 23.233c-.07 6.261-.111 12.522-.132 18.784a769 769 0 0 1-.074 7.138c-.348 23.951-.348 23.951 6.604 33.333 3.209.657 3.209.657 6 1v2c2.991.189 5.991.223 8.988.21l2.93-.006c3.273-.008 6.546-.03 9.819-.053q3.5-.014 7-.024a8100 8100 0 0 0 19.092-.093c6.648-.037 13.297-.063 19.945-.09q16.762-.074 33.526-.165 19.384-.104 38.768-.184 20.613-.087 41.224-.19l11.891-.053q9.351-.041 18.702-.096 3.433-.018 6.865-.032 4.687-.02 9.373-.052l5.299-.028c8.198-.258 8.198-.258 11.578-1.144l-1-4 5-1 1 4h5l-1-2a706 706 0 0 1 7-1l1-2h2l2 4 4-1v3c3.692.279 6.477.174 10-1v2h3l-1-4 4 1h2v-3c3-1 3-1 8 0l-2 5 4-1c3.656.52 7.258 1.213 10.883 1.918L760 618l2-4c10.642-.68 10.642-.68 16 2v-2h2l-1-4h-3l1-3 5-1v2l3 1-1 5c7.212 0 10.757-.254 17-4v3l2 1v2c2.938-.75 2.938-.75 6-2l1-2 2 1 1-3h3v2c3.003-.3 6.004-.636 9-1l2 1 3-1 2 1v3c2.677-.236 5.343-.596 8-1q4.748-.17 9.5-.187l4.844-.043L858 614v2l2 1-1 2c3.077.208 6.165.256 9.25.259l3.014.01c3.317.01 6.634.003 9.95-.003l6.866.005q7.212.005 14.424-.01c6.182-.012 12.364-.005 18.547.007q7.093.009 14.187 0 3.42-.003 6.841.005c3.181.005 6.361-.003 9.542-.014l5.5-.005L961 619v-2h4l-1-4h3v-3l4-1c0 4 0 4-1.5 6.5-5.675 5.675-11.61 7-19.427 7.003l-5.417.032-5.926-.027q-3.158.006-6.314.019c-5.782.017-11.563.008-17.344-.004-6.236-.01-12.472.005-18.708.016-12.215.018-24.43.014-36.645.002q-14.89-.013-29.78-.006l-4.278.002-8.605.004c-26.906.011-53.812-.002-80.717-.023q-34.64-.025-69.28.003a64017 64017 0 0 1-88.999.014l-4.26-.002q-14.875-.003-29.749.012-18.123.018-36.246-.013c-6.166-.01-12.332-.015-18.498-.001q-8.463.017-16.928-.016c-3.011-.007-6.023.006-9.035.02-1.788-.01-3.575-.02-5.417-.032-1.542 0-3.084 0-4.672-.002-7.042-.83-11.141-3.185-15.692-8.563-3.903-5.997-3.706-10.758-3.692-17.712l-.006-3.36q-.004-5.514.002-11.026 0-3.82-.003-7.64-.001-8.011.006-16.023.006-10.289-.004-20.577-.005-7.89 0-15.778l-.002-7.59q-.003-5.294.007-10.588l-.007-3.194c.022-7.221.022-7.221 1.136-9.45"/><path fill="#ce6d4b" d="M942 325h1c.119 3.383.16 6.77.177 10.154l.02 3.272c.02 3.597.031 7.195.041 10.793l.013 3.714q.03 9.74.044 19.48a4698 4698 0 0 0 .085 20.121c.027 5.154.035 10.308.038 15.463q.008 3.707.035 7.415c.025 3.467.024 6.932.017 10.399l.018 5.975c-.665 7.11-2.8 11.39-7.613 16.589-8.962 6.07-18.835 4.526-29.07 3.652q-4.395-.273-8.79-.525c-4.609-.265-9.197-.57-13.793-1.002-20.493-1.87-20.493-1.87-27.222 1.5-4.295 5.302-5.209 10.582-5.06 17.29.95 4.366 1.905 6.522 5.06 9.71 14.376 4.83 31.798 2.376 46.759 1.563 8.404-.429 16.816-.645 25.228-.887a580 580 0 0 0 13.442-.55l6.186-.265 5.43-.28c5.834.493 9.128 2.17 13.955 5.419 5.755 6.954 6.15 11.911 6.145 20.666l.01 3.327q.013 5.456.013 10.913l.01 7.566q.009 7.935.007 15.868c0 6.79.014 13.58.031 20.369q.015 7.813.013 15.627 0 3.755.013 7.511c.01 3.496.007 6.991 0 10.487.007 1.041.012 2.082.018 3.155-.032 7.169-.032 7.169-2.26 10.511l.034-4.38q.15-20.352.225-40.706c.026-6.977.062-13.954.118-20.932q.08-10.085.097-20.17.015-3.864.055-7.726c.036-3.586.041-7.17.039-10.756l.054-3.28c-.02-2.925-.02-2.925-.622-7.05-5 2-5 2-7 5l-1-4h-3l-2-5c-3.5.25-3.5.25-7 1l-2-1c-.25-3.562-.25-3.562 0-7h2v2l5-1 1-3c-3.426-.33-3.426-.33-8.464-.265l-5.676.052-6.227.104q-3.165.038-6.33.073-6.66.077-13.322.182c-5.676.088-11.353.16-17.03.225-5.419.063-10.837.135-16.256.207l-3.12.04q-4.408.058-8.817.13l-5.062.074c-4.696.178-4.696.178-9.591.8-4.105.378-4.105.378-7.543-1.31C848 480 848 480 846 476c.375-3.25.375-3.25 1-6l1 3c4-2 4-2 6-4 .938-5.125.938-5.125 1-10h-5l-2 2v-2l-4 1a506 506 0 0 1-2-6h-4v-2h-2v-2h2l-1-3h-3l-2 3h-2l-1 2c-.625-3-.625-3-1-6h2l-.437-5.187L830 436c4.375.563 4.375.563 9 3 2 5 2 5 2 8l1-2h2l1-3 2 1 3-1v2l2 1 3 2q5.495 1.027 11 2v1c3.58.103 7.139.14 10.719.133l3.296.003q3.46 0 6.92-.006 5.324-.005 10.647.007 3.35 0 6.7-.004l3.247.006A291 291 0 0 0 915 450v-1c3.026-.26 6.052-.516 9.082-.719C927 448 927 448 930 447v-3l5 1v-2h3v-3h2c.22-3.507.301-6.938.303-10.449l.026-3.365c.025-3.696.038-7.392.05-11.088q.024-3.83.051-7.66c.046-6.742.081-13.484.113-20.226q.078-16.185.188-32.368.033-5.675.055-11.35l.04-6.916.008-3.219c.052-7.245.052-7.245 1.166-8.359"/><path fill="#deb19f" d="m575.915 139.873 3.448-.005c3.832-.004 7.665 0 11.497.003l8.218-.006q11.181-.005 22.362 0c7.784.003 15.568 0 23.351 0q19.605-.003 39.21.005 22.706.006 45.413-.002 19.458-.007 38.917-.003 11.638.003 23.276-.001 10.935-.004 21.868.005 4.028 0 8.055-.002 5.467-.002 10.936.006l3.272-.007c2.421.007 4.842.064 7.262.134v1c-3.505.106-6.99.142-10.496.138l-3.421.009q-5.731.011-11.463.01l-8.173.016q-8.828.017-17.655.026c-9.296.01-18.593.031-27.89.053-26.443.062-52.886.116-79.329.15q-21.884.027-43.769.087c-7.729.021-15.458.037-23.188.04q-10.902.002-21.803.044-4.011.01-8.022.005c-3.639-.003-7.276.01-10.914.03l-3.24-.017c-7.295.067-7.295.067-10.637 3.409v2h3l2 3 5 2c.062 3.125.062 3.125-1 6h-6v2c-3.5.25-3.5.25-7 0v-2l-5-1c-.615 3.984-.615 3.984-.6 9.813l-.011 3.197c-.007 3.52.022 7.04.052 10.56q.007 3.65.007 7.3.011 7.675.065 15.35c.045 6.56.06 13.121.064 19.682.004 5.032.02 10.065.039 15.097q.012 3.628.02 7.255.015 5.078.058 10.157c.01 1.928.02 3.856.032 5.843.34 5.896 1.739 9.032 5.274 13.746v2h4l3 3c4.46.301 4.46.301 10.307.197l3.25-.044c3.612-.052 7.223-.125 10.834-.197q3.873-.06 7.745-.115 8.351-.12 16.703-.256c8.791-.135 17.583-.22 26.376-.29l4.49-.035q9.17-.072 18.34-.14c17.396-.135 34.788-.318 52.181-.646 13.804-.259 27.604-.414 41.41-.444 7.315-.02 14.621-.094 21.934-.295 36.96-.98 36.96-.98 48.43 3.265 4.757 4.546 6.233 8.475 6.665 14.993-.615 6.366-2.163 10.41-6.665 15.007-13.69 5.803-31.044 3.681-45.636 3.244-6.334-.159-12.667-.15-19.002-.157-12.01-.04-24.012-.234-36.018-.481-13.663-.274-27.326-.38-40.991-.47-28.122-.19-56.236-.593-84.353-1.136 4.93-3.697 6.8-3.308 12.871-3.134l5.652.135 6.218.195q3.267.084 6.534.164 7.038.175 14.076.364c7.41.193 14.82.337 22.23.468l3.787.066 15.46.269c14.66.256 29.315.558 43.97.993 11.636.345 23.269.592 34.908.723 6.168.074 12.325.198 18.488.44 31.569 1.21 31.569 1.21 40.806-2.683 4.26-5.7 3.797-11.422 3.254-18.25-1.26-7.051-1.26-7.051-3.254-9.75-4.003.12-4.003.12-9 1-3.506.092-7.013.135-10.52.14l-3.1.01q-5.111.01-10.224.011l-7.354.015q-9.967.019-19.933.024-6.23.005-12.457.012-19.492.02-38.985.027-22.492.007-44.987.05-17.397.033-34.795.034-10.388 0-20.775.025-9.765.023-19.53.01-3.581-.002-7.164.013c-3.261.013-6.522.007-9.784-.004l-5.528.005c-9.013-.69-13.988-3.556-19.864-10.372-2.286-5.715-2.267-9.664-2.29-15.814l-.02-3.303c-.02-3.603-.024-7.206-.026-10.809l-.02-7.521q-.017-7.885-.015-15.77c0-6.728-.027-13.456-.061-20.185-.022-5.179-.026-10.358-.025-15.537q-.005-3.72-.027-7.44c-.02-3.474-.014-6.946-.002-10.42l-.008-5.983c.695-7.343 2.78-11.563 8.056-16.656 5.634-4.2 10.579-3.703 17.353-3.689"/><path fill="#c86e4f" d="M854 148c4.39 6.926 2.876 14.23 2.198 22.023a4098 4098 0 0 0-.705 9.402l-.377 5.02c-.729 10.576-1.152 21.168-1.6 31.758-.412 9.343-.955 18.642-1.783 27.958-4.63 53.468-4.63 53.468 5.267 65.839 19.727 11.597 50.869 4.052 72 0-4.376 3.282-5.354 3.38-10.573 3.417l-4.044.05-4.36.01-4.475.047c-4.724.047-9.448.075-14.173.101q-7.097.054-14.195.123-4.42.04-8.84.063l-4.026.031-3.557.02C858 314 858 314 856 315v-2l-4-2v-3h2c.168-2.875.184-5.758.151-8.638l-.051-5.717-.088-6.258-.069-6.378q-.074-6.71-.164-13.42-.114-8.567-.202-17.135-.072-6.6-.152-13.2-.038-3.157-.073-6.312c-.115-10.039-.317-19.956-1.352-29.942l.188-5.75L852 191l-4 1-1-5h-5v-6h-2l1-3h3v-2l-2-1 3-3h3l1-3h3c.512-2.738.512-2.738.688-6.312l.199-3.551q.112-3.068.113-6.137l-5 1c-3.312-.812-3.312-.812-6-2v-2l-5-2-1-3h4v-2c-3.336-.197-6.68-.24-10.022-.234l-3.267-.003c-3.649 0-7.297.013-10.945.026l-7.803.004a8493 8493 0 0 0-16.855.026c-8.871.022-17.743.03-26.615.037q-21.038.018-42.074.056-37.697.067-75.394.1-13.248.014-26.494.042-8.22.014-16.441.023-3.832.005-7.663.015-5.202.014-10.405.015l-5.899.01L576 143v-1c3.339-.115 6.68-.152 10.02-.165l3.266-.017q5.473-.025 10.945-.04 3.902-.016 7.803-.034 10.64-.046 21.28-.08 11.112-.04 22.225-.086 18.675-.072 37.352-.136 21.605-.074 43.209-.165 18.52-.077 37.042-.143 11.073-.039 22.147-.085 10.417-.045 20.836-.074 3.828-.012 7.655-.03 5.22-.023 10.438-.034l5.905-.021c8.322.188 11.893 1.013 17.877 7.11"/><path fill="#e6c0ad" d="m592 439 4 2v3h2v2l4 2 3 2c3.399.178 3.399.178 7.726.077l4.959-.098 5.464-.136 8.715-.174q3.094-.06 6.19-.124c13.202-.27 26.406-.387 39.61-.511 12.875-.122 25.744-.293 38.615-.615 10.217-.254 20.43-.405 30.65-.43 5.417-.016 10.821-.088 16.235-.285 6.031-.218 12.04-.205 18.075-.17l5.483-.308c8.161.235 8.161.235 12.278 3.774 3.532 8.672 3.924 17.914 1.595 26.945-1.964 3.762-3.18 4.515-7.18 5.822-8.652 1.457-17.381.992-26.113.715q-5.104 0-10.207.038c-9.281.03-18.552-.123-27.83-.31-9.685-.162-19.37-.155-29.055-.165-16.275-.04-32.545-.185-48.817-.41a5915 5915 0 0 0-53.39-.506l-15.52-.078c-25.426-.122-50.852-.268-76.277-.547l-5.447-.06q-12.653-.136-25.304-.299l-8.838-.101-4.045-.06c-9.119-.097-9.119-.097-13.572 1.016v2h-6l-1 4c-3.062 1.25-3.062 1.25-6 2 2.368-5.92 4.778-7.519 10-11 5.858-1.464 11.693-1.034 17.692-.939l4.317.056q4.698.06 9.394.127c8.703.123 17.406.228 26.108.335l5.629.07c24.73.303 49.462.475 74.194.646a39060 39060 0 0 1 18.796.136c16.853.127 33.703.346 50.555.598 17.285.256 34.568.409 51.854.47 9.714.039 19.423.126 29.135.325 9.126.186 18.244.248 27.371.212q5.043.013 10.082.17c20.805.615 20.805.615 26.873-3.206 3.819-6.552 3.449-13.62 2.201-20.893-1.253-4.403-1.707-5.726-5.408-8.577-4.989-.917-9.44-.833-14.506-.548l-5.705.003c-5.193.005-10.37.177-15.559.376-5.417.18-10.835.205-16.255.245-10.281.1-20.555.334-30.833.62-13.947.38-27.896.57-41.847.767l-10.042.144-3.29.047q-9.687.147-19.373.386-4.578.113-9.157.212-5.585.125-11.168.291l-4.971.106-4.319.115c-6.07-.473-8.959-2.455-13.143-6.794C592 442 592 442 592 439"/><path fill="#c06d4f" d="M831 280c.79 4.737 1 9.205 1 14h-3c-.18 2.844-.18 2.844.125 6.5l.258 3.656L830 307h3l2 1-1 3h-4v2c-2.867.199-5.744.244-8.618.24l-5.788.009-6.432-.022h-6.71c-6.096.002-12.193-.01-18.29-.024-6.362-.013-12.724-.014-19.086-.016-12.06-.006-24.119-.023-36.178-.043-13.724-.022-27.448-.033-41.172-.043Q645.363 313.068 603 313c4.117-2.745 6.849-2.162 11.789-2.039l5.673.123 3.073.081c4.385.116 8.771.208 13.157.302q3.542.077 7.085.157c15.111.337 30.225.523 45.338.715 14.737.19 29.469.427 44.201.814 11.694.308 23.383.51 35.08.588 6.2.045 12.387.145 18.582.37 31.159 1.095 31.159 1.095 41.022-3.111 4.458-4.602 5.986-8.663 6.606-15-.414-6.512-1.86-10.449-6.606-15-16.194-5.951-35.889-3.498-52.84-2.976-7.336.194-14.672.218-22.01.26-13.913.103-27.818.359-41.727.669-17.37.38-34.741.57-52.114.758-17.714.195-35.425.408-53.136.746l-8.15.149q-7.574.14-15.147.31l-6.689.123-5.85.123C566 281 566 281 564 279l3.981.003q47.921.033 95.843.049 23.175.007 46.348.023 20.196.015 40.391.02 10.696 0 21.392.01 10.065.011 20.128.008 3.696 0 7.394.006 5.04.007 10.083.001l5.704.003C820 279 820 279 823.34 278.367 826 278 826 278 831 280"/><path fill="#f5cbb9" d="M435 491c1.225 4.899 1.073 9.211 1.018 14.27l-.059 6.494-.037 3.478c-.06 6.09-.091 12.18-.127 18.27a4500 4500 0 0 1-.193 23.233c-.07 6.261-.111 12.522-.132 18.784a769 769 0 0 1-.074 7.138c-.348 23.951-.348 23.951 6.604 33.333 1.994.37 3.993.708 6 1v3c3.277.378 3.277.378 7.98.382l5.394.027 6.026-.017q3.16.007 6.323.018c5.826.016 11.652.014 17.478.008 6.27-.003 12.54.012 18.81.025q16.313.027 32.624.029c15.723.002 31.446.021 47.17.045q38.258.057 76.518.082 37.178.024 74.354.063l4.626.005q24.97.027 49.943.058l4.429.006 17.52.022q25.703.034 51.407.05 16.115.01 32.23.028 9.315.011 18.63.013 8.51.001 17.02.014 3.094.004 6.19.002 4.173 0 8.348.01l4.703.003L959 621v1c-2.646.105-5.295.131-7.943.134l-5.368.014h-5.997q-3.147.003-6.294.01-8.698.014-17.398.017-9.362.007-18.724.022c-15.093.02-30.185.03-45.278.039l-21.3.015a170709 170709 0 0 1-89.154.044l-4.616.002c-24.677.008-49.354.033-74.032.066q-37.968.049-75.936.054c-14.222.002-28.443.011-42.664.036q-18.167.034-36.335.02c-6.182-.004-12.364-.002-18.546.017q-8.487.026-16.973.001c-3.02-.003-6.04.013-9.061.03l-5.432-.026-4.685.003c-7.049-.823-11.147-3.178-15.702-8.56-3.902-5.997-3.705-10.758-3.691-17.712l-.006-3.36q-.004-5.514.002-11.026 0-3.82-.003-7.64-.001-8.011.006-16.023.006-10.289-.004-20.577-.005-7.89 0-15.778l-.002-7.59q-.003-5.294.007-10.588l-.007-3.194c.022-7.221.022-7.221 1.136-9.45"/><path fill="#dd9d85" d="m575.915 139.873 3.448-.005c3.832-.004 7.665 0 11.497.003l8.218-.006q11.181-.005 22.362 0c7.784.003 15.568 0 23.351 0q19.605-.003 39.21.005 22.706.006 45.413-.002 19.458-.007 38.917-.003 11.638.003 23.276-.001 10.935-.004 21.868.005 4.028 0 8.055-.002 5.467-.002 10.936.006l3.272-.007c2.421.007 4.842.064 7.262.134v1c-3.505.106-6.99.142-10.496.138l-3.421.009q-5.731.011-11.463.01l-8.173.016q-8.828.017-17.655.026c-9.296.01-18.593.031-27.89.053-26.443.062-52.886.116-79.329.15q-21.884.027-43.769.087c-7.729.021-15.458.037-23.188.04q-10.902.002-21.803.044-4.011.01-8.022.005c-3.639-.003-7.276.01-10.914.03l-3.24-.017c-7.295.067-7.295.067-10.637 3.409v2h3l2 3 5 2c.062 3.125.062 3.125-1 6h-6v2c-3.5.25-3.5.25-7 0v-2l-5-1c-.514 3.567-.628 6.677-.568 10.26l-.002 3.339c.004 3.674.043 7.348.082 11.022q.014 3.803.021 7.605c.02 6.696.068 13.392.124 20.088.05 6.823.074 13.646.099 20.47.054 13.405.139 26.81.244 40.216-2.905-4.357-2.295-8.728-2.29-13.802l-.02-3.371c-.02-3.689-.024-7.377-.026-11.065l-.02-7.68q-.017-8.055-.015-16.112c0-6.884-.027-13.767-.061-20.65-.022-5.29-.026-10.578-.025-15.867q-.005-3.806-.027-7.613c-.02-3.55-.014-7.1-.002-10.65l-.034-3.179c.05-5.887.607-9.527 4.52-14.011 6.593-6.055 11.23-6.145 19.915-6.127"/><path fill="#ba785e" d="m969 609 3 1c-2.405 6.012-4.54 7.636-10 11-4.277.746-4.277.746-8.98.741l-5.453.038-5.967-.05q-3.177.005-6.356.017c-5.82.015-11.639-.007-17.459-.035-6.276-.024-12.553-.013-18.83-.006-12.292.007-24.585-.017-36.878-.052a17535 17535 0 0 0-42.909-.049c-25.507-.008-51.014-.044-76.522-.096a53436 53436 0 0 0-78.963-.106l-18.414-.012a148908 148908 0 0 1-92.145-.091q-24.396-.027-48.793-.076-7.411-.015-14.822-.023-8.505-.01-17.009-.032-3.092-.008-6.185-.009-4.17-.004-8.341-.02c-.776 0-.776 0-4.7-.008L450 621v-1c2.659-.098 5.32-.118 7.98-.115h5.394l6.026.015 6.323.004q8.739.006 17.478.024 9.405.014 18.81.02 16.313.015 32.624.038c17.172.023 34.344.036 51.516.048l17.603.012 4.444.003a272804 272804 0 0 1 54.756.044q37.174.036 74.349.084 38.11.049 76.221.065 23.539.01 47.078.052 16.115.029 32.23.027 9.315-.002 18.63.023 8.51.025 17.02.01 3.094 0 6.19.015c2.782.013 5.565.006 8.348-.003l4.703.005L961 620v-3h4l-1-4h3v-3z"/><path fill="#deb09e" d="M942 325h1c.119 3.383.16 6.77.177 10.154l.02 3.272c.02 3.597.031 7.195.041 10.793l.013 3.714q.03 9.74.044 19.48a4698 4698 0 0 0 .085 20.121c.027 5.154.035 10.308.038 15.463q.008 3.707.035 7.415c.025 3.467.024 6.932.017 10.399l.018 5.975c-.665 7.11-2.8 11.39-7.613 16.589-8.962 6.07-18.835 4.526-29.07 3.652q-4.395-.273-8.79-.525c-4.609-.265-9.197-.57-13.793-1.002-20.483-1.869-20.483-1.869-27.222 1.5-4.311 5.292-5.24 10.561-5.1 17.272.955 4.387 1.92 6.533 5.1 9.728 14.631 4.94 32.094 2.56 47.283 1.796 6.15-.283 12.304-.42 18.46-.566 6.904-.172 13.805-.36 20.705-.65l3.174-.134c2.835-.123 5.67-.254 8.506-.385L959 479v1c-13.385 1.08-26.867 1.29-40.289 1.585-6.24.14-12.47.336-18.705.658-33.198 1.674-33.198 1.674-44.006-2.243-4.16-4.499-4.99-8.434-5.062-14.477.587-5.63 1.745-9.893 5.062-14.523 8.463-5.137 20.088-2.93 29.5-2.25q4.263.159 8.527.277c5.194.158 10.371.395 15.557.718L915 450v-1c3.026-.26 6.052-.516 9.082-.719C927 448 927 448 930 447v-3l5 1v-2h3v-3h2c.22-3.507.301-6.938.303-10.449l.026-3.365c.025-3.696.038-7.392.05-11.088q.024-3.83.051-7.66c.046-6.742.081-13.484.113-20.226q.078-16.185.188-32.368.033-5.675.055-11.35l.04-6.916.008-3.219c.052-7.245.052-7.245 1.166-8.359"/><path fill="#d9a18d" d="M854 150c2 2 2 2 3 5a115 115 0 0 1-.364 6.245l-.311 3.965-.354 4.36c-1.178 15.425-2 30.847-2.62 46.305-.389 9.38-.91 18.714-1.728 28.067-4.57 53.601-4.57 53.601 5.377 66.058 19.717 11.625 50.873 4.066 72 0-4.376 3.282-5.354 3.38-10.573 3.417l-4.044.05-4.36.01c-1.476.015-2.953.03-4.475.047-4.724.047-9.448.075-14.173.101q-7.097.054-14.195.123-4.42.04-8.84.063l-4.026.031-3.557.02C858 314 858 314 856 315v-2l-4-2v-3h2c.246-2.468.246-2.468.24-5.998l.009-4.029-.022-4.477v-4.67c0-5.13-.016-10.259-.032-15.389l-.008-10.627c-.008-9.35-.028-18.702-.05-28.053-.02-9.53-.03-19.062-.04-28.593Q854.065 178.082 854 150"/><path fill="#cc6d4c" d="M856 311c2.26-.119 4.526-.16 6.79-.177l4.491-.039 4.914-.022 5.002-.025q5.258-.02 10.517-.032a3201 3201 0 0 0 16.098-.105q5.098-.015 10.196-.026l4.877-.053 4.55.009 3.996-.018c5.243.717 8.257 3.14 11.881 6.863 3.694 5.745 2.784 12.61 2.726 19.22l-.025 3.195a4426 4426 0 0 1-.099 10.42l-.064 7.24q-.069 7.572-.147 15.145-.097 9.735-.178 19.472-.065 7.466-.139 14.931-.034 3.593-.065 7.184-.043 5-.1 10l-.056 5.758L941 434h-1a310 310 0 0 1-.246-9.516l-.096-6.136c-.015-1.08-.03-2.158-.047-3.27-.28-19.085-.887-38.06-2.611-57.078l-3 4c1.875-8.625 1.875-8.625 3-12h-5c-.156-2.66-.156-2.66.5-6.062l.594-3.41L934 338l3 1c2.61-5.084 2.536-10.41 2-16l-5 1v-2h-2v-3l-3-1 3-1-5-2v-2c-2.695-.272-2.695-.272-6.518-.303l-4.307-.05-4.706-.026-4.776-.051c-5.064-.054-10.129-.094-15.193-.132q-7.597-.065-15.193-.143-4.74-.049-9.482-.08l-4.307-.041-3.823-.03L856 312z"/><path fill="#e0c3b4" d="m488.949 308.87 4.3-.009 4.653.006 4.8-.003q5.037 0 10.075.006 7.664.005 15.327-.007 4.899 0 9.798.004l4.598-.006c17.312.038 17.312.038 25.5 1.139-.062 3.812-.062 3.812-2 9-2.68 11.759-2.29 23.648-2.266 35.64l-.005 6.887q-.005 7.186.01 14.372c.012 6.129.005 12.257-.007 18.386q-.009 7.098 0 14.196.003 3.39-.005 6.78c-.005 3.158.003 6.316.014 9.474l.005 5.435c.24 4.56 1.13 8.429 2.254 12.83l-1 4c-2.694-6.911-3.427-13.053-3.372-20.391l-.011-3.345c-.008-3.623.005-7.246.02-10.87q0-3.793-.002-7.585 0-7.933.029-15.864c.023-6.776.023-13.552.016-20.327-.003-5.217.004-10.434.013-15.65q.006-3.75.004-7.496.002-5.235.028-10.469l-.007-3.122c.037-5.063.487-9.16 2.282-13.881 1.117-3.83 1.117-3.83 1-7-3.183-.817-3.183-.817-7.873-.735l-5.278.043-5.783.157-5.856.083q-6.152.09-12.305.241c-5.274.129-10.548.218-15.823.293-5.005.072-10.01.165-15.016.258l-5.776.101-5.288.13-4.692.103L478 312v2a317 317 0 0 1-10 6c2.49-4.98 5.438-6.89 10-10 3.897-.974 6.95-1.127 10.949-1.13"/><path fill="#d18e77" d="M478 314v2l5 1v-2l3 1-1 5-2 1-3-1v2l-4 1 4 1c-8.625 3.125-8.625 3.125-12 2-.332 3.474-.437 6.777-.432 10.26l-.031 3.339c-.03 3.674-.04 7.348-.049 11.022l-.054 7.605c-.048 6.696-.078 13.392-.104 20.088-.03 6.823-.076 13.646-.121 20.47Q467.081 419.89 467 440c-2.87-2.87-2.248-5.487-2.271-9.364l.012-3.157-.01-3.316c-.01-3.634-.003-7.268.003-10.901l-.005-7.556q-.005-7.93.01-15.861c.012-6.78.005-13.559-.007-20.338q-.009-7.808 0-15.614.003-3.75-.005-7.498c-.005-3.496.003-6.99.014-10.486l-.012-3.138c.03-4.943.405-8.105 2.271-12.771 8.15-6 8.15-6 11-6"/><path fill="#d49d87" d="M591 322c2.89 2.89 2.248 5.57 2.271 9.472l-.012 3.204.01 3.365c.01 3.686.003 7.371-.003 11.057l.005 7.652q.005 8.025-.01 16.052c-.012 6.876-.005 13.752.007 20.628q.009 7.902 0 15.804-.003 3.805.005 7.61c.005 3.536-.003 7.073-.014 10.61l.012 3.21c-.014 2.446-.131 4.893-.271 7.336l-2 1c-1.495-4.485-1.127-8.759-1.13-13.482l-.005-3.268q-.004-5.36.002-10.719l-.003-7.431q-.002-7.792.006-15.586.006-10.002-.004-20.005-.004-7.674 0-15.349 0-3.69-.002-7.378-.003-5.15.007-10.3l.002-5.927C590 325 590 325 591 322"/><path fill="#d38f75" d="M962 481c5.302 2.447 8.18 4.9 11 10 1.492 4.475 1.147 8.994 1.145 13.666l.01 3.327q.013 5.456.013 10.913l.01 7.566q.009 7.935.007 15.868c0 6.79.014 13.58.031 20.369q.015 7.813.013 15.627 0 3.755.013 7.511c.01 3.496.007 6.991 0 10.487.007 1.041.012 2.082.018 3.155-.032 7.169-.032 7.169-2.26 10.511l.034-4.38q.15-20.352.225-40.706c.026-6.977.062-13.954.118-20.932q.08-10.085.097-20.17.015-3.864.055-7.726c.036-3.586.041-7.17.039-10.756l.054-3.28c-.02-2.925-.02-2.925-.622-7.05-5 2-5 2-7 5l-1-4h-3l-2-5c-3.5.25-3.5.25-7 1l-2-1c-.25-3.562-.25-3.562 0-7h2v2c5-1 5-1 7-3l3 1v3l2-4h-2z"/><path fill="#dba892" d="m592 439 4 2v3h2v2l4 2 3 2c3.399.18 3.399.18 7.726.083l4.959-.093 5.464-.131 8.715-.167q3.094-.057 6.19-.12c13.202-.258 26.406-.369 39.61-.488 12.875-.117 25.744-.28 38.615-.59a1409 1409 0 0 1 30.65-.41c5.417-.016 10.822-.084 16.235-.274 27.767-.938 27.767-.938 35.836 3.19 4.775 8.016 2.7 17.715.785 26.385L799 480h-1c.444-2.015.911-4.025 1.387-6.033 2.731-15.176 2.731-15.176-1.387-21.967-11.372-5.58-26.57-3.234-38.977-2.74-5.417.185-10.835.211-16.255.253-10.282.103-20.555.345-30.833.64-12.814.361-25.63.557-38.447.743l-13.442.198-3.29.05q-9.687.151-19.373.398-4.578.116-9.157.22-5.585.13-11.168.3l-4.971.11-4.319.119c-6.07-.469-8.959-2.452-13.143-6.791C592 442 592 442 592 439"/><path fill="#d4967e" d="m468 438 1 2h2v2l5-1v6c2.584 2.584 11.1 1.244 14.879 1.281l4.233.056c6.009.08 12.018.147 18.026.215q6.558.08 13.116.167l4.166.04c3.194.043 6.387.136 9.58.241v1c4.32.35 8.61.612 12.938.813l3.732.232c3.107.142 6.222.066 9.33-.045l1-4 1 5c-4.135.677-7.831.935-12 1l-3.817.084a881 881 0 0 1-12.824.084l-4.733.01a6223 6223 0 0 1-9.854.007c-5.02.002-10.04.02-15.061.04q-4.8.005-9.602.005l-4.533.022c-16.663-.036-16.663-.036-24.014-5.627C468 444 468 444 467 440z"/><path fill="#c0785c" d="M856 480c3.242-.113 6.487-.15 9.73-.161l3.133-.015q5.163-.021 10.324-.027l7.13-.017q7.485-.015 14.971-.02c6.417-.006 12.833-.03 19.25-.058 4.91-.019 9.82-.024 14.73-.026q3.551-.004 7.101-.024c3.3-.017 6.6-.015 9.9-.008l5.707-.011c1.328.12 2.656.242 4.024.367v3h2v4l-3 1 1-4c-4.509-1.127-8.411-1.154-13.064-1.19l-5.694-.05-3.045-.02a3944 3944 0 0 1-9.445-.077q-10.032-.088-20.064-.163-11.612-.089-23.222-.192a4927 4927 0 0 0-9.291-.068l-5.723-.05-5.03-.039c-3.899-.133-7.591-.426-11.422-1.151z"/><path fill="#bc7e65" d="m460.402 479.303 4.349-.008c4.73 0 9.457.041 14.187.084q4.926.014 9.853.018c8.634.018 17.268.072 25.902.133 7.074.043 14.148.06 21.222.077q12.606.031 25.21.084l4.896.02q6.805.032 13.612.08l4.127.018c3.08.025 6.16.102 9.24.191v1a502 502 0 0 1-12.788.19l-4.118.025q-4.45.025-8.9.045-7.032.032-14.066.077-14.94.088-29.878.163c-11.522.06-23.043.121-34.565.192q-6.943.039-13.887.068l-8.492.05-3.924.013c-8.927.063-8.927.063-13.382 1.177v2h-6l-1 4c-3.062 1.25-3.062 1.25-6 2 4.68-11.698 13.277-11.862 24.402-11.697"/><path fill="#cc7150" d="M853 448c2.844-.012 2.844-.012 6.5.313l3.656.3L866 449v1c-1.628-.3-3.256-.598-4.934-.906L856 450c-1.646 5.092-1.25 10.2-1.062 15.5l-.042 4.48c.131 8.117.131 8.117 1.104 11.02 3.565.299 3.565.299 7 0v2c-4.89 1.037-7.882 1.549-12.437-.687C848 480 848 480 846 476c.375-3.25.375-3.25 1-6l1 3c4-2 4-2 6-4 .813-5.125.813-5.125 1-10h-3c-1.25-3.375-1.25-3.375-2-7l1-2h2z"/><path fill="#c47a5f" d="M856 311c2.26-.119 4.526-.16 6.79-.177l4.491-.039 4.914-.022 5.002-.025q5.258-.02 10.517-.032a3201 3201 0 0 0 16.098-.105q5.098-.015 10.196-.026l4.877-.053 4.55.009 3.996-.018c5.243.717 8.257 3.14 11.881 6.863 1.889 2.938 2.367 5.174 2.688 8.625l-2-2h-6v-2h-2v-3l-3-1 3-1-5-2v-2c-2.695-.272-2.695-.272-6.518-.303l-4.307-.05-4.706-.026-4.776-.051c-5.064-.054-10.129-.094-15.193-.132q-7.597-.065-15.193-.143-4.74-.049-9.482-.08l-4.307-.041-3.823-.03L856 312z"/><path fill="#dfb09d" d="M435 491c1.225 4.899 1.073 9.211 1.018 14.27l-.059 6.494-.037 3.478c-.06 6.09-.091 12.18-.127 18.27a4500 4500 0 0 1-.193 23.233c-.07 6.261-.111 12.522-.132 18.784a769 769 0 0 1-.074 7.138c-.348 23.951-.348 23.951 6.604 33.333 1.994.37 3.993.708 6 1v3c-5.069-1.014-6.48-1.48-10-5-3.97-6.44-4.562-11.95-4.47-19.341l-.007-3.364c-.002-3.648.024-7.295.051-10.943q.007-3.81.01-7.62.012-7.964.06-15.932c.039-6.82.057-13.64.067-20.459.01-6.496.03-12.993.05-19.49l.011-3.772q.019-5.258.051-10.514l.008-3.17c.054-7.165.054-7.165 1.169-9.395"/><path fill="#d9aa97" d="m488.949 308.87 4.3-.009 4.653.006 4.8-.003q5.037 0 10.075.006 7.664.005 15.327-.007 4.899 0 9.798.004l4.598-.006c17.356.038 17.356.038 25.5 1.139-.062 3.875-.062 3.875-2 9a159 159 0 0 0-1.062 6.062L564 330h-1c-.273-5.64-.011-8.973 2.189-14.269L565 311c-6.166-1.636-12.509-1.05-18.836-.828l-5.86.096c-4.11.068-8.216.169-12.324.295-5.281.162-10.563.273-15.846.363-8.706.152-17.412.337-26.116.596l-4.702.132L478 312v2a317 317 0 0 1-10 6c2.49-4.98 5.438-6.89 10-10 3.897-.974 6.95-1.127 10.949-1.13"/><path fill="#d07e62" d="M843 141c4.731 1.892 7.478 3.394 11 7l-1 5c-4.964.993-6.552.966-11-1v-2l-5-2-1-3 8-1z"/><path fill="#c5876f" d="m969 609 3 1c-2.455 6.137-4.295 7.712-10 11-4.578.8-9.051.724-13.687.621l-3.935-.018c-4.127-.027-8.252-.096-12.378-.165q-4.209-.032-8.418-.057c-13.827-.114-13.827-.114-20.582-.381v-1c4.234-.052 8.454-.04 12.688.008l7.93.05c4.2.032 8.4.067 12.602.113 4.03.042 8.061.066 12.092.087l3.845.056c2.95.009 5.899-.134 8.843-.314v-3h4l-1-4h3v-3z"/><path fill="#c78b73" d="m456.406 479.379 5.938.045 6.156.138q3.125.032 6.25.057c10.526.129 10.526.129 15.25.381v1c-2.648.15-5.301.229-7.953.281l-5.004.114-5.293.105q-5.133.104-10.266.219l-4.633.092C453 482 453 482 449 483v2h-6l-1 4c-3.062 1.25-3.062 1.25-6 2 3.918-9.796 10.38-11.76 20.406-11.621"/><path fill="#c77658" d="M853 448c2.844-.012 2.844-.012 6.5.313l3.656.3L866 449v1l-4.965-.875L856 450c-1.424 4.943-.877 9.91-.562 15q.158 4.218.308 8.438l.209 3.808L856 480h-1c.01-5.471.135-10.936.258-16.406L855 459h-3c-1.25-3.375-1.25-3.375-2-7l1-2h2z"/><path fill="#cd8569" d="m603 312-1 4 5 2-2 3-1-3c-3.812 1.688-3.812 1.688-8 4l-4 2c1.07-5.35 2.372-7.107 6-11 2-1 2-1 5-1"/></svg>