<svg xmlns="http://www.w3.org/2000/svg" width="1408" height="768"><path fill="#d07553" d="m796.23-.238 3.32-.03C844.225-.585 844.225-.585 865 4l3.193.682A360 360 0 0 1 909 16l5.29 1.805c61.702 21.73 113.433 61.881 164.355 101.84 8.967 7.02 17.97 13.902 27.355 20.355l2.976 2.05c26.394 18.107 26.394 18.107 40.024 23.95l3.395 1.469c24.866 10.147 46.962 7.391 71.332-2.63A160 160 0 0 0 1232 161c4-.375 4-.375 8 0 4 4 4 4 4.531 7.844-1.262 9.871-11.379 18.821-18.531 25.156-26.267 19.786-53.182 27.902-86.168 24.46-23.393-3.44-44.954-11.465-65.832-22.46l-4.672-2.352c-15.256-7.769-29.775-16.644-44.328-25.648l-5.61-3.453a3970 3970 0 0 1-24.629-15.333C979.063 139.384 963.276 129.855 947 121l-3.382-1.848a396 396 0 0 0-26.43-13.027l-4.064-1.823c-63.956-28.407-133.56-42.09-201.07-16.522C685.267 98.485 662.46 113.76 641 133l-2.66 2.348-2.778 2.464-2.558 2.27C631 142 631 142 630 144h-2l-2 4-3 2.937c-5.227 5.31-9.577 11.077-14 17.063l-2.887 3.883c-11.24 15.485-20.225 32.13-28.957 49.113C572.2 230.2 572.2 230.2 568 233c-8.227.58-8.227.58-13-3-2.531-7.594-.307-15.161 1.562-22.688l.82-3.33c9.5-37.7 26.466-73.472 50.618-103.982l2.367-3.012c4.802-5.989 9.914-11.652 15.153-17.261a106 106 0 0 0 4.59-5.383c2.898-3.594 6.372-6.356 9.89-9.344l2.777-2.438C656.167 50.946 670.514 40.634 686 32l5.203-2.902C718.933 13.968 747.88 5.93 779 1l2.599-.533c4.868-.669 9.726-.67 14.631-.705"/><path fill="#d17654" d="M1019 262c6.777 11.295 1.955 25.922-1 38-7.83 28.56-24.195 54.63-50 70-31.23 16.943-63.668 13.9-96.637 4.244-15.694-4.728-31.018-10.447-46.203-16.603-12.878-5.2-25.621-9.4-39.16-12.641l-3.375-.809c-20.674-4.163-43.294-.973-61.312 10.122-43.934 29.564-58.955 81.787-71.908 130.46C638.877 524.311 627.157 562.378 600 594l-2.129 2.797L596 599h-2v2a280 280 0 0 1-8 7l-3.375 3c-22.053 18.25-52.754 32.93-81.75 33.25l-4.258.078C493 644 493 644 490 641c-.66-4.372-.469-6.324 2.07-9.988 3.252-3.343 6.088-4.926 10.305-6.887l4.285-2.055L511 620c25.179-12.65 42.335-29.451 51.5-56.687 4.82-18.87 1.386-38.243-7.645-55.188-2.635-4.44-5.479-8.206-8.855-12.125l-3.062-3.625c-11.912-10.21-24.85-12.532-40.086-13.031C499 479 499 479 497 477c-.585-7.21.068-11.895 4-18 6.359-6.503 12.853-8.183 21.75-8.437 15.542.346 26.012 6.932 37.25 17.437v2h2a148 148 0 0 1 4.625 7l2.477 3.938L571 484c-3.603-16.07-9.366-31.256-20-44l-1.895-2.383C539.437 426 526.814 418.963 512 416c-15.433-.918-27.125.803-40 10-6.827 6.729-10.959 13.965-14 23l-1.312 3.875c-2.363 14.175.1 26.625 7.312 39.125 6.656 8.758 14.206 14.27 24.813 17.438 6.829.917 12.134.516 18.75-1.438 4.935-1.455 8.172-2 13.437-2 2 5 2 5 .813 8.875-5.855 8.587-16.514 13.57-26.543 15.707-19.172 2.45-35.939-1.332-52.27-11.582-12.89-10.387-22.55-24.416-25-41-1.387-22 1.378-42.454 16-60h2l2-4c12.82-14.196 31.162-21.94 50-24 28.109-1.383 51.803 8.059 72.688 26.813 3.373 3.096 5.245 5.052 7.312 9.187h2c21.954 26.6 29.933 62.27 27.5 96.063-1.167 10.621-3.66 20.827-6.355 31.144L590 558l1 1c21.774-31.383 29.16-72.934 38.32-109.164C642.7 397 658.433 345.567 698 306h2v-2c26.558-23.651 58.533-34.883 94-33 35.454 2.836 66.8 16.99 98.508 32.156 46.587 22.277 46.587 22.277 66.617 16.281 22.826-8.6 36.675-30.657 46.438-52C1008 263 1008 263 1011 260.75c3-.75 3-.75 8 1.25"/><path fill="#d17655" d="m839 164 4.746.738C880.126 171.046 915.23 186.996 944 210l3.36 2.648c7.304 5.848 7.304 5.848 9.64 9.352-.125 3.5-.125 3.5-1 7-4 3-4 3-8.46 2.508-6.33-1.723-12.147-4.052-18.165-6.633-23.974-9.993-48.404-18.09-74.375-20.875l-3.07-.336c-30.522-2.83-61.058 1.16-89.93 11.336l-3.68 1.297c-19.239 7.24-36.772 18.347-52.32 31.703l-2.383 2.043c-38.288 33.676-63.41 79.4-77.265 128.191C625 382 623.975 384.33 621 387c-6 0-6 0-8.75-2.125-4.904-6.266-4.6-12.94-4.562-20.625l.01-3.448C608.365 307.137 627.179 255.338 664 216l2.676-2.875C710.168 167.926 778.74 153.41 839 164"/><path fill="#d17351" d="m590 479 1 2 3 1c2.277 8.874 2.27 17.57 2.188 26.688l-.002 4.185c-.033 7.418-.033 7.418-.186 10.127h-1c-.25-4.458-.386-8.916-.523-13.379L594 506l-3 1-1 5h2v2h2c.204 3.862.277 7.638.25 11.5l.023 3.324c-.006 2.727-.13 5.453-.273 8.176h-2l.063 4c-.065 5.12-.817 8.425-3.063 13h-3l-1-4c.457 4.437.917 8.668 2 13v3l4-4c1 4 1 4 1 10h-2v2h2c.25 4 .25 4 0 8h-2v-2h-2v2h-2v4h-2v2h-4v4c-4.999 2-7.556 2.163-12.812 2-2.395-.073-4.794-.096-7.188 0v2l-5-1-1 1h-5c.749-4.212 1.948-5.948 5-9a449 449 0 0 0 3-10 438 438 0 0 1 3.816-9.727c2.639-7.296 3.435-13.697 3.371-21.46l-.039-5.555a185 185 0 0 0-.836-13.07L563 522h3c-1.187-3.937-1.187-3.937-3-8l-2-1c-.964-3.943-1.003-5.988 0-10l-1-5h2v-2h3l-1-4h-2v-2l3-1 2-3c3 5 3 5 5 9h2l1-5c3.332-4.094 6.063-5.43 11-7l1-3z"/><path fill="#d07451" d="m1009 278 1 2 3.5.129 3.5.871c.938 3.527.938 3.527 1 7.938l.125 4.402C1018 297 1018 297 1017 299h-2v4l-3 3v4h-2l-1 4h-1l.063-4-.063-4h-2c-.123 2.414-.12 4.834-.062 7.25.094 4.27.101 7.593-.938 11.75h-2l-1 3h-2v2h-2v-2h-2l-1 4c-1-1-1-1-1.187-5.562L994 322h2v-4h2v-2h2v-2h2l1-2c-1-1-1-1-3-2v-2h-2l-1 4h-1l.188-5-.188-5h-4v2h-2l-1-4 4-3 1-3h2l1.438-4.375C999 285 999 285 1002 283l1-3 5-1z"/><path fill="#d17654" d="m526 454 2 4h-3l-1 2h-2c.063 3.438.063 3.438 1 7l5 1c-1 5-1 5-2 8h2l1-4 1 2h2v2h2v-6h2v6h2v-2h2v6h-2v3l5 1-1 2-5-1v-2l-4.062-.437L529 482l1-3-4 2-1-1a787 787 0 0 0-16.719-.518c-3.096-.09-6.19-.278-9.281-.482-1.67-3.34-.632-6.437 0-10h2l.688-4.187C503 460 503 460 506.188 457.063c6.926-3.748 11.987-4.698 19.812-3.063"/><path fill="#d27959" d="M842 350c4.938-.312 4.938-.312 10 0l1 3 3.563.438L860 354v4h2v-4h2v6h2v-2h2v4h5l1 4 3 1-1 5h-5l5.5.375 5.5.625v2c2.32.418 4.658.736 7 1 3.438.438 3.438.438 6 1v2q3.984.624 8 1c-17.9 4.475-50.6-10.937-67-18v-1c3.124-.21 6.246-.32 9.375-.426L848 360v-4h-2v-4h-4z"/><path fill="#d17c5b" d="M679 393h4c-2 5-2 5-4.617 10.129-12.312 24.13-20.48 49.674-27.418 75.813-.627 2.36-1.29 4.71-1.965 7.058h-1c-1-10.333-1-10.333-1-15l3-3c2.827-6.819 4.43-12.598 5-20l1-4h-4c-.5-4-.5-4 0-8h4c.092-2.999.076-6.001 0-9 .875-4.062.875-4.062 2-7h2v4h2v3h3v-5h2v-3h2l-.062-3.437L669 412l3-1q.554-3.993 1-8h2v-3h2l.875-3.5z"/><path fill="#d17c5c" d="M1019 262c6.065 10.109 2.719 23.027 0 34h-1c-1-5-1-5-.937-10.312L1017 281h-2l-1 2v-3c-5-1-5-1-8 1l-3-1-1 4-3 1-1 4h-2l-1 3-3 1c1.79-4.476 3.794-8.103 6.313-12.187 2.72-4.445 5.234-8.813 7.375-13.563C1008 263 1008 263 1011 260.75c3-.75 3-.75 8 1.25"/><path fill="#d69076" d="m519 616 2 1c-2 4-2 4-4.812 5.188-2.71.69-5.447 1.264-8.188 1.812l-1 4c-5.036 3-5.036 3-8 3v-2l-3 1c-2 5-2 5-2 11 1 1 1 1 4.563 1.125L502 642v-1l4.188-.75c5.016-1.303 6.514-2.452 9.812-6.25h2l2-4 .063 3.625L521 637c3.188-.437 3.188-.437 7-2 4.58-1.718 8.122-2 13-2v-2l2-1 1-3h2v2l5 1c-13.687 9.124-33.851 14.07-50.125 14.25l-4.258.078C493 644 493 644 490 641c-.657-4.35-.469-6.317 2.043-9.973 3.36-3.44 6.428-5.111 10.77-7.152l4.082-1.945L511 620l4.387-2.305z"/><path fill="#d6957c" d="m675 273 4 2c-1.7 2.766-1.7 2.766-4.687 6.25-15.278 18.56-26.982 40.467-35.75 62.813L637 348h-1c-1.187-4-1.187-4-2-8h2v-3h2a224 224 0 0 0 1-6l2-4h2c.708-2.656 1.37-5.324 2-8l3-6h3l-1-4h2l1-2h2l-.5-2.875L654 301l2-2h4l-1-5 3-1 1-4h2l1-4 1-2h2l-1-4 2-1 3 1v-4h2z"/><path fill="#d38264" d="M990 134h6v6l4 1 1 4 2 1-1-4h2l1 3 5 1v5h-2c.625 3.063.625 3.063 2 6l4-1c2.875 2.875 2.875 2.875 5 6l-2 1c-2.519-1.292-2.519-1.292-5.672-3.262l-3.453-2.142-3.625-2.284-3.578-2.224c-3.233-2.015-6.46-4.038-9.672-6.088-1.2-.68-2.4-1.358-3.638-2.058-.78-.64-1.559-1.282-2.362-1.942l4-3 .375-3.187z"/><path fill="#dc9e86" d="M596 493h1c2.525 20.66-.654 40.284-5.855 60.207L590 558l1 1c0 4.308-2.113 5.972-5 9-1-2-1-2 0-7a505 505 0 0 0-2-6c-.075-2.332-.093-4.669 0-7 2 2 2 2 2 6h3c.625-3.25.625-3.25 1-7l1-4 .438-3.25L592 537h2l-1-4c-.094-2.874-.13-5.75-.125-8.625l-.008-4.602C593 516 593 516 594 514h-2v-2h-2v-5l3-2q.562-4.994 1-10z"/><path fill="#d58e73" d="M718 232h3l1 4c-2.001 1.404-4.02 2.785-6.098 4.074-10.621 7.048-19.598 16.42-28.48 25.49A549 549 0 0 1 682 271h-1v-6h2l1-5h2v-2l3-.312 3-.688v-5l6 1v-5l5-1v-2h2v-2h2v-2l3-1-2-4h2v2l5-1v-2l3-1z"/><path fill="#cf7553" d="M946 215c2.688-.187 2.688-.187 6 1 2.938 2.625 2.938 2.625 5 6 .063 3.688.063 3.688-1 7-4 3-4 3-9.125 2.625C942 230 942 230 940.125 226.438L940 223l4-1v-2h2z"/><path fill="#d3866a" d="M1017 297c2.552 7.655-3.994 18.872-7.266 25.793-3.19 6.11-6.24 11.95-10.734 17.207-.125-3.5-.125-3.5 0-7h2v-4h2v-4h2c.048-3 .037-6 0-9 .225-3.342.533-6.683 1-10h2c.414 2.32.749 4.656 1 7l1-3h2l-1-5 4-2v-4h2z"/><path fill="#d17250" d="m542 603 2 1c.375 4.063.375 4.063 0 8h-4l.125 3.813L540 620c-3.307 2.598-5.188 3.045-9.375 2.813L528 622v-2h-2v-5h5v-3l2 1v-2h2l2-4c1-2 1-2 5-4"/><path fill="#d48264" d="m547 496 4 1 3-1 3 4 1-4h2c2.25 9 2.25 9 1 14v3l3 1c2 5 2 5 2 8h-3c.313 3.5.313 3.5 1 7-2-3-2-3-3.687-8.437-2.916-9.008-7.936-16.82-13.313-24.563"/><path fill="#d48b6f" d="M544 627h2v2l5 1c-11.353 7.569-28.35 13.24-42 12v-2a375 375 0 0 1 6-4l1-2h2l2-4 .063 3.625L521 637c3.188-.437 3.188-.437 7-2 4.58-1.718 8.122-2 13-2v-2l2-1z"/><path fill="#d69177" d="m625 552 1 2c-5.635 12.378-12.76 24.92-22 35h-1c-.75-3-.75-3-1-6h3v-2h2l1-3 1-3h2v-3h2v-3h2l-1-5h3v-2h-3v-3c4-1 4-1 7 0v-2h2v-4z"/><path fill="#d48c72" d="M646 486h2c-.306 7.479-2.77 14.519-4.937 21.625l-1.092 3.64c-1.587 5.271-3.212 10.519-4.971 15.735-2-3-2-3-2-7h2l-.062-3.937c.065-5.298 1.355-9.097 3.062-14.063l-2-1 1-3h3l1-5h2l.5-3.5z"/><path fill="#daa28c" d="M611 324h1c-.008 4.09-.08 8.163-.191 12.25l-.174 7.656q-.146 6.084-.304 12.168c-.1 3.892-.187 7.784-.272 11.676l-.107 3.712c-.06 2.845-.018 5.693.048 8.538h2v3h2v3c-4-2-4-2-5.727-5.383-1.533-5.56-1.72-10.772-1.648-16.492l.02-3.388c.191-12.32 1.433-24.57 3.355-36.737"/><path fill="#d7977f" d="M659 439h3c-1.177 7.612-3.712 15.01-5.937 22.375l-2.09 6.96-1.012 3.371a382 382 0 0 0-2.652 9.646L649 486h-1c-1-10.333-1-10.333-1-15l3-3c2.844-6.86 4.282-12.583 5-20l2-1 .938-4.062c.35-1.3.7-2.6 1.062-3.938"/><path fill="#d07450" d="m921 195 1 3 4 2v4h-2v-3h-2v5h-2v-2h-4v2h-4v-2h-2v-4l-2-4c4.466-2.977 7.858-1.857 13-1"/><path fill="#d79b84" d="M559 198h1c1.405 5.737.522 8.761-2 14-1.195 5.977-1.406 10.91-1 17l5-1 3 1 3-1v-2h5c-2 5-2 5-5 7-8.227.58-8.227.58-13-3-2.475-7.425-.372-14.62 1.438-22l1.37-5.687z"/><path fill="#d99c85" d="M1019 262c6.065 10.109 2.719 23.027 0 34h-1c-1.095-5.473-1.201-10.431-1-16h2c.688-5 .688-5 1-10h-1v-5l-5 1v-2l-3 3h-2v2h-3v3h-2c1.049-5.01 3.15-7.713 7-11 3-1 3-1 8 1"/><path fill="#d69379" d="m555 581 1 2c-1.312 3.625-1.312 3.625-3 7h-2l-1 5 2 3-5 3-2 3-3.5.438-3.5.562-2 4-1 2h-2v2c-3.5.125-3.5.125-7 0 3-3 3-3 7.625-6.562 9.064-7.231 15.416-15.55 21.375-25.438"/><path fill="#d5937a" d="M484 415q3.01.44 6 1c-2.874 1.916-5.699 3.328-8.812 4.813C470.158 426.34 463.295 434.379 459 446c-2-3-2-3-2-7h2v-4h4v-6h2v-2h2v-2h2v-2l5-2 3-3c2.321-.708 4.654-1.38 7-2z"/><path fill="#d49880" d="M531 451v2c-2.781.309-2.781.309-6.5.438-8.08.464-13.544 2.388-20.5 6.562a189 189 0 0 0-3 9h-2v8h-2c-.6-7.198.078-11.91 4-18 8.374-8.564 18.578-9.067 30-8"/><path fill="#d58d72" d="m710 357 5 1a149 149 0 0 1-7.75 7.25c-4.264 3.762-8.263 7.697-12.25 11.75l-4 4c-.25-3.75-.25-3.75 0-8l4-4 1-3 5 1v-2h2l1-5 2 1z"/><path fill="#d59177" d="M1235.875 160.625C1240 161 1240 161 1244 165c.793 4.253.641 6.866-1.504 10.66-1.871 2.59-1.871 2.59-5.496 6.34l-2-4 2-3c.25-4.562.25-4.562 0-9-2-2-2-2-7-3 2-2 2-2 5.875-2.375"/><path fill="#d48d72" d="m604 166 5 1c-2.302 5.573-6.382 10.307-9.969 15.125-1.99 2.817-3.707 5.689-5.406 8.688L591 195l-2-2v-3h2v-3l4-1v-5h2l.5-3 .5-3h2l1-5h-2v-2h5z"/><path fill="#d78d72" d="M596 493h1c1.273 12.346 2.687 26.283-2 38h-1a170 170 0 0 1-.625-7.375l-.29-4.148C593 516 593 516 594 514h-2v-2h-2v-5l3-2q.562-4.994 1-10z"/><path fill="#dc9d86" d="M905 310c4.807.961 8.523 2.425 13 4.375 11.012 4.593 21.173 6.679 33 7.625v1c-7.073.163-14 .167-21-1v-2c-4.178.303-8.016.672-12 2v-2l-4-1v-4h-4v-2h-4z"/><path fill="#d49981" d="m477 505 4.188 1.813c10.633 4.375 19.584 3.51 30.402.097C515 506 515 506 521 506l-1 4c-3.666.043-7.334.04-11 0l-3 3c-4.887.363-4.887.363-10.687.313l-5.825-.012L485 513v-2l-3-1-3-1v-2h-2z"/><path fill="#dca792" d="M520 393v1c-3 .688-3 .688-6 1v-2c-2.613-.12-5.233-.092-7.848-.012l-4.963.143-5.252.182-5.17.146c-13.868.429-13.868.429-20.767 1.541 13.14-8.76 35.669-6.447 50-2"/><path fill="#ddab97" d="m794.313 71.875 4.61-.012 4.44.004 4.01.004c3.315.118 6.37.535 9.627 1.129q4.685.326 9.375.563l4.898.253L835 74l-2 3c-3.732-.188-7.303-.53-11-1-15.593-1.462-30.983-2.203-46.652-2.014-3.116.035-6.232.03-9.348.014v-1c9.428-1.184 18.823-1.15 28.313-1.125"/><path fill="#d48e74" d="m599 588 4 1c-1.964 3.927-4.059 6.764-7 10h-2v2c-2.634 2.37-5.304 4.7-8 7l-4 4-2-1 1-4h2l2-5 3-1 1-2h2v-2h2l1-4h3v-2h2z"/><path fill="#d7987f" d="M859 83c6.737-.192 13.323.06 20 1l1 2-2 1 1 1 4.313-.187C888 88 888 88 892 92l3 1 1 3c-5.471-1.094-10.48-2.929-15.687-4.875-5.634-2.102-11.252-4.107-17.02-5.82L859 84z"/><path fill="#d4937a" d="m587 194 3 1c-2.053 5.132-4.41 9.99-6.875 14.938l-2.617 5.277c-1.992 3.8-3.971 7.333-6.508 10.785h-1c-.266-4.603-.105-6.79 2-11h2v-3l4-1v-8l4-2v-4h2z"/><path fill="#d5947a" d="m576 611 4 2c-7.923 7.22-18.7 14.021-29 17 .813-3.062.813-3.062 2-6l3 1v-2h5v-2h4v-3l5-1v-2h3v-2h3z"/><path fill="#d7977f" d="M731 77h2v2h3v-2c5-.187 5-.187 10 0v1c-3.535.961-7.07 1.87-10.625 2.75-8.172 2.06-16.074 4.368-23.926 7.465C709 89 709 89 707 88l1-3 3.938.063L716 85l2-4c4.257-2.838 7.983-2 13-2z"/><path fill="#d59277" d="m1233 181 3 1c-4.26 8.519-12.873 15.198-21 20l-2-1 1-4h3v-2l2-2h3l1-5q2.988-.57 6-1l2-4z"/><path fill="#d8977f" d="M611 517h1c1.005 4.923 1.081 9.085 0 14l-2 1-2-1a470 470 0 0 0-1 7l-2 2-.937 3.063L603 546l-3 1-1 3h-2c2.643-6.607 5.518-13.11 8.367-19.629 1.935-4.437 3.835-8.876 5.633-13.371"/><path fill="#d99e88" d="M584 450c8.603 8.603 11.637 27.928 12.25 39.875L596 493h-1c-.472-2.662-.942-5.324-1.402-7.988-.824-4.15-2.176-8.031-3.598-12.012l-1.562-4.875C587 464 587 464 585 461l1-5-4 2v-3h2l-1-4z"/><path fill="#d48d73" d="m675 273 4 2c-1.805 2.941-1.805 2.941-4.875 6.563-3.456 4.168-6.79 8.236-9.687 12.812-.805 1.196-1.61 2.392-2.438 3.625h-2l-1-4 3-1 1-4h2l1-4 1-2h2l-1-4 2-1 3 1v-4h2z"/><path fill="#daa18b" d="M805 273c15.646.377 30.498 5.372 45 11-4 2-4 2-9 2l-1-2-3-1v-2h-5v-2a195 195 0 0 0-7 0l-4-1v-2a253 253 0 0 0-8 0c-3.937-.375-3.937-.375-7-1z"/><path fill="#d89a81" d="M679 393h4c-2.566 6.416-5.57 12.586-8.562 18.813l-1.827 3.833-1.74 3.624-1.596 3.33c-.42.793-.841 1.584-1.275 2.4h-1v-6h2l-.062-3.437L669 412l3-1q.554-3.993 1-8h2v-3h2l.875-3.5z"/><path fill="#d5977f" d="m422 489 4 1c.625 3.063.625 3.063 1 6h2v5h2l.875 2.875C433 507 433 507 437 509l3 3 3 1 1 4 1 2c-10.898-5.45-18.028-16.173-23-27z"/><path fill="#dea994" d="M646 391c1.081 4.326.716 6.025-.375 10.25-.992 3.96-1.706 7.542-2.125 11.625L643 416l-3-1c-.727 3.75-.962 7.487-1.277 11.293C638 430 638 430 634 434c1.54-8.692 3.982-17.002 6.563-25.437l1.248-4.124c2.924-9.644 2.924-9.644 4.189-13.439"/><path fill="#dba38d" d="m869 369 2 3q5.496.55 11 1v2c2.32.418 4.658.736 7 1 3.438.438 3.438.438 6 1v2q3.984.624 8 1c-5.332 1.333-8.9.12-14.25-1.125l-2.952-.686c-8.395-1.997-16.62-4.435-24.798-7.189z"/><path fill="#dda994" d="m842.5 200.813 5.922-.038 5.61-.005 5.142-.013L863 201l1 2 4 2-4.633-.437c-14.039-1.243-27.92-1.748-42.016-1.577-3.117.035-6.234.03-9.351.014v-1c10.129-1.444 20.292-1.184 30.5-1.187"/><path fill="#da9c84" d="M517 479a256 256 0 0 1 8 0h5v2a772 772 0 0 0 7 2l1 2h6c.75 3.25.75 3.25 1 7l2 4-2.875-2.625c-7.83-6.406-14.957-9.965-24.633-12.613L517 480z"/><path fill="#d89d87" d="m455 445 3 1a242 242 0 0 1-1.437 7.707c-1.8 10.53-.287 20.077 2.437 30.293-3-1-3-1-4.668-3.742-1.832-5.857-1.73-11.286-1.644-17.383l-.01-3.535c.034-5.392.3-9.286 2.322-14.34"/><path fill="#d79c84" d="M1084 125c4.673 2.336 8.59 5.234 12.813 8.313L1106 140l4.2 2.793L1113 145l-2 2-4-1v-3h-3v-2l-3-1-3-3-3-1-1-2-5-2v-2h-4v-2l-4-2z"/><path fill="#dca690" d="m760 6-3 .375L754 7v2c-3.384.41-6.751.51-10.156.656L741 10v2c-4.557 1.39-8.21 2-13 2l-1 3c-4.062.188-4.062.188-8 0 9.189-6.126 30.165-13.709 41-11"/><path fill="#d9a08a" d="M499 627v2l-3 1c-2 5-2 5-2 11 1 1 1 1 4.563 1.125L502 642v-1c4.283-.168 7.76.152 12 1v1c-4.551.91-8.503 1.199-13.125 1.25l-4.258.078C493 644 493 644 490 641c-.706-4.68-.378-6.463 2.375-10.375C496 627 496 627 499 627"/><path fill="#e0a994" d="M1148 216c5.512 1.378 10.979 1.437 16.64 1.719l3.36.281v1c-14.2.661-28.08.135-42-3v-1c3.286-.295 6.58-.51 9.875-.687l5.555-.325C1146 214 1146 214 1148 216"/><path fill="#d99f88" d="M564 529h2v2h2c.063 4.283-.01 8.476-.187 12.75l-.096 3.656-.135 3.516-.118 3.237C567 557 567 557 564 561c-.058-5.333-.093-10.667-.125-16l-.05-4.625-.02-4.375-.032-4.062z"/><path fill="#d58f74" d="M572 431c5.52 4.059 9.099 10.9 12 17l-1 2-2-1v-2l-3-1-3-7-3-1-1 2-3-3v-3h3z"/><path fill="#d79d85" d="M1057 104c3.828 1.914 6.758 4.004 10.125 6.625l3.457 2.688c4.496 3.534 8.965 7.098 13.418 10.687-3 1-3 1-6 0v-3l-4-1-1-3a253 253 0 0 0-6-2v-2l-4-1v-2l-3-1c-2-2-2-2-3-5"/><path fill="#d79c85" d="M983 52c11.19 4.476 21.243 11.987 31 19l-4 1c-8.571-5.143-8.571-5.143-10-8l-5-2v-2h-6c-6-6.111-6-6.111-6-8"/><path fill="#d7977f" d="m1010 314 2 1c-.987 4.936-2.443 8.103-4.812 12.5l-2.083 3.906c-1.835 3.133-3.75 5.842-6.105 8.594-.125-3.5-.125-3.5 0-7h2v-4h2v-4h2v-3h2l1-3h2z"/><path fill="#d79e87" d="M949 215c5 3 5 3 8 7-.062 3.563-.062 3.563-1 7l-4 3c-5.25-.812-5.25-.812-10-2 4-1 4-1 7.875-1.187L953 228c-.437-2.625-.437-2.625-2-6a763 763 0 0 1-2-7"/><path fill="#deac99" d="M792 203c2.996-.175 6-.213 9-.187l5.063.019L810 203v1c-2.931.457-5.871.863-8.812 1.25-9.04 1.294-17.66 3.283-26.442 5.762C771 212 771 212 768 212v-2c2-1 2-1 8-1v-2q4.493-.569 9-1l1-1h6z"/><path fill="#d78f75" d="m558 507 3 3v3l3 1c2 5 2 5 2 8h-3c.313 3.5.313 3.5 1 7-1.987-2.98-2.909-5.423-4-8.812l-1-3.083-1-3.105-1.25-3.324L556 508z"/><path fill="#dca792" d="M452 523c7.45-.366 7.45-.366 11 2v2h10v2c3.16.288 6.33.454 9.5.563a408 408 0 0 1 9.5.437v1c-14.31.93-27.09-.545-40-7z"/><path fill="#d68f75" d="M890 202h2c.125 4.063.125 4.063-1 8-3.187.188-3.187.188-8-1l-7.5-1.5a146 146 0 0 1-6.5-1.5v-1a145 145 0 0 1 6.438-.062l3.62.027L882 205c2.375 0 4.792-1.218 7-2z"/><path fill="#d5937a" d="m621 147 4 2c-1.621 2.355-1.621 2.355-4.437 5.188-3.937 4.075-7.342 8.136-10.563 12.812h-1v-6l3-2v-2h2l1-4h2v-2h2v-2h2z"/><path fill="#d69278" d="M1125 154c4.037 1.615 7.411 3.303 11.125 5.5l3.133 1.844A153 153 0 0 1 1145 165c-3.964.076-7.127-.032-11-1v-2l-5-1-4-4z"/><path fill="#d38a6f" d="M1177 213c4 1 4 1 7 3-7.812 2.193-15.924 2.958-24 2l-1-3c3.586-.477 3.586-.477 8.375-.625 8.544-.294 8.544-.294 9.625-1.375"/><path fill="#d7977e" d="M642 505c1.557 4.672-.424 8.084-1.937 12.688l-1.715 5.261L637 527c-2-3-2-3-2-7h2c.044-3 .04-6 0-9l1-4h4z"/></svg>